<svg width="750" height="750" viewBox="0 0 750 750" fill="none" xmlns="http://www.w3.org/2000/svg">
<path d="M722.475 677.145H16.6499C16.4522 677.141 16.2636 677.061 16.1238 676.921C15.984 676.781 15.9037 676.593 15.8999 676.395C15.8999 676.196 15.9789 676.005 16.1196 675.865C16.2602 675.724 16.451 675.645 16.6499 675.645H722.475C722.674 675.645 722.864 675.724 723.005 675.865C723.146 676.005 723.225 676.196 723.225 676.395C723.225 676.594 723.146 676.785 723.005 676.925C722.864 677.066 722.674 677.145 722.475 677.145Z" fill="#263238"/>
<path d="M278.415 50.43H189V123.63H278.415V50.43Z" fill="#263238"/>
<path d="M259.545 97.485L233.7 58.815L207.855 97.485H216.57V115.08H250.83V97.485H259.545Z" fill="white"/>
<path d="M278.4 124.38H189C188.801 124.38 188.61 124.301 188.47 124.16C188.329 124.02 188.25 123.829 188.25 123.63V50.43C188.25 50.2311 188.329 50.0403 188.47 49.8997C188.61 49.759 188.801 49.68 189 49.68H278.4C278.599 49.68 278.79 49.759 278.93 49.8997C279.071 50.0403 279.15 50.2311 279.15 50.43V123.63C279.15 123.829 279.071 124.02 278.93 124.16C278.79 124.301 278.599 124.38 278.4 124.38V124.38ZM189.75 122.88H277.65V51.18H189.75V122.88Z" fill="#263238"/>
<path d="M250.83 115.83H216.57C216.371 115.83 216.18 115.751 216.04 115.61C215.899 115.47 215.82 115.279 215.82 115.08V98.235H207.855C207.719 98.2339 207.585 98.1956 207.469 98.1242C207.352 98.0529 207.258 97.9511 207.195 97.83C207.125 97.7147 207.088 97.5824 207.088 97.4475C207.088 97.3125 207.125 97.1802 207.195 97.065L233.055 58.395C233.128 58.2987 233.222 58.2205 233.33 58.1668C233.438 58.113 233.557 58.085 233.678 58.085C233.798 58.085 233.917 58.113 234.025 58.1668C234.133 58.2205 234.227 58.2987 234.3 58.395L260.145 97.065C260.215 97.1802 260.252 97.3125 260.252 97.4475C260.252 97.5824 260.215 97.7147 260.145 97.83C260.085 97.9533 259.991 98.057 259.874 98.1288C259.757 98.2005 259.622 98.2373 259.485 98.235H251.52V115.08C251.521 115.269 251.45 115.451 251.322 115.59C251.194 115.729 251.018 115.815 250.83 115.83ZM217.32 114.33H250.08V97.5C250.08 97.3011 250.159 97.1103 250.3 96.9696C250.44 96.829 250.631 96.75 250.83 96.75H258.15L233.7 60.165L209.265 96.735H216.57C216.769 96.735 216.96 96.814 217.1 96.9546C217.241 97.0953 217.32 97.2861 217.32 97.485V114.33Z" fill="#263238"/>
<path d="M456.315 682.98C455.32 682.98 454.367 682.585 453.663 681.882C452.96 681.178 452.565 680.225 452.565 679.23V62.04C452.565 61.0454 452.96 60.0916 453.663 59.3883C454.367 58.6851 455.32 58.29 456.315 58.29C457.31 58.29 458.263 58.6851 458.967 59.3883C459.67 60.0916 460.065 61.0454 460.065 62.04V679.23C460.065 680.225 459.67 681.178 458.967 681.882C458.263 682.585 457.31 682.98 456.315 682.98V682.98Z" fill="#263238"/>
<path d="M608.25 682.98C607.255 682.98 606.302 682.585 605.598 681.882C604.895 681.178 604.5 680.225 604.5 679.23V62.04C604.5 61.0454 604.895 60.0916 605.598 59.3883C606.302 58.6851 607.255 58.29 608.25 58.29C609.245 58.29 610.198 58.6851 610.902 59.3883C611.605 60.0916 612 61.0454 612 62.04V679.23C612 680.225 611.605 681.178 610.902 681.882C610.198 682.585 609.245 682.98 608.25 682.98V682.98Z" fill="#263238"/>
<path d="M608.25 102.6H458.25C457.255 102.6 456.302 102.205 455.598 101.502C454.895 100.798 454.5 99.8445 454.5 98.85C454.5 97.8554 454.895 96.9016 455.598 96.1983C456.302 95.4951 457.255 95.1 458.25 95.1H608.25C609.245 95.1 610.198 95.4951 610.902 96.1983C611.605 96.9016 612 97.8554 612 98.85C612 99.8445 611.605 100.798 610.902 101.502C610.198 102.205 609.245 102.6 608.25 102.6V102.6Z" fill="#263238"/>
<path d="M608.25 184.695H458.25C457.255 184.695 456.302 184.3 455.598 183.597C454.895 182.893 454.5 181.94 454.5 180.945C454.5 179.95 454.895 178.997 455.598 178.293C456.302 177.59 457.255 177.195 458.25 177.195H608.25C609.245 177.195 610.198 177.59 610.902 178.293C611.605 178.997 612 179.95 612 180.945C612 181.94 611.605 182.893 610.902 183.597C610.198 184.3 609.245 184.695 608.25 184.695V184.695Z" fill="#263238"/>
<path d="M608.25 266.805H458.25C457.255 266.805 456.302 266.41 455.598 265.707C454.895 265.003 454.5 264.049 454.5 263.055C454.5 262.06 454.895 261.107 455.598 260.403C456.302 259.7 457.255 259.305 458.25 259.305H608.25C609.245 259.305 610.198 259.7 610.902 260.403C611.605 261.107 612 262.06 612 263.055C612 264.049 611.605 265.003 610.902 265.707C610.198 266.41 609.245 266.805 608.25 266.805V266.805Z" fill="#263238"/>
<path d="M608.25 348.9H458.25C457.255 348.9 456.302 348.505 455.598 347.802C454.895 347.098 454.5 346.145 454.5 345.15C454.5 344.155 454.895 343.202 455.598 342.498C456.302 341.795 457.255 341.4 458.25 341.4H608.25C609.245 341.4 610.198 341.795 610.902 342.498C611.605 343.202 612 344.155 612 345.15C612 346.145 611.605 347.098 610.902 347.802C610.198 348.505 609.245 348.9 608.25 348.9V348.9Z" fill="#263238"/>
<path d="M608.25 431.01H458.25C457.255 431.01 456.302 430.615 455.598 429.912C454.895 429.208 454.5 428.255 454.5 427.26C454.5 426.265 454.895 425.312 455.598 424.608C456.302 423.905 457.255 423.51 458.25 423.51H608.25C609.245 423.51 610.198 423.905 610.902 424.608C611.605 425.312 612 426.265 612 427.26C612 428.255 611.605 429.208 610.902 429.912C610.198 430.615 609.245 431.01 608.25 431.01V431.01Z" fill="#263238"/>
<path d="M608.25 513.105H458.25C457.255 513.105 456.302 512.71 455.598 512.007C454.895 511.303 454.5 510.35 454.5 509.355C454.5 508.36 454.895 507.407 455.598 506.703C456.302 506 457.255 505.605 458.25 505.605H608.25C609.245 505.605 610.198 506 610.902 506.703C611.605 507.407 612 508.36 612 509.355C612 510.35 611.605 511.303 610.902 512.007C610.198 512.71 609.245 513.105 608.25 513.105V513.105Z" fill="#263238"/>
<path d="M608.25 595.215H458.25C457.255 595.215 456.302 594.82 455.598 594.117C454.895 593.413 454.5 592.46 454.5 591.465C454.5 590.47 454.895 589.517 455.598 588.813C456.302 588.11 457.255 587.715 458.25 587.715H608.25C609.245 587.715 610.198 588.11 610.902 588.813C611.605 589.517 612 590.47 612 591.465C612 592.46 611.605 593.413 610.902 594.117C610.198 594.82 609.245 595.215 608.25 595.215V595.215Z" fill="#263238"/>
<path d="M389.25 134.19H78.135V676.395H389.25V134.19Z" fill="white"/>
<path d="M389.265 677.145H78.135C77.9373 677.141 77.7488 677.061 77.6089 676.921C77.4691 676.781 77.3888 676.593 77.385 676.395V134.19C77.385 133.991 77.464 133.8 77.6047 133.66C77.7453 133.519 77.9361 133.44 78.135 133.44H389.265C389.464 133.44 389.655 133.519 389.795 133.66C389.936 133.8 390.015 133.991 390.015 134.19V676.395C390.011 676.593 389.931 676.781 389.791 676.921C389.651 677.061 389.463 677.141 389.265 677.145ZM78.885 675.645H388.5V135H78.885V675.645Z" fill="#263238"/>
<path d="M375.3 146.97H92.1001V676.38H375.3V146.97Z" fill="#B2B2B2"/>
<path d="M375.3 677.145H92.1001C91.9024 677.141 91.7138 677.061 91.574 676.921C91.4342 676.781 91.3539 676.593 91.3501 676.395V147C91.3539 146.802 91.4342 146.614 91.574 146.474C91.7138 146.334 91.9024 146.254 92.1001 146.25H375.3C375.499 146.25 375.69 146.329 375.83 146.47C375.971 146.61 376.05 146.801 376.05 147V676.5C376.025 676.68 375.935 676.845 375.797 676.964C375.659 677.082 375.482 677.147 375.3 677.145ZM92.8501 675.645H374.55V147.72H92.8501V675.645Z" fill="#263238"/>
<path d="M233.7 677.145C233.501 677.145 233.31 677.066 233.17 676.925C233.029 676.785 232.95 676.594 232.95 676.395V147.915C232.95 147.716 233.029 147.525 233.17 147.385C233.31 147.244 233.501 147.165 233.7 147.165C233.899 147.165 234.09 147.244 234.23 147.385C234.371 147.525 234.45 147.716 234.45 147.915V676.395C234.45 676.594 234.371 676.785 234.23 676.925C234.09 677.066 233.899 677.145 233.7 677.145Z" fill="#263238"/>
<path d="M279.465 261.51C279.318 261.508 279.175 261.463 279.054 261.38C278.932 261.298 278.838 261.181 278.782 261.046C278.726 260.91 278.711 260.761 278.739 260.617C278.768 260.473 278.837 260.34 278.94 260.235L367.095 172.065C367.236 171.924 367.428 171.844 367.628 171.844C367.827 171.844 368.019 171.924 368.16 172.065C368.301 172.206 368.381 172.398 368.381 172.597C368.381 172.797 368.301 172.989 368.16 173.13L280.005 261.285C279.862 261.429 279.668 261.509 279.465 261.51V261.51Z" fill="#263238"/>
<path d="M352.65 199.5C352.447 199.5 352.253 199.419 352.11 199.275C351.973 199.135 351.896 198.946 351.896 198.75C351.896 198.554 351.973 198.365 352.11 198.225L364.305 186.03C364.375 185.96 364.458 185.904 364.549 185.866C364.641 185.828 364.739 185.808 364.838 185.808C364.937 185.808 365.035 185.828 365.126 185.866C365.217 185.904 365.3 185.96 365.37 186.03C365.442 186.097 365.499 186.179 365.538 186.269C365.577 186.359 365.597 186.457 365.597 186.555C365.597 186.653 365.577 186.751 365.538 186.841C365.499 186.931 365.442 187.013 365.37 187.08L353.175 199.275C353.037 199.416 352.848 199.497 352.65 199.5Z" fill="#263238"/>
<path d="M110.4 600.705C110.197 600.705 110.003 600.624 109.86 600.48C109.723 600.34 109.646 600.151 109.646 599.955C109.646 599.759 109.723 599.57 109.86 599.43L147.885 561.405C148.026 561.264 148.218 561.184 148.418 561.184C148.617 561.184 148.809 561.264 148.95 561.405C149.091 561.546 149.171 561.738 149.171 561.938C149.171 562.137 149.091 562.329 148.95 562.47L111 600.48C110.923 600.56 110.829 600.621 110.725 600.66C110.622 600.699 110.511 600.714 110.4 600.705V600.705Z" fill="#263238"/>
<path d="M130.11 589.35C129.963 589.348 129.82 589.303 129.699 589.22C129.577 589.138 129.483 589.021 129.427 588.886C129.371 588.75 129.356 588.601 129.384 588.457C129.413 588.313 129.482 588.18 129.585 588.075L166.32 551.34C166.46 551.203 166.649 551.126 166.845 551.126C167.041 551.126 167.23 551.203 167.37 551.34C167.44 551.41 167.496 551.493 167.534 551.584C167.572 551.676 167.592 551.774 167.592 551.873C167.592 551.972 167.572 552.07 167.534 552.161C167.496 552.252 167.44 552.335 167.37 552.405L130.65 589.125C130.507 589.269 130.313 589.35 130.11 589.35V589.35Z" fill="#263238"/>
<path d="M67.215 344.49H39.675V375.18H67.215V344.49Z" fill="#263238"/>
<path d="M67.215 375.93H39.675C39.4773 375.926 39.2888 375.846 39.149 375.706C39.0091 375.566 38.9289 375.378 38.925 375.18V344.49C38.925 344.291 39.0041 344.1 39.1447 343.96C39.2854 343.819 39.4761 343.74 39.675 343.74H67.215C67.414 343.74 67.6047 343.819 67.7454 343.96C67.886 344.1 67.965 344.291 67.965 344.49V375.18C67.965 375.379 67.886 375.57 67.7454 375.71C67.6047 375.851 67.414 375.93 67.215 375.93ZM40.425 374.43H66.465V345.24H40.5L40.425 374.43Z" fill="#263238"/>
<path d="M53.445 351.405L45.675 364.875H61.23L53.445 351.405Z" fill="white"/>
<path d="M61.2301 365.625H45.6752C45.5414 365.63 45.4088 365.598 45.2911 365.534C45.1735 365.47 45.0752 365.376 45.0063 365.261C44.9374 365.147 44.9005 365.015 44.8994 364.882C44.8984 364.748 44.9331 364.616 45.0001 364.5L52.7851 351C52.8506 350.887 52.9446 350.792 53.0577 350.727C53.1709 350.661 53.2993 350.626 53.4301 350.625C53.5613 350.624 53.6903 350.659 53.8038 350.725C53.9172 350.791 54.0109 350.886 54.0751 351L61.8602 364.5C61.926 364.614 61.9606 364.743 61.9606 364.875C61.9606 365.007 61.926 365.136 61.8602 365.25C61.7984 365.363 61.7073 365.458 61.5965 365.524C61.4856 365.59 61.3591 365.625 61.2301 365.625V365.625ZM46.9651 364.125H60.0001L53.5201 352.905L46.9651 364.125Z" fill="#263238"/>
<path d="M476.385 453.33C476.385 453.33 472.17 460.92 487.755 517.83C494.565 542.655 497.865 562.065 497.865 562.065C497.187 576.81 497.734 591.586 499.5 606.24C502.5 628.575 507.495 677.43 507.495 677.43L508.77 690.075L522.66 688.38C522.66 688.38 527.715 626.46 528.135 610.035C528.555 593.61 530.25 574.65 530.25 562.44C530.25 550.23 528.135 488.715 528.135 488.715C528.135 488.715 536.145 555.27 536.565 559.485C536.985 563.7 539.1 616.77 539.1 616.77L543.72 683.325L555.525 683.745C555.525 683.745 566.895 639.945 568.575 621.825C570.255 603.705 565.575 578.445 565.575 574.23C565.575 570.015 583.26 491.25 584.1 473.55C584.94 455.85 584.52 452.91 584.52 452.91L478.5 444.48L476.385 453.33Z" fill="#7D7D7D"/>
<path d="M508.83 690.825C508.642 690.829 508.46 690.762 508.321 690.637C508.181 690.511 508.095 690.337 508.08 690.15L506.82 677.505C506.82 677.025 501.72 628.395 498.81 606.345C497.043 591.651 496.476 576.837 497.115 562.05C496.875 560.655 493.53 541.68 487.035 517.98C472.395 464.535 475.17 454.32 475.68 453.09L477.765 444.315C477.805 444.139 477.907 443.984 478.054 443.879C478.201 443.773 478.381 443.726 478.56 443.745L584.7 452.16C584.872 452.172 585.034 452.243 585.159 452.36C585.285 452.478 585.366 452.635 585.39 452.805C585.39 452.925 585.81 456.03 584.97 473.58C584.43 485.01 577.035 521.085 571.635 547.44C568.845 561.045 566.445 572.805 566.445 574.23C566.445 575.31 566.79 578.04 567.225 581.505C568.5 591.63 570.63 608.505 569.385 621.9C567.72 639.9 556.425 683.505 556.305 683.94C556.261 684.104 556.163 684.248 556.027 684.348C555.891 684.449 555.724 684.501 555.555 684.495L543.765 684.075C543.58 684.072 543.404 683.999 543.27 683.871C543.137 683.743 543.056 683.569 543.045 683.385L538.41 616.83C538.41 616.275 536.295 563.7 535.875 559.56C535.605 556.77 531.93 526.095 529.53 506.055C530.145 525.24 531.03 554.46 531.03 562.44C531.03 569.025 530.535 577.545 530.025 586.575C529.575 594.39 529.11 602.46 528.915 610.05C528.54 626.31 523.5 687.825 523.5 688.5C523.487 688.674 523.414 688.838 523.294 688.964C523.174 689.089 523.013 689.17 522.84 689.19L508.95 690.87L508.83 690.825ZM477 453.675C476.82 454.05 473.37 462.675 488.43 517.59C495.165 542.175 498.51 561.69 498.555 561.885C498.563 561.94 498.563 561.995 498.555 562.05C497.918 576.771 498.48 591.52 500.235 606.15C503.235 628.23 508.2 676.875 508.245 677.355L509.43 689.235L521.97 687.735C522.495 681.24 526.995 625.38 527.385 610.035C527.58 602.415 528.045 594.33 528.495 586.5C529.005 577.5 529.5 568.995 529.5 562.5C529.5 550.5 527.415 489.42 527.385 488.805C527.381 488.61 527.451 488.42 527.582 488.275C527.713 488.13 527.895 488.04 528.09 488.025C528.282 488.012 528.471 488.073 528.619 488.196C528.767 488.319 528.862 488.494 528.885 488.685C528.96 489.36 536.895 555.3 537.315 559.47C537.735 563.64 539.76 614.64 539.85 616.8L544.5 682.605L555 682.98C556.35 677.73 566.34 638.475 567.9 621.765C569.115 608.58 567 591.765 565.74 581.7C565.275 578.04 564.945 575.4 564.945 574.2C564.945 572.7 566.835 563.4 570.165 547.11C575.565 520.815 582.945 484.785 583.485 473.49C584.13 459.915 584.025 455.085 583.95 453.585L479.07 445.26L477.12 453.48C477.12 453.48 477.075 453.63 477 453.675Z" fill="#263238"/>
<path d="M528.39 494.22C528.27 490.785 528.195 488.715 528.195 488.715C528.166 490.552 528.231 492.39 528.39 494.22V494.22Z" fill="white"/>
<path d="M528.39 495C528.201 495.001 528.019 494.93 527.88 494.802C527.741 494.674 527.655 494.498 527.64 494.31C527.48 492.45 527.415 490.582 527.445 488.715C527.453 488.521 527.535 488.338 527.675 488.204C527.815 488.07 528.001 487.995 528.195 487.995C528.389 487.995 528.575 488.07 528.715 488.204C528.855 488.338 528.937 488.521 528.945 488.715L529.14 494.22C529.144 494.416 529.074 494.605 528.943 494.75C528.812 494.895 528.63 494.985 528.435 495H528.39Z" fill="#263238"/>
<path d="M478.5 444.48L476.385 453.33C476.385 453.33 475.815 454.38 475.875 458.55L480.735 456.825C480.735 456.825 480.735 460.47 494.235 470.325C507.735 480.18 525.945 483.825 525.945 483.825C525.945 483.825 501 481.23 503.595 484.35C506.19 487.47 528.18 488.685 528.18 488.685C528.18 488.685 529.275 497.775 530.685 509.445C534.292 525.344 540.414 540.566 548.82 554.535C553.76 562.922 559.523 570.796 566.025 578.04C565.815 576.24 565.68 574.92 565.68 574.2C565.68 569.985 583.365 491.22 584.205 473.52C585.045 455.82 584.625 452.88 584.625 452.88L478.5 444.48Z" fill="#263238"/>
<path d="M566.04 578.82C565.935 578.819 565.831 578.796 565.735 578.752C565.64 578.708 565.554 578.644 565.485 578.565C558.949 571.306 553.155 563.412 548.19 555C539.748 540.964 533.596 525.672 529.965 509.7L527.535 489.495C523.425 489.24 505.59 487.995 503.04 484.92C502.838 484.733 502.706 484.482 502.665 484.209C502.624 483.937 502.677 483.659 502.815 483.42C503.64 481.92 510.66 481.92 517.59 482.37C509.118 479.849 501.095 476.012 493.815 471C483.675 463.605 480.96 459.57 480.315 457.86L476.205 459.36C476.093 459.398 475.974 459.41 475.857 459.394C475.74 459.379 475.628 459.336 475.53 459.27C475.429 459.206 475.345 459.118 475.287 459.013C475.23 458.908 475.2 458.79 475.2 458.67C475.031 456.826 475.22 454.967 475.755 453.195L477.84 444.42C477.88 444.244 477.982 444.089 478.129 443.984C478.276 443.878 478.456 443.831 478.635 443.85L584.775 452.265C584.947 452.277 585.109 452.348 585.234 452.465C585.36 452.583 585.441 452.74 585.465 452.91C585.465 453.03 585.885 456.135 585.045 473.685C584.505 485.115 577.11 521.19 571.71 547.545C568.92 561.15 566.52 572.91 566.52 574.335C566.52 575.115 566.7 576.75 566.865 578.085C566.882 578.242 566.85 578.401 566.772 578.538C566.693 578.675 566.574 578.785 566.43 578.85C566.3 578.872 566.166 578.862 566.04 578.82ZM504.33 484.035C506.73 486.075 520.11 487.515 528.24 487.965C528.416 487.977 528.581 488.05 528.71 488.17C528.838 488.29 528.921 488.451 528.945 488.625L531.435 509.385C535.019 525.176 541.095 540.296 549.435 554.175C553.956 561.84 559.162 569.08 564.99 575.805C564.99 575.1 564.9 574.59 564.9 574.23C564.9 572.73 566.79 563.43 570.12 547.14C575.52 520.845 582.9 484.815 583.44 473.52C584.085 459.945 583.98 455.115 583.905 453.615L479.025 445.29L477.075 453.51C477.057 453.573 477.031 453.633 477 453.69C476.648 454.923 476.506 456.205 476.58 457.485L480.435 456.12C480.549 456.082 480.671 456.07 480.79 456.086C480.91 456.101 481.024 456.144 481.125 456.21C481.221 456.281 481.3 456.374 481.354 456.481C481.409 456.587 481.438 456.705 481.44 456.825V456.825C481.44 456.825 481.98 460.47 494.655 469.74C507.885 479.4 525.885 483.09 526.065 483.12C526.164 483.135 526.258 483.169 526.343 483.22C526.429 483.272 526.503 483.339 526.562 483.419C526.622 483.499 526.664 483.59 526.689 483.687C526.713 483.784 526.717 483.884 526.703 483.983C526.688 484.081 526.654 484.176 526.602 484.261C526.551 484.346 526.483 484.421 526.403 484.48C526.323 484.539 526.232 484.582 526.136 484.606C526.039 484.63 525.939 484.635 525.84 484.62C516.75 483.66 506.31 483.195 504.33 484.035Z" fill="#263238"/>
<path d="M508.83 690.075L522.72 688.38C522.72 688.38 524.22 669.96 525.72 650.55H504.72C506.325 665.4 507.57 677.43 507.57 677.43L508.83 690.075Z" fill="white"/>
<path d="M508.83 690.825C508.643 690.829 508.46 690.762 508.321 690.637C508.181 690.511 508.095 690.337 508.08 690.15L506.82 677.505C506.82 677.505 505.575 665.505 503.955 650.64C503.944 650.534 503.956 650.427 503.99 650.327C504.023 650.226 504.078 650.133 504.15 650.055C504.218 649.974 504.303 649.91 504.399 649.866C504.495 649.822 504.6 649.799 504.705 649.8H525.705C525.809 649.8 525.911 649.821 526.007 649.862C526.102 649.904 526.187 649.964 526.258 650.04C526.328 650.117 526.382 650.207 526.416 650.305C526.45 650.403 526.463 650.507 526.455 650.61C525.045 669.795 523.53 688.26 523.455 688.44C523.442 688.614 523.37 688.778 523.249 688.904C523.129 689.03 522.968 689.11 522.795 689.13L508.905 690.81L508.83 690.825ZM505.5 651.3C507 665.775 508.26 677.355 508.26 677.355L509.445 689.235L521.985 687.735C522.255 684.435 523.56 668.235 524.805 651.315L505.5 651.3Z" fill="#263238"/>
<path d="M555.585 683.745C555.585 683.745 560.28 665.64 564.09 647.895C556.595 646.236 548.852 646.017 541.275 647.25L543.78 683.325L555.585 683.745Z" fill="white"/>
<path d="M555.585 684.495L543.795 684.075C543.61 684.072 543.433 683.999 543.3 683.871C543.167 683.743 543.086 683.569 543.075 683.385L540.555 647.295C540.545 647.112 540.602 646.932 540.715 646.789C540.828 646.645 540.99 646.548 541.17 646.515C548.837 645.274 556.669 645.493 564.255 647.16C564.355 647.176 564.45 647.212 564.535 647.266C564.62 647.32 564.693 647.391 564.75 647.475C564.858 647.644 564.896 647.849 564.855 648.045C561.09 665.61 556.38 683.76 556.335 683.94C556.293 684.105 556.196 684.251 556.059 684.352C555.922 684.453 555.755 684.504 555.585 684.495V684.495ZM544.485 682.605L554.985 682.98C555.81 679.785 559.83 664.005 563.175 648.48C556.224 647.047 549.077 646.839 542.055 647.865L544.485 682.605Z" fill="#263238"/>
<path d="M526.62 672.51C526.62 672.51 525.12 665.355 519.72 664.365C514.32 663.375 508.11 673.005 506.625 679.365C505.607 684.259 504.866 689.207 504.405 694.185C504.405 694.185 499.47 694.185 499.47 696.9C499.47 699.615 505.635 702.33 509.595 702.825C513.555 703.32 526.38 702.075 526.38 700.35C526.38 698.625 526.62 672.51 526.62 672.51Z" fill="black"/>
<path d="M511.89 703.74C511.093 703.748 510.297 703.707 509.505 703.62C505.74 703.155 498.72 700.455 498.72 696.96C498.72 694.5 501.6 693.66 503.73 693.51C504.182 688.722 504.908 683.965 505.905 679.26C507.495 672.315 513.855 662.55 519.84 663.63C525.825 664.71 527.34 672.06 527.34 672.36C527.347 672.415 527.347 672.47 527.34 672.525C527.34 672.78 527.1 698.7 527.1 700.41C527.094 700.595 527.047 700.777 526.965 700.942C526.882 701.108 526.764 701.254 526.62 701.37C525 702.825 516.69 703.74 511.89 703.74ZM518.94 665.055C514.35 665.055 508.755 673.545 507.36 679.59C506.348 684.449 505.612 689.362 505.155 694.305C505.14 694.493 505.054 694.669 504.915 694.797C504.776 694.925 504.594 694.996 504.405 694.995C504.405 694.995 500.22 695.085 500.22 696.96C500.22 698.835 505.635 701.625 509.685 702.135C513.735 702.645 524.4 701.385 525.63 700.275C525.63 697.725 525.855 674.235 525.87 672.6C525.705 671.865 524.16 665.94 519.57 665.1C519.382 665.066 519.191 665.051 519 665.055H518.94Z" fill="#263238"/>
<path d="M524.4 674.25L516.51 677.7L512.685 702.975C517.995 702.885 526.38 701.805 526.38 700.41C526.38 699.015 526.5 685.635 526.575 677.91L524.4 674.25Z" fill="#263238"/>
<path d="M512.685 703.725C512.579 703.726 512.475 703.703 512.379 703.659C512.283 703.615 512.198 703.551 512.13 703.47C512.058 703.389 512.004 703.294 511.973 703.19C511.942 703.086 511.934 702.977 511.95 702.87L515.76 677.595C515.781 677.468 515.833 677.348 515.911 677.246C515.99 677.144 516.093 677.063 516.21 677.01L524.1 673.56C524.267 673.486 524.455 673.476 524.629 673.531C524.803 673.587 524.951 673.703 525.045 673.86L527.22 677.505C527.292 677.622 527.328 677.758 527.325 677.895C527.25 685.14 527.13 699.15 527.13 700.395C527.13 703.395 512.85 703.71 512.7 703.71L512.685 703.725ZM517.185 678.225L513.57 702.225C519.105 702.03 524.79 701.025 525.57 700.29C525.57 698.4 525.69 685.2 525.765 678.105L524.04 675.21L517.185 678.225Z" fill="#263238"/>
<path d="M526.62 672.51C526.62 672.51 519.225 672.03 517.485 675.975C516.09 679.17 517.755 695.895 518.445 702.195C518.524 702.875 518.833 703.508 519.322 703.989C519.81 704.469 520.448 704.768 521.13 704.835C521.882 704.902 522.632 704.683 523.23 704.221C523.828 703.76 524.23 703.09 524.355 702.345L528.105 679.185C528.105 679.185 528.345 674.745 526.62 672.51Z" fill="black"/>
<path d="M521.415 705.6H521.055C520.205 705.513 519.41 705.139 518.802 704.539C518.193 703.939 517.808 703.149 517.71 702.3C516.765 693.735 515.4 678.885 516.81 675.69C518.715 671.31 526.35 671.76 526.68 671.79C526.785 671.795 526.888 671.823 526.982 671.872C527.075 671.922 527.156 671.991 527.22 672.075C529.095 674.49 528.87 679.05 528.855 679.245L525.09 702.48C524.945 703.35 524.496 704.141 523.823 704.712C523.151 705.283 522.297 705.598 521.415 705.6V705.6ZM525.915 673.245C524.1 673.245 519.435 673.53 518.235 676.245C517.35 678.285 517.74 688.245 519.255 702.09C519.318 702.625 519.571 703.12 519.969 703.482C520.368 703.845 520.883 704.052 521.422 704.065C521.961 704.078 522.486 703.896 522.9 703.552C523.315 703.208 523.592 702.727 523.68 702.195L527.43 679.035C527.52 677.032 527.129 675.036 526.29 673.215L525.915 673.245Z" fill="#263238"/>
<path d="M541.995 672.51C541.995 672.51 543.495 665.355 548.895 664.365C554.295 663.375 560.505 673.005 561.99 679.365C563.008 684.259 563.749 689.207 564.21 694.185C564.21 694.185 569.145 694.185 569.145 696.9C569.145 699.615 562.965 702.33 559.02 702.825C555.075 703.32 542.235 702.075 542.235 700.35C542.235 698.625 541.995 672.51 541.995 672.51Z" fill="black"/>
<path d="M556.725 703.74C551.925 703.74 543.615 702.825 541.965 701.37C541.821 701.254 541.703 701.108 541.621 700.942C541.538 700.777 541.491 700.595 541.485 700.41C541.485 698.7 541.245 672.78 541.245 672.525C541.238 672.47 541.238 672.415 541.245 672.36C541.245 672.06 542.895 664.695 548.745 663.63C554.595 662.565 561.105 672.315 562.695 679.26C563.692 683.965 564.418 688.722 564.87 693.51C567 693.66 569.88 694.5 569.88 696.96C569.88 700.455 562.86 703.155 559.095 703.62C558.308 703.706 557.517 703.746 556.725 703.74V703.74ZM543 700.275C544.23 701.385 554.865 702.645 558.945 702.135C563.025 701.625 568.41 698.97 568.41 696.96C568.41 694.95 564.255 694.995 564.225 694.995C564.036 694.996 563.854 694.925 563.715 694.797C563.576 694.669 563.49 694.493 563.475 694.305C563.018 689.362 562.282 684.449 561.27 679.59C559.77 673.26 553.77 664.245 549.045 665.115C544.32 665.985 542.925 671.865 542.76 672.615C542.76 674.235 543 697.725 543 700.275Z" fill="#263238"/>
<path d="M544.215 674.25L552.105 677.7L555.93 702.975C550.62 702.885 542.235 701.805 542.235 700.41C542.235 699.015 542.115 685.635 542.04 677.91L544.215 674.25Z" fill="#263238"/>
<path d="M555.93 703.725C555.78 703.725 541.5 703.38 541.5 700.41C541.5 699.09 541.35 683.13 541.305 677.91C541.302 677.773 541.339 677.637 541.41 677.52L543.585 673.875C543.679 673.719 543.827 673.602 544.001 673.547C544.175 673.491 544.363 673.502 544.53 673.575L552.42 677.025C552.538 677.078 552.64 677.159 552.719 677.261C552.797 677.363 552.849 677.483 552.87 677.61L556.68 702.885C556.696 702.992 556.688 703.102 556.657 703.205C556.626 703.309 556.572 703.404 556.5 703.485C556.429 703.565 556.341 703.628 556.242 703.669C556.144 703.711 556.037 703.73 555.93 703.725V703.725ZM542.985 700.275C543.825 701.01 549.51 702.015 554.985 702.21L551.37 678.21L544.455 675.21L542.73 678.105C542.835 683.385 543 698.265 543 700.275H542.985Z" fill="#263238"/>
<path d="M541.995 672.51C541.995 672.51 549.39 672.03 551.115 675.975C552.525 679.17 550.845 695.895 550.155 702.195C550.077 702.873 549.769 703.504 549.284 703.984C548.799 704.464 548.164 704.764 547.485 704.835V704.835C546.733 704.902 545.983 704.683 545.385 704.221C544.787 703.76 544.385 703.09 544.26 702.345L540.51 679.185C540.51 679.185 540.255 674.745 541.995 672.51Z" fill="black"/>
<path d="M547.2 705.6C546.315 705.6 545.458 705.285 544.785 704.71C544.111 704.136 543.664 703.339 543.525 702.465L539.775 679.305C539.775 679.035 539.52 674.475 541.395 672.06C541.459 671.976 541.54 671.907 541.633 671.857C541.727 671.808 541.83 671.78 541.935 671.775C542.265 671.775 549.885 671.295 551.805 675.675C553.215 678.87 551.805 693.675 550.905 702.285C550.807 703.134 550.422 703.924 549.814 704.524C549.205 705.124 548.41 705.498 547.56 705.585L547.2 705.6ZM542.385 673.245C541.512 675.081 541.124 677.111 541.26 679.14L544.995 702.225C545.083 702.757 545.36 703.238 545.775 703.582C546.19 703.926 546.715 704.108 547.253 704.095C547.792 704.082 548.308 703.875 548.706 703.512C549.104 703.15 549.358 702.655 549.42 702.12C550.92 688.215 551.325 678.315 550.44 676.275C549.135 673.305 543.81 673.215 542.385 673.245V673.245Z" fill="#263238"/>
<path d="M514.065 294.105C514.065 294.105 473.745 312.51 472.065 314.595C470.385 316.68 462.675 356.595 463.365 360.48C464.055 364.365 464.07 364.98 464.76 368.115C465.45 371.25 464.07 382.02 463.365 387.225C462.66 392.43 464.76 396.225 468.585 397.725C472.41 399.225 489.435 402.225 489.435 402.225L471.705 452.61C471.705 452.61 495.705 472.11 539.475 468.945C583.245 465.78 591.255 455.73 591.255 455.73L572.835 396.315C578.447 395.58 584.012 394.518 589.5 393.135C597.495 391.05 598.5 384.135 596.805 372.99C595.764 365.623 595.527 358.164 596.1 350.745C596.1 350.745 596.805 338.58 595.755 333.015C594.705 327.45 588.105 312.87 586.38 310.425C584.655 307.98 544.68 294.105 543.63 293.4C542.58 292.695 514.065 294.105 514.065 294.105Z" fill="#8CC0D5"/>
<path d="M530.1 469.98C492.405 469.98 471.42 453.33 471.195 453.15C471.072 453.053 470.983 452.919 470.94 452.769C470.897 452.618 470.902 452.458 470.955 452.31L488.385 402.81C484.845 402.15 471.66 399.645 468.285 398.415C463.98 396.915 461.85 392.655 462.585 387.195C463.095 383.31 464.685 371.46 463.98 368.34C463.545 366.39 463.38 365.34 463.155 363.96C463.02 363.12 462.855 362.115 462.585 360.66C461.88 356.82 469.575 316.41 471.435 314.16C473.295 311.91 507 296.55 513.75 293.46C513.839 293.439 513.931 293.439 514.02 293.46C527.13 292.815 542.985 292.2 544.02 292.89C544.41 293.1 548.37 294.555 552.945 296.22C574.125 303.99 585.81 308.505 586.95 310.095C588.855 312.75 595.41 327.36 596.46 332.985C597.51 338.61 596.85 350.385 596.82 350.895C596.257 358.258 596.488 365.661 597.51 372.975C599.01 382.425 599.01 391.515 589.665 393.975C584.424 395.266 579.116 396.267 573.765 396.975L591.93 455.475C591.964 455.59 591.97 455.712 591.946 455.829C591.923 455.947 591.871 456.057 591.795 456.15C591.465 456.585 583.095 466.53 539.49 469.65C536.25 469.875 533.13 469.98 530.1 469.98ZM472.5 452.295C475.86 454.785 499.425 471 539.325 468.15C578.025 465.39 588.6 457.095 590.325 455.49L572.04 396.495C572.009 396.39 572.001 396.279 572.016 396.17C572.032 396.062 572.071 395.957 572.13 395.865C572.188 395.77 572.267 395.69 572.36 395.631C572.454 395.571 572.56 395.533 572.67 395.52C578.25 394.802 583.784 393.766 589.245 392.415C596.01 390.66 597.9 385.245 595.995 373.095C594.963 365.666 594.727 358.149 595.29 350.67C595.29 350.58 595.98 338.565 594.96 333.165C593.91 327.525 587.295 313.095 585.705 310.875C584.355 309.24 562.77 301.335 552.39 297.525C545.7 295.08 543.51 294.255 543.15 294.03C541.875 293.67 524.775 294.33 514.215 294.84C498.765 301.905 473.925 313.59 472.56 315.09C470.805 317.445 463.38 356.775 464.04 360.345C464.295 361.845 464.46 362.805 464.61 363.66C464.835 365.04 464.985 366.045 465.42 367.95C466.095 370.95 464.955 380.46 464.04 387.33C463.41 392.055 465.18 395.64 468.765 396.945C472.35 398.25 489.33 401.445 489.495 401.445C489.602 401.468 489.703 401.513 489.791 401.577C489.879 401.642 489.952 401.725 490.005 401.82C490.049 401.916 490.072 402.021 490.072 402.128C490.072 402.234 490.049 402.339 490.005 402.435L472.5 452.295Z" fill="#263238"/>
<path d="M554.655 384.465C554.655 384.465 493.155 399.465 499.665 400.23C506.175 400.995 546.96 397.155 552.735 396C558.51 394.845 554.235 388.695 554.235 388.695C554.235 388.695 564.24 386.775 561.165 383.7C558.09 380.625 554.655 384.465 554.655 384.465Z" fill="#263238"/>
<path d="M572.79 397.02C572.626 397.019 572.466 396.964 572.336 396.864C572.206 396.764 572.113 396.624 572.07 396.465L569.64 387.78C569.625 387.681 569.625 387.579 569.64 387.48L574.995 344.43C575.021 344.231 575.125 344.051 575.284 343.928C575.443 343.806 575.644 343.752 575.842 343.777C576.041 343.803 576.222 343.907 576.344 344.066C576.467 344.225 576.521 344.426 576.495 344.625L571.17 387.525L573.555 396.06C573.611 396.251 573.588 396.456 573.493 396.631C573.397 396.805 573.236 396.934 573.045 396.99L572.79 397.02Z" fill="#263238"/>
<path d="M576.555 338.445H576.465C576.267 338.419 576.088 338.316 575.964 338.159C575.841 338.002 575.784 337.803 575.805 337.605L576.57 331.605C576.581 331.508 576.612 331.415 576.659 331.33C576.707 331.245 576.771 331.17 576.848 331.11C576.924 331.05 577.012 331.006 577.106 330.98C577.2 330.954 577.299 330.947 577.395 330.96C577.494 330.971 577.59 331.002 577.676 331.05C577.763 331.099 577.839 331.164 577.901 331.242C577.962 331.32 578.008 331.41 578.034 331.505C578.061 331.601 578.068 331.701 578.055 331.8L577.305 337.8C577.277 337.979 577.186 338.142 577.048 338.26C576.911 338.378 576.736 338.444 576.555 338.445V338.445Z" fill="#263238"/>
<path d="M489.39 402.93H489.18C488.989 402.874 488.828 402.745 488.733 402.571C488.637 402.396 488.614 402.191 488.67 402L492.795 387.915L489.225 369.39C489.19 369.195 489.233 368.994 489.346 368.831C489.458 368.668 489.631 368.556 489.825 368.52C490.02 368.484 490.221 368.525 490.386 368.634C490.551 368.743 490.667 368.912 490.71 369.105L494.295 387.81C494.325 387.928 494.325 388.052 494.295 388.17L490.125 402.42C490.072 402.571 489.972 402.702 489.84 402.794C489.708 402.885 489.551 402.933 489.39 402.93Z" fill="#263238"/>
<path d="M488.76 363.705C488.587 363.705 488.42 363.645 488.286 363.536C488.152 363.427 488.06 363.274 488.025 363.105L482.745 335.595C482.71 335.398 482.753 335.196 482.865 335.03C482.977 334.865 483.149 334.75 483.345 334.71C483.54 334.675 483.741 334.718 483.904 334.831C484.067 334.943 484.179 335.115 484.215 335.31L489.495 362.82C489.515 362.916 489.515 363.014 489.496 363.11C489.477 363.206 489.439 363.297 489.385 363.378C489.33 363.459 489.26 363.528 489.179 363.582C489.097 363.635 489.006 363.672 488.91 363.69L488.76 363.705Z" fill="#263238"/>
<path d="M491.865 380.82C491.865 380.82 485.355 382.86 485.73 384.54C486.105 386.22 492.06 389.04 492.795 389.19C493.53 389.34 493.56 387.93 493.56 387.93L491.865 380.82Z" fill="white"/>
<path d="M492.93 390H492.615C492 389.835 485.49 387 484.995 384.78C484.5 382.56 488.97 381.015 491.64 380.175C491.735 380.134 491.837 380.112 491.94 380.112C492.043 380.112 492.145 380.134 492.24 380.175C492.329 380.227 492.407 380.296 492.469 380.378C492.531 380.461 492.575 380.555 492.6 380.655L494.295 387.765C494.302 387.825 494.302 387.885 494.295 387.945C494.31 388.273 494.259 388.6 494.143 388.907C494.026 389.215 493.849 389.494 493.62 389.73C493.428 389.896 493.184 389.992 492.93 390V390ZM491.265 381.81C488.73 382.695 486.51 383.88 486.405 384.435C486.63 385.425 491.28 387.9 492.69 388.425C492.697 388.295 492.697 388.165 492.69 388.035L491.265 381.81Z" fill="#263238"/>
<path d="M487.215 386.025C487.215 386.025 484.425 390.315 485.535 391.05C487.596 392.088 489.709 393.019 491.865 393.84L493.56 387.93L487.215 386.025Z" fill="white"/>
<path d="M491.865 394.59C491.776 394.604 491.685 394.604 491.595 394.59C489.388 393.757 487.229 392.801 485.13 391.725C483.63 390.765 485.13 387.9 486.63 385.725C486.717 385.589 486.846 385.485 486.998 385.428C487.149 385.371 487.315 385.365 487.47 385.41L493.815 387.315C494.003 387.371 494.161 387.498 494.256 387.669C494.352 387.84 494.376 388.041 494.325 388.23L492.63 394.155C492.606 394.256 492.56 394.35 492.496 394.43C492.431 394.511 492.348 394.576 492.255 394.62C492.125 394.648 491.989 394.637 491.865 394.59ZM487.5 386.91C486.729 387.984 486.216 389.221 486 390.525C486.675 390.93 489.615 392.145 491.355 392.85L492.6 388.44L487.5 386.91Z" fill="#263238"/>
<path d="M487.215 391.8C487.215 391.8 484.98 392.91 487.035 394.965C488.153 396.126 489.475 397.072 490.935 397.755L491.865 393.84L487.215 391.8Z" fill="white"/>
<path d="M490.935 398.505C490.846 398.526 490.754 398.526 490.665 398.505C489.099 397.776 487.684 396.758 486.495 395.505C486.133 395.198 485.849 394.809 485.667 394.371C485.484 393.933 485.408 393.458 485.445 392.985C485.54 392.584 485.724 392.21 485.984 391.891C486.243 391.571 486.572 391.315 486.945 391.14C487.044 391.095 487.151 391.072 487.26 391.072C487.369 391.072 487.476 391.095 487.575 391.14L492.24 393.195C492.4 393.264 492.53 393.389 492.607 393.545C492.684 393.702 492.703 393.881 492.66 394.05L491.73 397.965C491.704 398.07 491.656 398.169 491.588 398.255C491.521 398.34 491.436 398.41 491.34 398.46C491.21 398.506 491.072 398.522 490.935 398.505V398.505ZM487.29 392.655C487.107 392.797 486.98 392.999 486.93 393.225C486.855 393.63 487.23 394.11 487.56 394.44C488.42 395.295 489.382 396.041 490.425 396.66L490.995 394.275L487.29 392.655Z" fill="#263238"/>
<path d="M487.035 394.965C487.092 396.221 487.474 397.441 488.145 398.505C488.754 399.102 489.446 399.607 490.2 400.005L490.935 397.77L487.035 394.965Z" fill="white"/>
<path d="M490.2 400.74C490.081 400.738 489.964 400.713 489.855 400.665C489.038 400.225 488.286 399.675 487.62 399.03C486.802 397.844 486.339 396.45 486.285 395.01C486.273 394.869 486.302 394.727 486.368 394.602C486.435 394.477 486.536 394.374 486.66 394.305C486.782 394.231 486.922 394.192 487.065 394.192C487.208 394.192 487.348 394.231 487.47 394.305L491.37 397.095C491.502 397.189 491.6 397.322 491.652 397.476C491.703 397.63 491.704 397.796 491.655 397.95L490.905 400.185C490.873 400.287 490.819 400.38 490.747 400.458C490.674 400.536 490.584 400.597 490.485 400.635C490.4 400.692 490.302 400.728 490.2 400.74V400.74ZM488.07 396.63C488.164 397.118 488.375 397.576 488.685 397.965C489.018 398.302 489.385 398.603 489.78 398.865L490.05 398.04L488.07 396.63Z" fill="#263238"/>
<path d="M571.71 380.85C571.71 380.85 579.06 382.86 578.7 384.54C578.34 386.22 572.37 389.04 571.62 389.19C570.87 389.34 570.12 386.865 570.12 386.865L571.71 380.85Z" fill="white"/>
<path d="M571.5 390C570.465 390 569.76 388.5 569.34 387.135C569.302 386.998 569.302 386.852 569.34 386.715L570.975 380.715C570.998 380.62 571.041 380.531 571.1 380.454C571.16 380.376 571.234 380.312 571.32 380.265C571.493 380.167 571.697 380.14 571.89 380.19C575.565 381.195 579.84 382.8 579.39 384.765C578.91 386.97 572.4 389.82 571.77 389.985L571.5 390ZM570.84 386.895C571.019 387.428 571.271 387.933 571.59 388.395C572.925 387.915 577.695 385.395 577.935 384.36C577.74 383.835 575.16 382.65 572.205 381.765L570.84 386.895Z" fill="#263238"/>
<path d="M577.2 386.025C577.2 386.025 579.99 390.315 578.88 391.05C576.819 392.088 574.706 393.019 572.55 393.84L570.855 387.93L577.2 386.025Z" fill="white"/>
<path d="M572.55 394.59C572.435 394.596 572.321 394.57 572.22 394.515C572.125 394.471 572.041 394.406 571.974 394.326C571.906 394.245 571.857 394.151 571.83 394.05L570.135 388.125C570.084 387.936 570.109 387.735 570.204 387.564C570.299 387.393 570.457 387.266 570.645 387.21L576.99 385.305C577.145 385.26 577.311 385.266 577.462 385.323C577.614 385.38 577.743 385.484 577.83 385.62C579.33 387.855 580.725 390.72 579.33 391.62C577.224 392.693 575.061 393.65 572.85 394.485C572.757 394.538 572.656 394.574 572.55 394.59V394.59ZM571.785 388.44L573.045 392.85C574.891 392.14 576.698 391.334 578.46 390.435C578.139 389.176 577.601 387.984 576.87 386.91L571.785 388.44Z" fill="#263238"/>
<path d="M577.2 391.8C577.2 391.8 579.435 392.91 577.395 394.965C576.27 396.125 574.944 397.07 573.48 397.755L572.55 393.84L577.2 391.8Z" fill="white"/>
<path d="M573.48 398.505C573.361 398.503 573.244 398.478 573.135 398.43C573.04 398.378 572.957 398.307 572.89 398.222C572.823 398.137 572.774 398.039 572.745 397.935L571.815 394.02C571.779 393.849 571.803 393.671 571.882 393.516C571.961 393.36 572.091 393.237 572.25 393.165L576.9 391.11C577.002 391.066 577.111 391.043 577.222 391.043C577.333 391.043 577.443 391.066 577.545 391.11C577.917 391.286 578.244 391.543 578.504 391.863C578.763 392.182 578.948 392.555 579.045 392.955C579.091 393.429 579.019 393.907 578.836 394.347C578.652 394.786 578.364 395.174 577.995 395.475C576.81 396.726 575.4 397.744 573.84 398.475C573.725 398.519 573.6 398.53 573.48 398.505V398.505ZM573.48 394.275L574.05 396.66C575.095 396.045 576.058 395.299 576.915 394.44C577.245 394.11 577.62 393.63 577.56 393.225C577.505 392.997 577.373 392.795 577.185 392.655L573.48 394.275Z" fill="#263238"/>
<path d="M577.395 394.965C577.331 396.222 576.944 397.442 576.27 398.505C575.665 399.1 574.978 399.605 574.23 400.005L573.48 397.77L577.395 394.965Z" fill="white"/>
<path d="M574.23 400.74C574.136 400.762 574.039 400.762 573.945 400.74C573.843 400.703 573.751 400.643 573.676 400.565C573.601 400.487 573.544 400.393 573.51 400.29L572.775 398.055C572.722 397.902 572.72 397.737 572.768 397.583C572.817 397.429 572.914 397.294 573.045 397.2L576.945 394.41C577.067 394.336 577.207 394.297 577.35 394.297C577.493 394.297 577.633 394.336 577.755 394.41C577.879 394.479 577.98 394.582 578.047 394.707C578.113 394.832 578.142 394.974 578.13 395.115C578.085 396.554 577.627 397.949 576.81 399.135C576.14 399.782 575.382 400.332 574.56 400.77C574.449 400.781 574.337 400.771 574.23 400.74V400.74ZM574.365 398.04L574.635 398.865C575.038 398.608 575.41 398.306 575.745 397.965C576.043 397.571 576.248 397.115 576.345 396.63L574.365 398.04Z" fill="#263238"/>
<path d="M585.54 383.685C585.451 383.699 585.36 383.699 585.27 383.685C580.405 381.76 575.758 379.321 571.41 376.41C571.247 376.295 571.136 376.119 571.103 375.922C571.069 375.725 571.115 375.523 571.23 375.36C571.345 375.197 571.521 375.086 571.718 375.053C571.915 375.019 572.117 375.065 572.28 375.18C576.512 378.028 581.038 380.412 585.78 382.29C585.979 382.328 586.155 382.443 586.269 382.61C586.383 382.778 586.425 382.984 586.388 383.182C586.35 383.381 586.235 383.557 586.067 383.671C585.9 383.785 585.694 383.828 585.495 383.79L585.54 383.685Z" fill="#263238"/>
<path d="M590.565 379.98C586.931 379.845 583.36 378.983 580.065 377.445C579.89 377.362 579.753 377.215 579.684 377.034C579.614 376.853 579.618 376.652 579.694 376.474C579.769 376.295 579.911 376.153 580.09 376.077C580.268 376 580.469 375.996 580.65 376.065C587.52 379.065 591.51 378.42 591.54 378.42C591.737 378.389 591.937 378.436 592.1 378.551C592.262 378.666 592.373 378.84 592.41 379.035C592.441 379.232 592.394 379.432 592.279 379.595C592.164 379.757 591.991 379.868 591.795 379.905C591.387 379.954 590.976 379.979 590.565 379.98V379.98Z" fill="#263238"/>
<path d="M473.175 387.105C472.976 387.117 472.781 387.049 472.631 386.917C472.482 386.785 472.392 386.599 472.38 386.4C472.368 386.201 472.436 386.006 472.568 385.857C472.7 385.707 472.886 385.617 473.085 385.605C480.93 384.63 488.31 376.68 488.385 376.605C488.525 376.468 488.714 376.391 488.91 376.391C489.106 376.391 489.295 376.468 489.435 376.605C489.505 376.675 489.561 376.758 489.599 376.849C489.637 376.94 489.657 377.039 489.657 377.138C489.657 377.237 489.637 377.335 489.599 377.426C489.561 377.517 489.505 377.6 489.435 377.67C489.12 378.015 481.62 386.115 473.22 387.165L473.175 387.105Z" fill="#263238"/>
<path d="M474.195 381.285C474.009 381.282 473.83 381.209 473.694 381.082C473.558 380.954 473.475 380.781 473.46 380.595C473.45 380.497 473.459 380.398 473.488 380.304C473.516 380.21 473.563 380.123 473.626 380.047C473.689 379.972 473.767 379.91 473.854 379.865C473.942 379.82 474.037 379.792 474.135 379.785C477.825 379.44 484.635 378.09 484.635 378.075C484.832 378.04 485.034 378.083 485.2 378.195C485.365 378.307 485.48 378.479 485.52 378.675C485.555 378.87 485.512 379.071 485.399 379.234C485.287 379.397 485.115 379.509 484.92 379.545C484.65 379.545 477.99 380.94 474.225 381.27L474.195 381.285Z" fill="#263238"/>
<path d="M504.705 260.28C504.705 260.28 498.51 258 500.46 268.11C502.41 278.22 510.255 278.22 510.255 278.22L504.705 260.28Z" fill="white"/>
<path d="M510.255 279C510.165 279 501.78 278.88 499.755 268.29C498.975 264.225 499.365 261.51 500.925 260.175C501.505 259.756 502.178 259.486 502.887 259.386C503.595 259.287 504.317 259.362 504.99 259.605C505.1 259.643 505.199 259.706 505.28 259.789C505.361 259.873 505.421 259.974 505.455 260.085L511.005 278.085C511.038 278.197 511.044 278.315 511.023 278.429C511.002 278.544 510.955 278.652 510.885 278.745C510.809 278.836 510.712 278.907 510.602 278.952C510.492 278.996 510.373 279.013 510.255 279V279ZM503.34 260.835C502.796 260.811 502.262 260.987 501.84 261.33C501.075 261.975 500.34 263.67 501.18 268.005C502.59 275.265 507.105 277.005 509.175 277.38L504.09 260.88C503.843 260.828 503.592 260.803 503.34 260.805V260.835Z" fill="#263238"/>
<path d="M555 258.315C555 258.315 559.89 260.28 558 266.16C556.11 272.04 547.875 278.16 547.875 278.16L555 258.315Z" fill="white"/>
<path d="M547.77 279C547.65 279 547.531 278.971 547.424 278.915C547.317 278.86 547.225 278.779 547.156 278.681C547.087 278.582 547.043 278.468 547.027 278.349C547.011 278.23 547.024 278.108 547.065 277.995L554.25 258C554.285 257.905 554.338 257.818 554.407 257.745C554.477 257.671 554.56 257.612 554.652 257.572C554.745 257.531 554.844 257.51 554.945 257.508C555.046 257.507 555.147 257.527 555.24 257.565C555.24 257.565 560.76 259.86 558.6 266.325C556.59 272.325 548.565 278.505 548.235 278.76C548.114 278.893 547.949 278.978 547.77 279ZM555.36 259.5L549.36 276C551.865 273.78 555.87 269.79 557.115 266.04C558.36 262.29 556.5 260.145 555.36 259.395V259.5Z" fill="#263238"/>
<path d="M526.5 224.055C526.5 224.055 515.085 224.055 511.17 227.97C507.255 231.885 502.365 243.645 502.68 252.45C502.995 261.255 507.18 274.635 513.18 281.82C519.18 289.005 531.465 291 538.965 288C546.465 285 554.31 265.155 554.955 258.3C555.6 251.445 554.625 239.7 548.1 230.25C541.575 220.8 535.05 216.225 526.5 224.055Z" fill="#263238"/>
<path d="M531.285 290.07C524.505 290.07 516.915 287.565 512.61 282.285C506.46 274.785 502.305 260.955 502.005 252.48C501.675 243.75 506.505 231.645 510.705 227.445C514.47 223.665 524.4 223.335 526.275 223.32C529.59 220.32 532.755 219.015 535.92 219.375C540.105 219.84 544.05 223.065 548.715 229.875C555 238.995 556.44 250.605 555.705 258.375C555.03 265.365 547.095 285.63 539.205 288.705C536.669 289.634 533.986 290.097 531.285 290.07V290.07ZM534.915 220.815C532.41 220.815 529.83 222.06 527.07 224.61C527.005 224.674 526.927 224.724 526.842 224.757C526.757 224.791 526.666 224.807 526.575 224.805C526.455 224.805 515.415 224.805 511.755 228.51C507.765 232.5 503.19 244.065 503.505 252.42C503.82 260.775 507.81 274.065 513.765 281.34C519.51 288.36 531.51 290.13 538.695 287.34C545.88 284.55 553.59 264.84 554.205 258.285C554.925 250.785 553.545 239.505 547.485 230.715C543.15 224.43 539.415 221.31 535.755 220.905C535.478 220.853 535.197 220.823 534.915 220.815V220.815Z" fill="#263238"/>
<path d="M521.34 267.465C521.34 267.465 502.74 304.965 506.01 324.885C509.28 344.805 520.035 350.385 520.695 355.56C521.355 360.735 512.865 359.145 517.695 372.195C522.525 385.245 533.685 389.175 532.38 392.76C531.075 396.345 524.88 394.395 524.88 394.395C525.743 396.595 527.378 398.404 529.48 399.484C531.581 400.563 534.004 400.839 536.295 400.26C545.1 398.625 548.7 390.15 548.37 381.015C548.04 371.88 543.48 363.015 545.1 359.475C546.72 355.935 555.225 345.765 555.225 332.385C555.225 319.005 547.395 286.05 541.185 268.11C534.975 250.17 526.89 235.8 521.34 267.465Z" fill="#263238"/>
<path d="M534 401.25C531.905 401.243 529.859 400.609 528.127 399.431C526.395 398.252 525.055 396.582 524.28 394.635C524.236 394.503 524.23 394.362 524.262 394.227C524.294 394.092 524.362 393.968 524.46 393.87C524.556 393.768 524.679 393.696 524.814 393.661C524.95 393.627 525.092 393.631 525.225 393.675C525.225 393.675 530.745 395.37 531.795 392.505C532.185 391.425 530.46 389.835 528.285 387.81C523.369 383.678 519.534 378.412 517.11 372.465C513.825 363.705 516.36 361.125 518.385 359.04C519.435 357.975 520.2 357.195 520.005 355.65C519.81 354.105 518.505 352.32 516.585 349.905C510.608 342.803 506.714 334.185 505.335 325.005C502.125 305.4 519.42 269.805 520.68 267.225C522.945 254.43 525.69 248.325 529.35 248.04C533.01 247.755 537.24 254.04 542.025 267.87C548.4 286.32 556.095 319.215 556.095 332.37C556.095 343.14 550.815 351.66 547.665 356.745C547.03 357.715 546.444 358.716 545.91 359.745C545.16 361.395 546.015 364.725 547.02 368.58C548.201 372.609 548.945 376.752 549.24 380.94C549.54 389.43 546.375 399.135 536.55 400.95C535.712 401.134 534.858 401.234 534 401.25V401.25ZM526.365 395.475C527.353 397.135 528.856 398.429 530.645 399.16C532.434 399.89 534.412 400.019 536.28 399.525C545.16 397.875 548.025 388.89 547.74 381.03C547.449 376.963 546.72 372.94 545.565 369.03C544.455 364.725 543.57 361.335 544.545 359.19C545.101 358.092 545.717 357.025 546.39 355.995C549.39 351.045 554.595 342.765 554.595 332.415C554.595 319.38 546.945 286.725 540.6 268.38C535.125 252.525 531.6 249.375 529.47 249.555C527.895 249.69 524.85 252.195 522.15 267.555C522.132 267.627 522.107 267.698 522.075 267.765C521.895 268.14 503.625 305.265 506.805 324.765C508.159 333.696 511.953 342.079 517.77 348.99C519.795 351.585 521.25 353.49 521.505 355.47C521.584 356.35 521.438 357.235 521.081 358.043C520.724 358.851 520.168 359.555 519.465 360.09C517.635 361.965 515.565 364.08 518.52 371.94C520.845 377.677 524.55 382.752 529.305 386.715C531.99 389.205 533.94 391.005 533.205 393.015C532.065 396 528.435 395.85 526.305 395.475H526.365Z" fill="#263238"/>
<path d="M207.075 268.17L208.14 289.83L245.145 287.19L243.285 266.055L207.075 268.17Z" fill="white"/>
<path d="M208.14 290.58C207.959 290.582 207.783 290.518 207.645 290.4C207.497 290.264 207.405 290.076 207.39 289.875L206.325 268.2C206.317 268.004 206.386 267.812 206.518 267.666C206.65 267.52 206.834 267.432 207.03 267.42L243.255 265.305C243.351 265.297 243.447 265.308 243.539 265.338C243.63 265.367 243.715 265.415 243.788 265.478C243.86 265.541 243.92 265.618 243.962 265.704C244.005 265.79 244.029 265.884 244.035 265.98L245.895 287.13C245.904 287.23 245.892 287.33 245.861 287.426C245.83 287.521 245.781 287.609 245.715 287.685C245.581 287.836 245.392 287.928 245.19 287.94L208.185 290.58H208.14ZM207.87 268.875L208.845 289.035L244.335 286.5L242.61 266.835L207.87 268.875Z" fill="#263238"/>
<path d="M217.92 218.205C215.268 218.626 212.74 219.619 210.51 221.115C206.295 223.755 200.205 233.535 200.475 236.445C200.745 239.355 206.025 266.31 207.075 268.17C208.125 270.03 213.165 277.41 222.075 277.68C227.512 277.921 232.933 276.926 237.93 274.77C239.25 274.245 244.005 267.105 245.07 263.4C246.135 259.695 245.325 231.165 243.75 227.19C242.175 223.215 234.225 214.77 230.535 213.69C226.845 212.61 219.24 215.565 217.92 218.205Z" fill="#263238"/>
<path d="M223.395 278.445H222.12C212.19 278.145 206.985 269.535 206.43 268.545C205.215 266.415 199.95 239.055 199.725 236.535C199.425 233.16 205.92 223.035 210.12 220.5C212.34 219.021 214.834 218.001 217.455 217.5C219.42 214.5 227.055 211.905 230.805 213C234.78 214.14 242.805 222.735 244.515 226.935C246.225 231.135 246.915 259.935 245.865 263.625C244.815 267.315 240.015 274.8 238.365 275.475L238.02 275.625C233.392 277.564 228.412 278.524 223.395 278.445ZM228.765 214.23C225.06 214.23 219.555 216.6 218.595 218.535C218.535 218.65 218.447 218.748 218.34 218.822C218.233 218.895 218.109 218.941 217.98 218.955C215.453 219.372 213.045 220.323 210.915 221.745C206.655 224.415 201 233.97 201.225 236.37C201.54 239.865 206.835 266.22 207.735 267.795C208.245 268.695 213.06 276.66 222.165 276.93C227.367 277.16 232.556 276.238 237.36 274.23L237.72 274.08C238.77 273.6 243.36 266.895 244.425 263.205C245.37 259.86 244.695 231.39 243.12 227.475C241.545 223.56 233.895 215.475 230.4 214.44C229.869 214.289 229.318 214.218 228.765 214.23V214.23Z" fill="#263238"/>
<path d="M202.59 247.275C201.524 247.43 200.553 247.977 199.868 248.809C199.183 249.641 198.833 250.699 198.885 251.775C198.63 256.005 205.755 263.145 205.755 263.145L202.59 247.275Z" fill="white"/>
<path d="M205.755 263.895C205.657 263.894 205.56 263.874 205.47 263.836C205.38 263.797 205.298 263.741 205.23 263.67C204.93 263.37 197.85 256.245 198.135 251.67C198.098 250.415 198.526 249.19 199.337 248.232C200.149 247.274 201.286 246.65 202.53 246.48C202.714 246.462 202.897 246.514 203.045 246.625C203.192 246.736 203.292 246.898 203.325 247.08L206.49 262.935C206.523 263.092 206.504 263.256 206.436 263.402C206.369 263.548 206.256 263.668 206.115 263.745C206.009 263.824 205.886 263.876 205.755 263.895V263.895ZM202.005 248.175C201.275 248.453 200.652 248.956 200.226 249.611C199.8 250.266 199.593 251.04 199.635 251.82C199.485 254.25 202.305 258.105 204.495 260.67L202.005 248.175Z" fill="#263238"/>
<path d="M245.145 244.11C245.145 244.11 250.17 242.79 250.425 248.07C250.68 253.35 245.925 257.85 245.925 257.85L245.145 244.11Z" fill="white"/>
<path d="M246 258.6C245.905 258.614 245.809 258.614 245.715 258.6C245.581 258.547 245.466 258.457 245.384 258.34C245.301 258.222 245.255 258.083 245.25 257.94L244.455 244.2C244.446 244.028 244.496 243.858 244.597 243.719C244.698 243.58 244.844 243.479 245.01 243.435C245.753 243.246 246.526 243.208 247.284 243.324C248.041 243.44 248.768 243.708 249.42 244.11C250.005 244.591 250.472 245.199 250.787 245.888C251.101 246.577 251.255 247.328 251.235 248.085C251.52 253.65 246.735 258.255 246.51 258.45C246.365 258.563 246.183 258.617 246 258.6V258.6ZM246 244.74L246.66 256.005C248.578 253.815 249.67 251.025 249.75 248.115C249.779 247.582 249.685 247.05 249.477 246.559C249.269 246.068 248.952 245.63 248.55 245.28C247.788 244.811 246.887 244.62 246 244.74V244.74Z" fill="#263238"/>
<path d="M247.5 284.565C247.5 284.565 242.085 280.335 239.37 280.065C236.655 279.795 211.635 280.365 208.62 281.88C205.605 283.395 202.305 290.61 202.305 290.61L249.315 287.91L247.5 284.565Z" fill="white"/>
<path d="M202.335 291.33C202.213 291.329 202.093 291.301 201.983 291.246C201.874 291.191 201.779 291.112 201.705 291.015C201.643 290.902 201.611 290.776 201.611 290.648C201.611 290.519 201.643 290.393 201.705 290.28C201.84 289.965 205.17 282.78 208.38 281.175C211.59 279.57 236.775 278.985 239.535 279.285C242.295 279.585 247.485 283.515 248.055 283.965C248.136 284.031 248.202 284.113 248.25 284.205L250.065 287.52C250.128 287.629 250.162 287.754 250.162 287.88C250.162 288.006 250.128 288.131 250.065 288.24C250.006 288.349 249.919 288.441 249.814 288.506C249.709 288.572 249.589 288.609 249.465 288.615L202.44 291.33H202.335ZM236.265 280.71C228.84 280.71 211.32 281.355 208.995 282.51C207.075 283.47 204.765 287.385 203.565 289.77L248.115 287.19L246.945 285.06C245.445 283.86 241.305 281.01 239.31 280.785C238.83 280.725 237.75 280.71 236.265 280.71Z" fill="#263238"/>
<path d="M225.225 284.565C225.225 284.565 205.95 285.165 204.135 287.88C202.32 290.595 192.135 299.025 192.135 299.025L257.535 295.41C257.535 295.41 249.405 285.165 247.59 284.565C245.775 283.965 225.225 284.565 225.225 284.565Z" fill="url(#paint0_linear_303_403)"/>
<path d="M192.075 299.775C191.92 299.774 191.769 299.725 191.643 299.635C191.517 299.545 191.422 299.418 191.371 299.272C191.32 299.125 191.316 298.967 191.359 298.818C191.401 298.669 191.489 298.537 191.61 298.44C191.7 298.365 201.78 290.04 203.505 287.46C205.44 284.565 221.925 283.905 225.21 283.815C228.66 283.71 245.925 283.23 247.71 283.815C249.495 284.4 256.065 292.47 258 294.915C258.085 295.021 258.14 295.148 258.159 295.283C258.177 295.418 258.159 295.555 258.105 295.68C258.048 295.806 257.958 295.915 257.845 295.994C257.731 296.074 257.598 296.12 257.46 296.13L192.06 299.745L192.075 299.775ZM225.255 285.315C215.97 285.6 205.755 286.815 204.765 288.315C203.355 290.415 197.265 295.62 194.265 298.185L255.945 294.765C252.24 290.175 248.19 285.615 247.26 285.3C246.045 284.895 233.1 285.105 225.225 285.3L225.255 285.315Z" fill="#263238"/>
<path d="M163.755 472.605C163.755 472.605 168.57 497.025 170.385 499.125C173.878 502.615 177.712 505.745 181.83 508.47C183.33 509.07 188.46 508.77 188.46 508.77L183.645 474.42L176.415 470.805L163.755 472.605Z" fill="white"/>
<path d="M185.76 509.595C184.346 509.667 182.929 509.521 181.56 509.16C179.79 508.47 171.54 501.66 169.815 499.62C168.09 497.58 163.815 476.865 163.02 472.755C162.998 472.655 162.997 472.551 163.018 472.45C163.039 472.349 163.08 472.254 163.14 472.17C163.2 472.088 163.277 472.019 163.364 471.968C163.452 471.916 163.549 471.883 163.65 471.87L176.31 470.055C176.459 470.035 176.611 470.061 176.745 470.13L183.975 473.745C184.085 473.799 184.179 473.879 184.25 473.979C184.32 474.078 184.365 474.194 184.38 474.315L189.21 508.665C189.225 508.768 189.218 508.874 189.19 508.974C189.161 509.074 189.113 509.168 189.046 509.248C188.98 509.329 188.897 509.394 188.804 509.441C188.711 509.488 188.609 509.515 188.505 509.52C188.265 509.535 187.095 509.595 185.76 509.595ZM164.64 473.235C166.515 482.655 169.755 497.235 170.955 498.645C174.375 502.039 178.112 505.098 182.115 507.78C183.924 508.117 185.77 508.213 187.605 508.065L182.955 474.915L176.28 471.57L164.64 473.235Z" fill="#263238"/>
<path d="M167.37 319.5C167.37 319.5 153.87 392.73 153.51 404.19C153.15 415.65 162.855 476.19 162.855 476.19C165.22 476.784 167.647 477.091 170.085 477.105C174 477.105 178.815 473.49 178.815 473.49L183 410.835L172.5 321.63L167.37 319.5Z" fill="url(#paint1_linear_303_403)"/>
<path d="M170.085 477.885C167.557 477.873 165.039 477.561 162.585 476.955C162.446 476.914 162.321 476.835 162.226 476.726C162.13 476.617 162.068 476.483 162.045 476.34C161.655 473.865 152.4 415.575 152.7 404.175C153 392.775 166.02 322.365 166.575 319.38C166.596 319.271 166.64 319.167 166.704 319.076C166.769 318.985 166.853 318.91 166.95 318.855C167.051 318.807 167.161 318.782 167.273 318.782C167.384 318.782 167.494 318.807 167.595 318.855L172.725 320.97C172.847 321.02 172.953 321.103 173.032 321.208C173.111 321.314 173.161 321.439 173.175 321.57L183.675 410.775L179.46 473.595C179.452 473.704 179.422 473.809 179.37 473.905C179.318 474.001 179.247 474.084 179.16 474.15C179.07 474.27 174.195 477.885 170.085 477.885ZM163.5 475.62C165.656 476.113 167.859 476.369 170.07 476.385C173.175 476.385 177.03 473.85 178.08 473.115L182.28 410.775L171.78 322.155L168 320.565C166.5 329.025 154.59 393.645 154.32 404.22C154.05 414.795 162.6 469.815 163.5 475.62Z" fill="#263238"/>
<path d="M173.16 405.18C171.855 409.98 159.915 409.965 153.66 409.68C155.16 428.295 162.78 476.28 162.78 476.28C165.144 476.874 167.572 477.181 170.01 477.195C173.925 477.195 178.74 473.58 178.74 473.58L183 410.835L177.915 367.875L176.085 369.045C176.085 369.045 174.945 398.67 173.16 405.18Z" fill="#263238"/>
<path d="M170.085 477.885C167.557 477.873 165.039 477.561 162.585 476.955C162.446 476.914 162.321 476.835 162.226 476.726C162.13 476.617 162.067 476.483 162.045 476.34C162.045 475.86 154.38 428.115 152.94 409.665C152.929 409.56 152.942 409.455 152.979 409.356C153.015 409.257 153.074 409.168 153.15 409.095C153.22 409.014 153.308 408.952 153.407 408.912C153.507 408.873 153.614 408.859 153.72 408.87C164.58 409.47 171.555 408.015 172.38 404.985C174.12 398.625 175.38 369.315 175.38 368.985C175.382 368.864 175.415 368.746 175.476 368.641C175.536 368.536 175.622 368.448 175.725 368.385L177.555 367.215C177.668 367.156 177.794 367.125 177.922 367.125C178.05 367.125 178.176 367.156 178.29 367.215C178.404 367.273 178.501 367.358 178.575 367.463C178.648 367.567 178.694 367.688 178.71 367.815L183.78 410.76L179.565 473.58C179.557 473.689 179.527 473.794 179.475 473.89C179.423 473.986 179.352 474.069 179.265 474.135C179.07 474.27 174.195 477.885 170.085 477.885ZM163.5 475.62C165.656 476.113 167.859 476.369 170.07 476.385C173.175 476.385 177.03 473.85 178.08 473.115L182.28 410.775L177.345 369.15L176.835 369.465C176.685 373.155 175.56 399.195 173.835 405.375C172.53 410.19 162.795 410.79 154.515 410.4C156.075 428.31 162.72 470.565 163.5 475.62Z" fill="#263238"/>
<path d="M300 472.605C300 472.605 295.185 497.025 293.37 499.125C289.874 502.611 286.04 505.742 281.925 508.47C280.425 509.07 275.295 508.77 275.295 508.77L280.11 474.42L287.34 470.805L300 472.605Z" fill="white"/>
<path d="M277.965 509.595C276.63 509.595 275.46 509.595 275.22 509.52C275.116 509.515 275.014 509.488 274.921 509.441C274.828 509.394 274.745 509.329 274.679 509.248C274.613 509.168 274.564 509.074 274.536 508.974C274.507 508.874 274.5 508.768 274.515 508.665L279.33 474.315C279.35 474.194 279.399 474.079 279.472 473.98C279.545 473.881 279.64 473.8 279.75 473.745L286.98 470.13C287.114 470.061 287.266 470.035 287.415 470.055L300.075 471.87C300.176 471.883 300.273 471.916 300.361 471.968C300.449 472.019 300.525 472.088 300.585 472.17C300.645 472.254 300.687 472.349 300.707 472.45C300.728 472.551 300.727 472.655 300.705 472.755C299.895 476.865 295.755 497.46 293.91 499.62C292.065 501.78 283.92 508.47 282.165 509.16C280.796 509.52 279.379 509.666 277.965 509.595V509.595ZM276.12 508.095C277.955 508.236 279.8 508.14 281.61 507.81C285.61 505.124 289.346 502.065 292.77 498.675C293.955 497.28 297.195 482.685 299.085 473.265L287.445 471.6L280.77 474.945L276.12 508.095Z" fill="#263238"/>
<path d="M288.525 316.8C288.525 316.8 298.47 388.23 301.17 399.675C303.87 411.12 300.87 477.135 300.87 477.135C298.087 477.685 295.223 477.685 292.44 477.135C289.179 476.366 286.113 474.925 283.44 472.905C283.44 472.905 271.08 397.575 271.08 393.645C271.08 389.715 288.525 316.8 288.525 316.8Z" fill="url(#paint2_linear_303_403)"/>
<path d="M296.775 478.29C295.265 478.291 293.759 478.15 292.275 477.87C288.883 477.089 285.693 475.602 282.915 473.505C282.766 473.386 282.669 473.214 282.645 473.025C282.135 469.95 270.27 397.59 270.27 393.645C270.27 389.7 287.055 319.605 287.775 316.635C287.814 316.463 287.911 316.311 288.051 316.204C288.191 316.097 288.364 316.042 288.54 316.05C288.714 316.059 288.88 316.128 289.009 316.246C289.137 316.363 289.221 316.522 289.245 316.695C289.35 317.415 299.22 388.215 301.89 399.51C304.56 410.805 301.725 474.51 301.605 477.165C301.599 477.327 301.54 477.482 301.437 477.607C301.334 477.732 301.193 477.819 301.035 477.855C299.637 478.167 298.207 478.313 296.775 478.29ZM284.085 472.5C286.62 474.365 289.509 475.692 292.575 476.4C295.049 476.872 297.587 476.912 300.075 476.52C300.36 469.95 302.895 410.52 300.375 399.87C298.05 390.075 290.37 335.97 288.255 320.85C282.045 346.815 271.755 390.78 271.755 393.66C271.755 396.54 279.81 446.37 284.085 472.5Z" fill="#263238"/>
<path d="M292.5 477.135C295.283 477.685 298.147 477.685 300.93 477.135C300.93 477.135 303.51 420.54 301.74 403.08C297.42 406.08 290.325 410.715 287.535 409.92C283.395 408.735 271.035 393.645 271.035 393.645C271.035 397.575 283.395 472.905 283.395 472.905C286.099 474.938 289.202 476.38 292.5 477.135V477.135Z" fill="#263238"/>
<path d="M296.775 478.29C295.265 478.291 293.759 478.15 292.275 477.87C288.883 477.089 285.693 475.602 282.915 473.505C282.766 473.386 282.669 473.214 282.645 473.025C282.135 469.95 270.27 397.59 270.27 393.645C270.271 393.49 270.32 393.339 270.41 393.213C270.5 393.087 270.627 392.992 270.773 392.941C270.92 392.89 271.078 392.886 271.227 392.929C271.376 392.971 271.508 393.059 271.605 393.18C274.98 397.32 284.46 408.285 287.67 409.2C289.485 409.695 294.555 407.19 301.17 402.465C301.279 402.391 301.405 402.346 301.536 402.333C301.666 402.32 301.799 402.34 301.92 402.39C302.039 402.446 302.142 402.532 302.218 402.64C302.295 402.748 302.342 402.874 302.355 403.005C304.11 420.315 301.575 476.595 301.545 477.165C301.539 477.327 301.48 477.482 301.377 477.607C301.274 477.732 301.133 477.819 300.975 477.855C299.597 478.162 298.187 478.308 296.775 478.29ZM284.085 472.5C286.62 474.365 289.509 475.692 292.575 476.4V476.4C295.049 476.871 297.587 476.912 300.075 476.52C300.33 470.61 302.4 421.95 300.975 404.445C294.105 409.215 289.47 411.315 287.205 410.655C283.71 409.665 275.52 400.275 271.965 396.045C273.42 406.755 280.245 449.085 284.085 472.5Z" fill="#263238"/>
<path d="M183.645 474.42C183.645 474.42 194.145 569.955 194.145 572.055C194.145 574.155 190.23 590.445 191.43 599.79C192.63 609.135 199.575 653.79 199.575 653.79C199.575 653.79 198.075 660.72 198.36 663.135C198.645 665.55 201.675 675.135 201.675 675.135C201.675 675.135 195.345 686.595 194.445 688.395C193.545 690.195 189.33 690.21 191.73 694.125C194.13 698.04 213.135 703.47 216.15 704.07C219.165 704.67 225.495 705.27 226.395 701.07C227.295 696.87 225.795 681.18 225.795 681.18C227.104 678.009 227.913 674.654 228.195 671.235C228.495 666.12 225.495 660.39 225.495 655.875C225.495 651.36 227.895 604.635 227.295 593.19C226.695 581.745 225.18 563.355 225.18 563.355L231.51 480.48L238.755 491.625L248.745 568.5C248.745 568.5 250.545 592.305 253.56 603.165C256.575 614.025 262.005 668.85 262.005 668.85C262.005 668.85 262.905 675.48 263.505 679.35C264.105 683.22 265.32 701.64 265.92 702.855C266.52 704.07 276.165 706.47 280.38 705.855C284.595 705.24 298.155 704.04 300.27 703.44C302.385 702.84 307.2 702.24 309.27 696.81C311.34 691.38 305.655 691.98 302.64 690.48C299.625 688.98 296.31 683.85 295.41 682.65C294.51 681.45 292.695 680.235 292.41 678.42C292.093 675.654 291.484 672.929 290.595 670.29L286.98 663.06C286.98 663.06 287.88 594.945 287.88 592.845C287.88 590.745 285.18 558.78 285.18 558.78L283.365 472.89C283.365 472.89 227.04 448.5 228 447.9C228.96 447.3 183.645 474.42 183.645 474.42Z" fill="#263238"/>
<path d="M279 706.695C274.29 706.695 266.07 704.715 265.305 703.185C264.93 702.45 264.54 698.325 263.805 689.685C263.415 685.185 263.055 681.03 262.815 679.395C262.2 675.48 261.315 668.895 261.315 668.895C261.315 668.325 255.855 613.965 252.9 603.3C249.945 592.635 248.07 568.8 248.055 568.5L238.125 491.865L232.125 482.715L225.96 563.37C225.96 563.445 227.46 581.79 228.075 593.115C228.495 601.23 227.415 627.285 226.755 642.84C226.485 649.365 226.275 654.525 226.275 655.845C226.421 658.098 226.844 660.325 227.535 662.475C228.507 665.299 229.014 668.263 229.035 671.25C228.759 674.693 227.955 678.072 226.65 681.27C226.815 683.16 228.15 697.125 227.22 701.205C226.11 706.38 218.415 705.255 216.09 704.79C214.44 704.46 193.92 698.94 191.19 694.5C189.165 691.215 191.19 690 192.555 689.13C193.072 688.882 193.52 688.512 193.86 688.05C194.7 686.385 199.965 676.845 200.955 675.045C200.43 673.35 197.955 665.4 197.715 663.165C197.475 660.93 198.675 654.735 198.9 653.7C198.465 650.97 191.94 608.865 190.785 599.88C189.885 592.905 191.73 582.45 192.84 576.21C193.185 574.245 193.485 572.55 193.485 572.055C193.485 570.315 186.585 507.48 182.985 474.555C182.97 474.413 182.996 474.27 183.06 474.143C183.124 474.015 183.223 473.908 183.345 473.835L205.41 460.5L220.635 451.365C224.445 449.1 226.32 447.975 227.31 447.495C227.369 447.406 227.446 447.329 227.535 447.27V447.36C228.27 447.045 228.36 447.195 228.54 447.48C231.225 449.265 262.695 463.11 283.62 472.17C283.752 472.227 283.864 472.322 283.944 472.441C284.024 472.561 284.068 472.701 284.07 472.845L285.885 558.735C285.99 559.995 288.585 590.685 288.585 592.815C288.585 594.945 287.745 658.935 287.685 662.85L291.225 669.93C292.092 672.318 292.671 674.8 292.95 677.325L293.1 678.27C293.42 679.336 294.052 680.282 294.915 680.985C295.29 681.361 295.646 681.757 295.98 682.17L296.49 682.89C297.705 684.585 300.51 688.56 302.94 689.775C303.76 690.138 304.615 690.419 305.49 690.615C307.35 691.095 309.285 691.59 310.095 693.165C310.348 693.786 310.465 694.455 310.436 695.126C310.408 695.796 310.235 696.452 309.93 697.05C307.92 702.24 303.525 703.335 301.17 703.935L300.405 704.13C299.055 704.52 293.61 705.09 288.405 705.63C285.165 705.975 282.105 706.305 280.47 706.53C279.984 706.615 279.493 706.67 279 706.695V706.695ZM262.8 668.73C262.8 668.73 263.7 675.33 264.3 679.23C264.57 680.91 264.93 685.14 265.305 689.61C265.74 694.74 266.34 701.745 266.655 702.54C267.465 703.425 276.375 705.69 280.335 705.12C281.985 704.88 285.06 704.565 288.315 704.205C293.28 703.68 298.905 703.08 300.12 702.705L300.93 702.495C303.18 701.925 306.93 700.995 308.67 696.495C308.884 696.087 309.014 695.641 309.052 695.183C309.091 694.724 309.037 694.263 308.895 693.825C308.385 692.865 306.795 692.445 305.25 692.055C304.272 691.833 303.317 691.516 302.4 691.11C299.64 689.73 296.775 685.68 295.41 683.745L294.915 683.055C294.621 682.691 294.305 682.346 293.97 682.02C292.889 681.104 292.115 679.879 291.75 678.51L291.6 677.55C291.325 675.174 290.792 672.835 290.01 670.575L286.395 663.345C286.372 663.231 286.372 663.114 286.395 663C286.395 662.325 287.295 594.87 287.295 592.8C287.295 590.73 284.625 559.125 284.595 558.795L282.795 473.295C240.57 455.01 230.52 450.165 228.105 448.65C224.79 450.585 198.885 466.125 184.605 474.705C185.505 482.835 195.105 569.88 195.105 571.95C194.969 573.432 194.744 574.905 194.43 576.36C193.41 582.12 191.52 592.86 192.39 599.58C193.575 608.805 200.445 653.07 200.52 653.505C200.535 653.599 200.535 653.696 200.52 653.79C199.799 656.764 199.396 659.806 199.32 662.865C199.605 665.19 202.575 674.7 202.605 674.79C202.645 674.885 202.666 674.987 202.666 675.09C202.666 675.193 202.645 675.295 202.605 675.39C202.605 675.495 196.275 686.835 195.39 688.62C194.937 689.347 194.287 689.93 193.515 690.3C192.165 691.14 191.415 691.605 192.645 693.615C194.715 696.975 212.46 702.39 216.57 703.215C218.55 703.62 225.105 704.61 225.93 700.785C226.8 696.72 225.33 681.285 225.315 681.12C225.278 680.998 225.278 680.867 225.315 680.745C226.583 677.653 227.372 674.385 227.655 671.055C227.631 668.235 227.165 665.436 226.275 662.76C225.532 660.487 225.088 658.127 224.955 655.74C224.955 654.39 225.15 649.47 225.435 642.675C226.095 627.135 227.175 601.125 226.755 593.085C226.155 581.775 224.67 563.46 224.655 563.28L230.97 480.285C230.981 480.127 231.043 479.976 231.145 479.855C231.247 479.733 231.386 479.648 231.54 479.61C231.691 479.57 231.851 479.578 231.996 479.635C232.142 479.692 232.266 479.793 232.35 479.925L239.58 491.085C239.644 491.179 239.685 491.287 239.7 491.4L249.645 568.245C249.645 568.515 251.49 592.14 254.445 602.745C257.4 613.35 262.68 666.33 262.905 668.58L262.8 668.73Z" fill="#263238"/>
<path d="M192.075 299.025C192.075 299.025 167.37 316.8 167.37 319.5C167.37 322.2 180.33 405.99 180.33 405.99L176.115 475.305C176.115 475.305 189.615 482.805 202.935 485.25C211.098 486.72 219.353 487.627 227.64 487.965L231.855 468.975L235.17 488.565C235.17 488.565 261.69 485.25 270.735 482.235C277.051 479.958 283.113 477.033 288.825 473.505L273.75 397.875L288.525 316.8L257.475 295.41L192.075 299.025Z" fill="url(#paint3_linear_303_403)"/>
<path d="M235.17 489.33C234.992 489.332 234.819 489.269 234.684 489.153C234.549 489.037 234.46 488.876 234.435 488.7L231.765 472.905L228.375 488.145C228.337 488.314 228.241 488.465 228.105 488.572C227.968 488.678 227.798 488.734 227.625 488.73C219.297 488.388 211.003 487.476 202.8 486C189.57 483.6 175.875 476.055 175.8 475.98C175.681 475.906 175.583 475.802 175.517 475.678C175.452 475.554 175.42 475.415 175.425 475.275L179.64 406.05C178.95 401.625 166.68 322.23 166.68 319.515C166.68 316.8 184.185 303.825 191.7 298.41C191.819 298.328 191.96 298.281 192.105 298.275L257.49 294.66C257.661 294.644 257.832 294.692 257.97 294.795L289.005 316.185C289.123 316.268 289.215 316.382 289.27 316.515C289.326 316.647 289.343 316.793 289.32 316.935L274.575 397.935L289.575 473.445C289.603 473.595 289.586 473.75 289.524 473.889C289.462 474.028 289.36 474.145 289.23 474.225C283.464 477.772 277.346 480.713 270.975 483C261.975 486 236.355 489.225 235.275 489.36L235.17 489.33ZM231.855 468.24C232.03 468.245 232.197 468.31 232.328 468.425C232.46 468.54 232.547 468.698 232.575 468.87L235.77 487.74C240.045 487.185 262.425 484.215 270.465 481.545C276.566 479.349 282.427 476.534 287.955 473.145L272.955 398.01C272.94 397.921 272.94 397.829 272.955 397.74L287.64 317.145L257.205 296.145L192.285 299.73C180.63 308.115 168.435 317.73 168.06 319.53C168.06 321.585 176.535 376.905 181.005 405.87C181.012 405.92 181.012 405.97 181.005 406.02L176.805 474.855C179.175 476.115 191.28 482.355 202.995 484.5C210.927 485.92 218.945 486.812 226.995 487.17L231.09 468.795C231.132 468.627 231.231 468.48 231.371 468.378C231.511 468.277 231.683 468.228 231.855 468.24V468.24Z" fill="#263238"/>
<path d="M234.87 412.185C234.671 412.213 234.469 412.161 234.309 412.04C234.148 411.919 234.043 411.739 234.015 411.54C233.987 411.341 234.039 411.139 234.16 410.979C234.281 410.819 234.461 410.713 234.66 410.685L258.465 403.5C258.646 403.467 258.832 403.502 258.99 403.597C259.147 403.693 259.263 403.843 259.317 404.019C259.37 404.195 259.358 404.384 259.281 404.551C259.204 404.718 259.068 404.851 258.9 404.925L235.095 412.17L234.87 412.185Z" fill="#263238"/>
<path d="M253.86 400.89L210.165 410.835L254.31 394.5C254.31 394.5 202.185 410.49 189.81 408.12C177.435 405.75 253.77 361.935 253.77 361.935C253.77 361.935 278.655 358.935 268.59 374.955C258.525 390.975 266.805 392.73 266.805 392.73C262.155 397.92 253.86 400.89 253.86 400.89Z" fill="#263238"/>
<defs>
<linearGradient id="paint0_linear_303_403" x1="224.835" y1="284.298" x2="231.75" y2="489.75" gradientUnits="userSpaceOnUse">
<stop stop-color="#0048FF"/>
<stop offset="1" stop-color="#1100FF"/>
</linearGradient>
<linearGradient id="paint1_linear_303_403" x1="168.25" y1="319.5" x2="174.75" y2="501.75" gradientUnits="userSpaceOnUse">
<stop stop-color="#0048FF"/>
<stop offset="1" stop-color="#1100FF"/>
</linearGradient>
<linearGradient id="paint2_linear_303_403" x1="286.689" y1="316.8" x2="286.5" y2="506.25" gradientUnits="userSpaceOnUse">
<stop stop-color="#0048FF"/>
<stop offset="1" stop-color="#1100FF"/>
</linearGradient>
<linearGradient id="paint3_linear_303_403" x1="228" y1="366" x2="228" y2="489" gradientUnits="userSpaceOnUse">
<stop stop-color="#0048FF"/>
<stop offset="0.364583" stop-color="#1100FF"/>
</linearGradient>
</defs>
</svg>
