<svg width="750" height="750" viewBox="0 0 750 750" fill="none" xmlns="http://www.w3.org/2000/svg">
<path d="M620.355 597.032V684.208H707.531V597.032H620.355ZM626.988 677.619V603.62H700.965V677.619H626.988Z" fill="#EBEBEB"/>
<path d="M660.35 444.678H405.3V699.728H660.35V444.678Z" fill="#455A64"/>
<path d="M454.449 699.728H596.344C596.941 694.311 575.208 579.013 549.694 541.936C546.798 537.735 521.969 534.662 512.861 545.12C464.619 600.547 453.299 698.401 454.449 699.728Z" fill="#263238"/>
<path d="M553.055 551.509C557.079 561.945 572.267 598.513 580.536 624.779C586.063 642.466 588.186 657.168 589.38 661.059C589.38 661.059 547.373 647.617 538.043 647.595C523.517 647.595 500.214 677.884 505.918 681.687C514.917 687.679 557.742 707.997 591.967 714.386C610.56 717.857 645.581 694.223 642.817 675.43C638.948 649.054 591.281 579.543 573.152 559.822C563.756 549.586 548.124 538.797 553.055 551.509Z" fill="#EB9481"/>
<path d="M645.404 681.002C644.52 699.993 620.753 716 606.979 716.84C583.212 718.277 511.91 697.517 511.91 697.517L539.613 644.102C539.613 644.102 588.253 660.573 589.38 661.037C588.96 659.622 576.999 614.608 571.693 599.817C571.405 598.999 571.074 598.159 570.764 597.275C569.217 593.14 567.116 587.702 564.773 581.799C563.491 578.526 562.12 575.166 560.771 571.761C554.912 557.213 549.208 543.351 549.208 543.351C557.366 544.7 565.436 548.989 578.679 562.895C591.923 576.802 646.841 649.673 645.404 681.002Z" fill="#263238"/>
<path d="M530.437 685.954C532.427 682.173 534.439 678.415 536.406 674.634C538.374 670.854 540.342 667.25 542.332 663.58C544.477 659.819 546.433 655.952 548.191 651.995C548.191 651.995 548.191 651.84 548.191 651.995C545.759 655.351 543.543 658.858 541.558 662.496C539.435 666.181 537.357 669.91 535.323 673.684C533.289 677.457 531.336 681.142 529.464 684.738C527.408 688.559 525.62 692.519 524.114 696.589C524.114 696.765 524.269 696.92 524.379 696.765C526.595 693.275 528.617 689.666 530.437 685.954V685.954Z" fill="#37474F"/>
<path d="M604.215 668.93L589.402 661.059C588.982 659.644 577.021 614.63 571.715 599.839C571.427 599.021 571.096 598.181 570.786 597.297C569.238 593.163 567.138 587.724 564.794 581.821L604.215 668.93Z" fill="#37474F"/>
<path d="M616.464 675.452C612.312 672.393 607.97 669.602 603.464 667.095C601.253 665.835 599.042 664.663 596.61 663.624C594.178 662.585 591.48 661.7 589.004 660.573C588.805 660.573 588.673 660.794 588.872 660.86C591.083 661.922 593.293 663.381 595.615 664.597C597.936 665.813 600.258 667.095 602.601 668.311C607.222 670.677 611.754 673.197 616.353 675.629C616.464 675.695 616.663 675.519 616.464 675.452Z" fill="#37474F"/>
<path d="M605.608 663.934C601.872 663.934 579.431 657.986 576.159 661.082C556.261 679.852 549.938 676.071 545.693 678.526C512.861 697.407 468.997 719.604 453.343 719.737C429.62 719.936 420.18 700.015 424.115 681.201C431.92 643.991 482.085 571.452 504.791 552.173C516.841 541.958 515.846 557.368 510.893 574.083C507.975 583.899 502.868 598.402 497.628 612.795C493.007 625.552 480.781 658.141 480.56 658.915C480.56 658.915 480.56 658.915 480.803 658.915C481.864 658.716 509.942 645.495 538.176 638.221C548.125 635.656 568.841 632.008 576.269 635.325C580.691 637.292 580.691 639.945 580.691 639.945C583.378 639.927 585.977 640.903 587.987 642.687C589.512 643.989 590.632 645.699 591.215 647.617C593.418 647.93 595.476 648.901 597.118 650.403C598.534 651.926 599.445 653.848 599.727 655.908C605.144 657.478 605.608 663.934 605.608 663.934Z" fill="#EB9481"/>
<path d="M572.444 639.415C569.474 639.503 566.516 639.836 563.601 640.41C563.402 640.41 563.402 640.741 563.601 640.719C566.475 640.41 569.415 640.343 572.312 640.255C575.208 640.166 578.126 640.1 581.023 640.144C578.192 639.637 575.32 639.393 572.444 639.415V639.415Z" fill="#263238"/>
<path d="M591.303 647.595C586.245 645.978 580.892 645.502 575.628 646.202C575.594 646.215 575.565 646.237 575.544 646.267C575.524 646.297 575.512 646.332 575.512 646.368C575.512 646.404 575.524 646.439 575.544 646.469C575.565 646.499 575.594 646.521 575.628 646.534C580.882 646.251 586.15 646.644 591.303 647.706C591.303 647.706 591.37 647.617 591.303 647.595Z" fill="#263238"/>
<path d="M599.86 655.908C595.168 653.915 590.098 652.965 585.003 653.122C584.804 653.122 584.737 653.41 585.003 653.432C590.009 653.898 594.966 654.801 599.816 656.129C599.904 656.151 599.97 655.952 599.86 655.908Z" fill="#263238"/>
<path d="M536.915 638.707C534.439 639.108 531.988 639.654 529.575 640.343C526.989 640.984 524.424 641.67 521.926 642.554C516.897 644.229 511.966 646.185 507.157 648.413C507.133 648.404 507.108 648.4 507.083 648.403C507.058 648.406 507.034 648.414 507.013 648.429C506.992 648.443 506.975 648.462 506.963 648.484C506.951 648.507 506.945 648.531 506.945 648.557C506.945 648.582 506.951 648.607 506.963 648.629C506.975 648.652 506.992 648.671 507.013 648.685C507.034 648.699 507.058 648.708 507.083 648.711C507.108 648.713 507.133 648.71 507.157 648.7C512.065 646.976 517.04 645.362 522.014 643.814L529.31 641.427C531.808 640.609 534.417 639.99 536.871 639.061C537.07 638.95 537.07 638.685 536.915 638.707Z" fill="#263238"/>
<path d="M517.172 644.035C519.594 643.086 522.141 642.49 524.733 642.267L554.271 692.145C554.271 692.145 472.887 721.439 456.195 723.097C451.67 723.469 447.117 722.912 442.815 721.461C438.512 720.009 434.552 717.693 431.178 714.656C427.803 711.619 425.085 707.924 423.189 703.798C421.294 699.672 420.262 695.202 420.157 690.663C419.693 661.192 467.78 590.399 491.967 563.006C503.022 550.47 515.956 541.361 519.25 543.417C523.141 545.849 516.088 561.613 512.352 573.375C505.476 595.108 480.824 659.003 480.824 659.003C480.824 659.003 511.069 646.047 517.172 644.035Z" fill="#263238"/>
<path d="M524.556 642.222C519.958 642.488 500.236 649.386 490.42 653.564C480.722 657.68 471.432 662.699 462.673 668.554C457.743 671.893 453.034 675.519 448.413 679.277C448.395 679.289 448.38 679.304 448.369 679.321C448.357 679.338 448.349 679.358 448.345 679.379C448.341 679.399 448.341 679.42 448.345 679.441C448.349 679.461 448.357 679.481 448.369 679.498C448.38 679.516 448.395 679.531 448.413 679.542C448.43 679.554 448.449 679.562 448.47 679.566C448.491 679.57 448.512 679.57 448.532 679.566C448.553 679.562 448.572 679.554 448.59 679.542C465.887 667.581 484.417 657.508 503.862 649.496C509.412 647.285 518.963 644.102 524.379 642.687C525.839 642.289 524.689 642.2 524.556 642.222Z" fill="#37474F"/>
<path d="M505.034 598.601C503.796 600.591 502.536 602.581 501.474 604.681L501.342 604.991C502.911 600.193 504.415 595.396 505.763 590.554C505.763 590.266 505.365 590.112 505.255 590.399C498.268 608.086 491.768 626.017 485.467 643.991C483.721 649.032 482.173 654.095 480.581 659.18C480.581 659.357 480.802 659.445 480.869 659.18C482.792 654.758 484.738 650.513 486.484 646.07C488.231 641.626 489.889 637.226 491.525 632.804C494.473 625.007 497.244 617.158 499.838 609.258C500.656 607.887 501.496 606.494 502.292 605.102C503.42 603.045 504.371 600.901 505.321 598.756C505.498 598.535 505.167 598.38 505.034 598.601Z" fill="#37474F"/>
<path d="M534.55 681.267C532.339 677.597 530.261 673.905 528.094 670.213C525.927 666.52 523.916 662.983 521.837 659.357C519.78 655.559 517.53 651.869 515.094 648.302C515.094 648.302 514.939 648.302 514.961 648.302C516.532 652.102 518.348 655.795 520.4 659.357C522.412 663.116 524.49 666.852 526.591 670.566C528.691 674.281 530.769 677.818 532.914 681.4C535.084 685.17 537.507 688.79 540.166 692.233C540.276 692.366 540.519 692.233 540.453 692.078C538.688 688.368 536.717 684.759 534.55 681.267V681.267Z" fill="#37474F"/>
<path d="M555.531 692.255C553.077 687.413 549.274 682.682 546.444 678.083C546.444 677.906 546.091 678.083 546.179 678.26C548.744 682.571 551.087 687.214 553.541 691.526C542.376 696.146 530.504 700.259 519.096 704.305C507.687 708.351 495.638 712.374 483.721 715.823C477.088 717.747 470.456 719.825 463.668 721.594C463.248 721.594 463.359 722.036 463.779 721.948C475.862 719.55 487.787 716.412 499.485 712.551C511.402 708.771 523.186 704.548 534.859 700.17C541.359 697.694 555.73 692.631 555.531 692.255Z" fill="#37474F"/>
<path d="M536.164 638.729C522.274 642.488 508.597 646.997 495.196 652.238L494.599 652.459C487.612 655.2 483.301 657.234 482.262 657.411L482.041 657.279C481.364 656.777 480.62 656.376 479.83 656.085C477.862 655.377 458.959 653.012 459.446 647.241C459.932 641.471 467.604 641.824 468.731 641.891C467.515 641.625 457.257 639.216 460.595 634.108C462.961 630.46 473.109 630.991 474.148 631.035C473.109 630.704 463.668 627.63 466.918 622.391C469.24 618.654 480.582 619.141 481.886 619.362C480.825 618.964 472.423 617.549 476.359 613.039C479.078 609.899 500.436 613.039 509.942 617.836C524.092 624.778 536.164 638.729 536.164 638.729Z" fill="#EB9481"/>
<path d="M495.195 652.238L494.598 652.459C486.909 647.323 478.26 643.796 469.173 642.09C468.554 642.09 468.509 641.67 469.173 641.692C478.717 642.482 487.794 646.161 495.195 652.238V652.238Z" fill="#263238"/>
<path d="M474.656 631.323C488.099 633.976 494.179 636.961 505.764 644.301C505.919 644.411 506.095 644.168 505.941 644.058C495.151 635.988 488.452 631.986 474.767 630.969C474.148 630.925 474.037 631.19 474.656 631.323Z" fill="#263238"/>
<path d="M482.35 619.517C495.262 622.966 502.071 625.928 512.462 634.352C512.706 634.551 513.015 634.352 512.772 634.02C504.785 625.593 494.035 620.32 482.482 619.163C481.642 619.074 481.532 619.318 482.35 619.517Z" fill="#263238"/>
<path d="M546.997 567.759C539.347 570.501 524.49 560.043 518.056 550.912C517.636 550.271 517.857 543.13 517.725 534.441C517.725 529.157 517.371 523.387 516.752 517.948L551.198 522.37C550.051 529.271 549.746 536.287 550.291 543.263C550.388 544.012 550.551 544.752 550.778 545.473C550.778 545.473 550.778 545.695 550.778 545.827C552.016 549.785 554.381 565.106 546.997 567.759Z" fill="#EB9481"/>
<path d="M550.866 545.695C550.943 545.941 551.002 546.192 551.043 546.446C530.437 545.562 522.589 536.497 517.504 527.808C517.349 524.492 517.128 521.176 516.752 517.948L551.198 522.37C550.039 529.27 549.734 536.287 550.291 543.263C550.377 544.014 550.54 544.755 550.778 545.473C550.778 545.473 550.822 545.562 550.866 545.695Z" fill="#263238"/>
<path d="M502.647 481.822C500.767 494.181 512.065 527.432 521.594 533.822C535.434 543.086 555.554 541.184 562.783 525.133C569.792 509.657 554.316 466.5 543.902 461.017C528.559 452.792 505.41 463.537 502.647 481.822Z" fill="#EB9481"/>
<path d="M534.483 496.767C534.483 496.767 534.35 496.944 534.483 497.033C535.301 499.244 535.854 501.941 534.085 503.356C534.085 503.356 534.085 503.511 534.085 503.466C536.407 502.339 535.633 498.757 534.483 496.767Z" fill="#263238"/>
<path d="M531.698 495.109C528.005 496.038 530.128 503.356 533.577 502.494C537.026 501.631 534.859 494.313 531.698 495.109Z" fill="#263238"/>
<path d="M548.301 492.611C548.301 492.611 548.522 492.611 548.544 492.766C549.141 494.976 550.202 497.585 552.458 497.74C552.458 497.74 552.458 497.851 552.458 497.873C549.871 498.249 548.5 494.888 548.301 492.611Z" fill="#263238"/>
<path d="M549.65 489.648C553.231 488.322 555.641 495.551 552.325 496.789C549.008 498.027 546.665 490.776 549.65 489.648Z" fill="#263238"/>
<path d="M527.828 492.589C528.72 492.03 529.576 491.417 530.393 490.754C531.344 490.046 532.206 489.582 532.604 488.41C532.688 488.062 532.655 487.697 532.511 487.37C532.368 487.042 532.121 486.771 531.808 486.597C531.139 486.359 530.419 486.301 529.72 486.429C529.022 486.557 528.369 486.867 527.828 487.327C526.586 488.105 525.679 489.319 525.286 490.732C525.205 491.059 525.224 491.403 525.34 491.72C525.455 492.037 525.663 492.313 525.935 492.512C526.208 492.711 526.533 492.824 526.87 492.838C527.207 492.852 527.541 492.765 527.828 492.589Z" fill="#263238"/>
<path d="M551.419 485.138C550.373 485.193 549.325 485.193 548.28 485.138C547.177 485.318 546.045 485.14 545.052 484.629C544.779 484.401 544.588 484.089 544.508 483.742C544.428 483.395 544.464 483.031 544.61 482.706C544.99 482.104 545.525 481.616 546.159 481.293C546.794 480.97 547.503 480.824 548.213 480.871C549.672 480.731 551.131 481.141 552.304 482.021C552.59 482.228 552.806 482.518 552.922 482.852C553.038 483.187 553.049 483.548 552.952 483.889C552.856 484.229 552.657 484.531 552.382 484.755C552.108 484.978 551.772 485.112 551.419 485.138Z" fill="#263238"/>
<path d="M540.165 510.342C541.003 511.068 541.981 511.615 543.038 511.95C544.094 512.284 545.209 512.399 546.312 512.288C547.282 512.193 548.235 511.963 549.142 511.602L549.65 511.381L550.136 511.16C550.248 511.098 550.337 511.003 550.393 510.889C550.448 510.774 550.467 510.645 550.446 510.519V510.519C550.455 510.446 550.455 510.371 550.446 510.298V510.099C549.982 508.352 549.053 505.677 549.053 505.677C549.783 505.832 553.475 506.34 553.143 505.434C550.649 497.609 547.359 490.06 543.327 482.905C543.327 482.662 542.841 482.905 542.929 483.082C545.14 490.334 548.722 497.121 551.131 504.373C549.811 504.186 548.472 504.186 547.152 504.373C546.931 504.505 549.053 509.369 549.208 510.187C547.821 510.753 546.334 511.031 544.837 511.004C543.339 510.978 541.863 510.647 540.497 510.033C540.099 509.988 539.966 510.21 540.165 510.342Z" fill="#263238"/>
<path opacity="0.2" d="M506.272 505.257C508.218 503.643 510.694 495.463 511.844 491.992C512.993 488.521 509.5 474.305 508.35 470.015C505.36 473.331 503.388 477.437 502.668 481.844C501.828 487.084 503.442 496.215 506.272 505.257Z" fill="#263238"/>
<path d="M538.839 474.194C538.051 475.961 536.826 477.497 535.278 478.658C533.73 479.819 531.912 480.565 529.995 480.827C528.031 481.082 526.033 480.833 524.192 480.102C522.35 479.371 520.726 478.182 519.471 476.648C519.471 476.538 519.272 476.648 519.339 476.759C520.507 478.489 522.125 479.868 524.018 480.748C525.911 481.628 528.008 481.976 530.084 481.755C532.116 481.431 534.027 480.578 535.626 479.282C537.225 477.986 538.455 476.292 539.193 474.371C539.149 474.15 538.905 474.039 538.839 474.194Z" fill="#263238"/>
<path d="M519.737 450.449C516.851 451.282 514.223 452.828 512.093 454.946C509.964 457.064 508.403 459.684 507.555 462.565C506.958 465.395 507.348 468.344 508.66 470.922C508.66 470.922 508.925 470.922 508.881 470.922C508.059 468.544 507.89 465.989 508.392 463.524C508.893 461.058 510.047 458.772 511.733 456.905C513.554 454.786 515.841 453.118 518.415 452.032C520.989 450.946 523.78 450.473 526.568 450.648C529.273 450.773 531.848 451.845 533.842 453.677C534.041 453.876 534.461 453.677 534.284 453.389C531.432 449.83 525.441 448.658 519.737 450.449Z" fill="#263238"/>
<path d="M560.528 453.699C558.597 450.862 555.722 448.801 552.414 447.884C547.837 446.602 543.57 448.216 539.281 449.918C539.281 449.918 539.281 450.139 539.281 450.095C542.775 448.378 546.691 447.71 550.557 448.172C553.792 448.805 556.716 450.52 558.848 453.036C560.517 455.088 561.559 457.579 561.849 460.209C562.138 462.839 561.663 465.497 560.479 467.863C559.296 470.23 557.455 472.204 555.178 473.551C552.9 474.897 550.282 475.558 547.639 475.454C547.506 475.454 547.462 475.697 547.639 475.697C550.293 475.881 552.946 475.316 555.297 474.068C557.647 472.82 559.601 470.939 560.936 468.637C562.271 466.335 562.934 463.704 562.85 461.045C562.767 458.385 561.939 455.802 560.462 453.588L560.528 453.699Z" fill="#263238"/>
<path d="M502.558 488.897C502.558 488.897 493.316 479.235 496.5 471.209C498.313 466.677 507.93 464.577 507.93 464.577C508.65 462.357 509.803 460.303 511.32 458.531C512.838 456.759 514.692 455.304 516.774 454.252C524.18 450.184 534.925 452.041 534.925 452.041C534.925 452.041 541.248 445.607 549.451 447.619C560.881 450.471 563.888 465.815 555.332 473.42C549.34 478.771 538.153 475.277 538.153 475.277C537.269 475.675 529.553 483.9 520.179 477.488C520.179 477.488 515.912 484.121 509.765 482.087C509.417 483.828 508.536 485.419 507.245 486.639C505.954 487.858 504.316 488.647 502.558 488.897V488.897Z" fill="#263238"/>
<path d="M514.055 508.596C514.055 508.596 504.503 498.868 499.971 502.449C495.439 506.031 503.906 521.043 510.141 522.237C510.929 522.45 511.751 522.501 512.559 522.387C513.367 522.272 514.143 521.994 514.84 521.57C515.537 521.146 516.14 520.585 516.613 519.92C517.086 519.256 517.419 518.502 517.592 517.705L514.055 508.596Z" fill="#EB9481"/>
<path d="M502.491 506.761V506.915C506.913 507.91 509.699 511.337 511.888 515.051C511.572 514.686 511.182 514.394 510.743 514.193C510.304 513.992 509.828 513.888 509.345 513.888C508.863 513.888 508.386 513.992 507.947 514.193C507.509 514.394 507.118 514.686 506.803 515.051C506.803 515.051 506.803 515.295 506.935 515.25C507.622 514.9 508.4 514.77 509.163 514.877C509.926 514.984 510.638 515.322 511.202 515.847C512.139 516.736 512.97 517.73 513.679 518.81C513.944 519.142 514.563 518.81 514.364 518.434C513.524 512.929 508.328 506.274 502.491 506.761Z" fill="#263238"/>
<path d="M550.756 544.965L543.438 565.239L517.791 541.03L511.158 549.365C511.158 549.365 536.827 588.387 536.893 586.574L544.432 569.13L556.703 580.605L554.492 550.735L550.756 544.965Z" fill="#EBEBEB"/>
<path d="M556.46 565.77C555.951 560.861 555.575 555.887 554.824 551.001C554.824 550.824 554.536 550.758 554.492 551.001C553.696 555.798 555.752 574.613 555.907 579.123C555.399 578.637 544.565 569.064 544.455 569.219C542.796 572.004 537.247 584.695 536.893 585.867C532.825 579.654 517.305 557.125 512.573 551.332C512.545 551.308 512.509 551.293 512.472 551.29C512.434 551.287 512.397 551.296 512.365 551.315C512.333 551.335 512.308 551.364 512.294 551.399C512.279 551.434 512.277 551.473 512.286 551.509C515.912 558.142 536.451 588.409 536.738 588.299C539.686 582.303 542.313 576.156 544.609 569.882C546.466 571.982 557.455 582.816 557.477 582.086C557.417 576.633 557.078 571.187 556.46 565.77Z" fill="#263238"/>
<path d="M387.702 317.353H126.86V586.663H387.702V317.353Z" fill="#007EFF"/>
<path d="M63.2522 397.763V536.254H201.743V397.763H63.2522ZM73.7098 525.796V408.221H191.286V525.796H73.7098Z" fill="#A6A6A6"/>
<path d="M298.912 393.098C305.766 391.484 323.541 396.127 329.621 405.214C335.701 414.301 335.414 429.18 332.385 430.683C329.356 432.187 316.223 431.258 307.159 426.439C298.094 421.619 295.529 394.005 298.912 393.098Z" fill="#263238"/>
<path d="M298.89 393.142C298.669 393.142 298.625 392.722 298.89 392.7C304.926 392.457 311.404 394.403 317.174 395.972C321.957 396.975 326.477 398.971 330.44 401.831C332.267 403.291 333.755 405.131 334.801 407.223C335.847 409.315 336.426 411.609 336.498 413.947C336.96 419.604 335.955 425.285 333.579 430.44C333.579 430.573 333.247 430.44 333.292 430.44C335.923 420.359 338.156 408.066 328.074 401.389C319.474 395.619 308.618 395.11 298.89 393.142Z" fill="#263238"/>
<path d="M331.456 428.075C337.492 428.76 353.322 439.991 356.108 451.4C358.894 462.808 349.873 479.876 346.955 481.136C344.036 482.396 330.55 471.629 326.084 463.648C323.099 458.298 325.288 451.997 326.526 445.718C328.206 436.476 330.417 427.986 331.456 428.075Z" fill="#263238"/>
<path d="M322.348 462.255C320.38 450.626 326.77 438.974 330.617 428.384C330.617 428.274 330.838 428.384 330.816 428.384C328.782 438.532 322.834 447.707 322.812 458.276C322.674 461.375 323.285 464.463 324.593 467.276C325.902 470.089 327.869 472.546 330.329 474.437C334.862 477.709 340.521 479.146 345.806 480.915C346.159 481.026 345.938 481.534 345.585 481.424C335.105 478.24 324.36 474.282 322.348 462.255Z" fill="#263238"/>
<path d="M332.672 429.136C332.617 429.104 332.575 429.053 332.555 428.992C332.534 428.931 332.536 428.865 332.56 428.806C332.585 428.747 332.629 428.698 332.687 428.67C332.744 428.641 332.809 428.634 332.871 428.649C341.494 432.585 351.885 438.333 356.594 446.934C361.702 456.264 356.882 466.168 352.593 474.725C352.593 474.725 352.372 474.725 352.416 474.725C356.639 466.058 361.083 455.313 355.312 446.248C350.338 438.355 340.809 432.983 332.672 429.136Z" fill="#263238"/>
<path d="M346.137 480.849C343.416 483.062 341.175 485.808 339.552 488.918C337.929 492.027 336.957 495.436 336.697 498.934C335.812 512.907 330.352 510.718 315.715 515.892C303.334 520.313 302.074 534.751 309.547 541.074C309.547 541.074 304.749 532.717 312.863 527.565C322.547 521.397 347.022 529.776 357.214 514.145C370.391 493.937 346.137 480.849 346.137 480.849Z" fill="#263238"/>
<path d="M348.635 482.286C348.635 482.286 348.459 482.286 348.635 482.418C354.163 486.84 359.955 491.262 362.144 498.381C364.488 506.009 361.26 514.211 355.622 519.54C349.299 525.487 341.693 523.718 333.889 523.011C328.29 522.127 322.556 522.761 317.285 524.846C317.13 524.846 317.285 525.199 317.418 525.133C325.974 522.215 334.242 524.006 342.976 524.536C346.228 524.802 349.49 524.147 352.387 522.645C355.284 521.144 357.7 518.857 359.358 516.046C368.003 503.002 360.486 489.891 348.635 482.286Z" fill="#263238"/>
<path d="M304.086 386.709C304.497 386.265 305.06 385.993 305.662 385.945C306.265 385.897 306.863 386.078 307.339 386.45C307.815 386.823 308.133 387.361 308.231 387.958C308.329 388.555 308.199 389.166 307.866 389.671C305.987 392.147 302.206 389.185 304.086 386.709Z" fill="#007EFF"/>
<path d="M302.295 390.799C302.706 390.355 303.269 390.083 303.871 390.035C304.474 389.987 305.073 390.168 305.549 390.541C306.024 390.913 306.343 391.452 306.44 392.048C306.538 392.645 306.408 393.256 306.076 393.761C304.196 396.216 300.504 393.275 302.295 390.799Z" fill="#007EFF"/>
<path d="M299.796 394.557C300.207 394.114 300.77 393.841 301.373 393.794C301.975 393.746 302.574 393.926 303.05 394.299C303.526 394.672 303.844 395.21 303.942 395.807C304.039 396.403 303.909 397.015 303.577 397.52C303.166 397.963 302.603 398.236 302.001 398.284C301.398 398.331 300.799 398.151 300.324 397.778C299.848 397.405 299.529 396.867 299.432 396.271C299.334 395.674 299.464 395.062 299.796 394.557Z" fill="#007EFF"/>
<path d="M296.9 397.852C297.311 397.408 297.874 397.136 298.477 397.088C299.079 397.04 299.678 397.22 300.154 397.593C300.63 397.966 300.948 398.504 301.045 399.101C301.143 399.697 301.013 400.309 300.681 400.814C298.802 403.29 295.021 400.328 296.9 397.852Z" fill="#007EFF"/>
<path d="M293.408 400.637C295.287 398.161 299.067 401.124 297.188 403.6C296.777 404.043 296.214 404.316 295.612 404.364C295.009 404.411 294.41 404.231 293.935 403.858C293.459 403.485 293.141 402.947 293.043 402.35C292.945 401.754 293.075 401.142 293.408 400.637Z" fill="#007EFF"/>
<path d="M289.604 402.848C290.015 402.405 290.578 402.132 291.181 402.084C291.783 402.037 292.382 402.217 292.858 402.59C293.334 402.963 293.652 403.501 293.75 404.098C293.847 404.694 293.717 405.306 293.385 405.811C291.506 408.154 287.747 405.192 289.604 402.848Z" fill="#007EFF"/>
<path d="M286 447.287C275.631 460.066 220.115 500.349 173.244 499.553C157.326 499.31 113.108 431.369 104.928 405.545C99.0686 386.996 138.445 377.622 149.588 380.297C163.472 383.657 190.534 441.915 195.884 442.202C211.802 443.308 239.129 433.734 272.669 430.33C289.936 428.671 294.004 437.471 286 447.287Z" fill="#AD6359"/>
<path d="M106.497 409.813C103.535 403.357 89.6281 367.474 88.5005 358.254C87.373 349.035 86.0686 322.194 93.0551 320.669C100.042 319.143 101.036 326.926 101.036 326.926C101.036 326.926 102.274 315.495 109.46 314.545C116.645 313.594 117.817 325.82 117.817 325.82C117.817 325.82 120.028 314.191 127.169 313.749C134.31 313.307 133.515 325.798 133.515 325.798C133.515 325.798 134.952 315.075 141.054 317.22C148.416 319.807 143.508 339.329 145.476 349.366C145.94 351.577 158.033 395.221 158.033 395.221L106.497 409.813Z" fill="#AD6359"/>
<path d="M133.559 324.671C130 338.975 130.906 345.873 135.461 359.669C135.461 359.935 135.173 360.134 135.063 359.846C129.359 346.758 126.971 338.29 132.852 324.472C133.161 323.786 133.736 323.985 133.559 324.671Z" fill="#263238"/>
<path d="M118.105 324.626C115.717 339.815 116.645 347.288 120.315 362.101C120.315 362.3 120.028 362.411 119.962 362.212C115.098 347.996 112.909 339.484 117.309 324.626C117.53 323.941 118.215 323.919 118.105 324.626Z" fill="#263238"/>
<path d="M101.258 327.678C99.9973 342.579 100.661 350.804 106.099 364.71C106.116 364.775 106.109 364.843 106.081 364.903C106.053 364.963 106.005 365.012 105.945 365.04C105.885 365.069 105.817 365.076 105.752 365.06C105.688 365.044 105.631 365.006 105.591 364.953C98.6708 351.312 97.7643 341.031 100.793 327.7C101.014 326.705 101.346 326.66 101.258 327.678Z" fill="#263238"/>
<path d="M167.85 401.897C167.85 401.897 169.907 383.525 169.022 375.256C168.138 366.987 153.546 337.361 146.913 340.147C138.423 343.751 143.486 362.521 147.179 371.387C147.179 371.387 127.524 379.722 128.253 393.982C128.983 408.243 167.85 401.897 167.85 401.897Z" fill="#AD6359"/>
<path d="M144.967 341.916C139.595 350.759 145.188 362.101 148.129 370.967C148.179 371.097 148.196 371.237 148.18 371.375C148.165 371.514 148.115 371.646 148.037 371.761C147.959 371.876 147.854 371.971 147.731 372.036C147.609 372.102 147.472 372.137 147.333 372.139C139.329 376.185 129.203 384.21 127.877 393.585C127.862 393.629 127.834 393.667 127.796 393.695C127.759 393.722 127.713 393.737 127.667 393.737C127.62 393.737 127.575 393.722 127.537 393.695C127.499 393.667 127.471 393.629 127.457 393.585C127.457 383.326 136.809 374.637 145.851 370.768C142.712 361.725 137.605 350.118 144.901 341.872C144.923 341.805 145.011 341.849 144.967 341.916Z" fill="#263238"/>
<path d="M219.651 437.78L238.975 482.441C238.975 482.441 268.203 468.534 285.978 450.559C303.754 432.585 283.989 426.549 266.788 429.158C249.587 431.767 219.651 437.78 219.651 437.78Z" fill="#EBEBEB"/>
<path d="M285.978 450.648C268.291 468.622 238.975 482.529 238.975 482.529L233.094 468.932L291.97 434.796C294.137 438.377 292.943 443.595 285.978 450.648Z" fill="#C7C7C7"/>
<path d="M246.271 476.25C239.929 463.801 234.354 450.976 229.578 437.847C229.578 437.692 229.777 437.581 229.844 437.847C231.148 441.296 240.345 460.31 246.558 476.228C246.647 476.339 246.359 476.427 246.271 476.25Z" fill="#263238"/>
<path d="M241.694 526.128L233.757 586.663H360.464C360.464 586.663 343.705 473.133 316.644 438.223C303.113 420.779 284.984 421.243 272.16 434.575C269.353 437.471 241.053 477.908 236.056 494.601C231.701 509.392 241.694 526.128 241.694 526.128Z" fill="#EBEBEB"/>
<path d="M278.572 440.677L270.569 462.145C267.93 469.308 265.395 476.493 262.963 483.701C260.752 490.953 257.989 498.204 259.072 505.589C260.023 513.031 262.467 520.205 266.257 526.681L266.434 526.99V527.3C265.329 536.917 264.024 546.535 262.852 556.042C261.681 565.548 260.332 575.254 258.961 584.783C259.787 575.114 260.664 565.467 261.592 555.843C262.565 546.203 263.449 536.564 264.511 526.946L264.643 527.543C260.613 520.854 257.987 513.414 256.927 505.677C256.468 501.754 256.745 497.78 257.745 493.959C258.718 490.201 259.956 486.553 261.128 482.905C263.582 475.631 266.478 468.556 269.375 461.481C272.271 454.406 275.344 447.619 278.572 440.677Z" fill="#263238"/>
<path d="M260.885 468.645C260.79 469.121 260.882 469.616 261.141 470.027C261.4 470.438 261.807 470.735 262.277 470.855C262.51 470.89 262.748 470.876 262.976 470.816C263.203 470.756 263.416 470.65 263.602 470.506C263.788 470.361 263.943 470.181 264.057 469.975C264.171 469.769 264.243 469.542 264.267 469.308C264.367 468.831 264.278 468.333 264.018 467.921C263.758 467.508 263.348 467.213 262.874 467.097C262.641 467.06 262.402 467.071 262.173 467.129C261.944 467.188 261.73 467.293 261.543 467.439C261.357 467.584 261.202 467.766 261.089 467.973C260.975 468.181 260.906 468.409 260.885 468.645V468.645Z" fill="#263238"/>
<path d="M253.213 489.538C253.113 490.015 253.202 490.512 253.462 490.925C253.722 491.337 254.132 491.633 254.605 491.748C254.836 491.783 255.07 491.77 255.295 491.711C255.52 491.652 255.731 491.548 255.915 491.406C256.099 491.263 256.252 491.085 256.365 490.882C256.478 490.678 256.549 490.454 256.573 490.223C256.673 489.746 256.584 489.248 256.324 488.836C256.064 488.423 255.654 488.128 255.18 488.012C254.95 487.978 254.716 487.991 254.491 488.05C254.266 488.109 254.055 488.213 253.871 488.355C253.687 488.498 253.534 488.676 253.421 488.879C253.308 489.082 253.237 489.306 253.213 489.538V489.538Z" fill="#263238"/>
<path d="M252.24 510.851C252.14 511.328 252.229 511.825 252.489 512.238C252.749 512.65 253.159 512.946 253.632 513.062C253.864 513.096 254.1 513.083 254.326 513.024C254.552 512.966 254.765 512.862 254.95 512.72C255.136 512.578 255.291 512.4 255.406 512.196C255.522 511.993 255.595 511.768 255.622 511.536C255.717 511.059 255.625 510.565 255.366 510.153C255.107 509.742 254.7 509.446 254.229 509.325C253.998 509.291 253.762 509.304 253.536 509.362C253.31 509.421 253.097 509.525 252.912 509.667C252.726 509.809 252.571 509.987 252.456 510.191C252.34 510.394 252.267 510.618 252.24 510.851V510.851Z" fill="#263238"/>
<path d="M258.165 528.516C258.065 528.993 258.155 529.49 258.414 529.903C258.674 530.315 259.084 530.611 259.558 530.727C259.789 530.761 260.025 530.748 260.252 530.689C260.478 530.631 260.69 530.527 260.876 530.385C261.061 530.243 261.216 530.065 261.332 529.861C261.447 529.658 261.521 529.433 261.548 529.201C261.642 528.724 261.55 528.23 261.291 527.819C261.032 527.407 260.626 527.111 260.155 526.99C259.924 526.956 259.688 526.969 259.462 527.028C259.235 527.086 259.023 527.19 258.837 527.332C258.652 527.474 258.497 527.652 258.381 527.856C258.266 528.059 258.192 528.284 258.165 528.516V528.516Z" fill="#263238"/>
<path d="M255.866 547.773C255.771 548.249 255.863 548.744 256.122 549.155C256.381 549.567 256.788 549.863 257.258 549.984C257.49 550.018 257.726 550.004 257.953 549.944C258.179 549.884 258.391 549.778 258.575 549.633C258.759 549.488 258.912 549.307 259.024 549.102C259.136 548.896 259.205 548.669 259.226 548.436C259.32 547.959 259.229 547.465 258.97 547.053C258.711 546.642 258.304 546.346 257.833 546.225C257.601 546.191 257.365 546.205 257.139 546.265C256.912 546.325 256.701 546.431 256.517 546.576C256.332 546.721 256.18 546.901 256.068 547.107C255.956 547.313 255.887 547.539 255.866 547.773Z" fill="#263238"/>
<path d="M253.765 566.786C253.671 567.263 253.763 567.758 254.022 568.169C254.281 568.58 254.688 568.877 255.158 568.997C255.391 569.031 255.629 569.018 255.856 568.958C256.084 568.898 256.297 568.792 256.483 568.648C256.669 568.503 256.824 568.323 256.938 568.117C257.052 567.911 257.124 567.684 257.148 567.45C257.247 566.969 257.155 566.469 256.891 566.056C256.626 565.643 256.211 565.35 255.733 565.239C255.501 565.202 255.263 565.213 255.036 565.272C254.808 565.331 254.595 565.436 254.41 565.581C254.225 565.727 254.073 565.909 253.962 566.116C253.851 566.324 253.784 566.552 253.765 566.786V566.786Z" fill="#263238"/>
<path d="M279.147 652.967C285.536 657.389 296.281 638.199 299.929 634.108C303.577 630.018 305.169 630.151 304.948 633.268L313.261 600.282C308.95 603.62 299.819 610.806 294.955 615.537C288.433 621.86 272.757 648.634 279.147 652.967Z" fill="#AD6359"/>
<path d="M327.035 443.131C354.096 464.952 388.21 503.334 395.175 528.14C400.525 547.286 373.596 613.812 365.571 629.333C362.077 636.098 315.737 615.515 313.703 607.622C311.669 599.729 343.97 542.445 344.28 536.365C344.589 530.285 323.475 490.135 309.082 462.985C291.505 430.087 303.909 424.581 327.035 443.131Z" fill="#AD6359"/>
<path d="M283.701 671.915C287.968 676.558 296.613 670.92 296.613 670.92C296.613 670.92 288.919 680.427 294.932 684.185C300.946 687.944 309.148 679.764 309.148 679.764C309.148 679.764 302.516 688.872 308.817 692.1C315.118 695.328 323.166 688.276 323.166 688.276C323.166 688.276 322.723 691.769 328.184 692.078C336.011 692.521 347.176 679.83 351.443 671.826C355.71 663.823 365.394 631.345 366.809 626.348L315.626 598.535C315.626 598.535 314.72 599.198 313.261 600.348L304.926 633.268C304.793 635.324 298.934 647.993 296.812 651.641C292.036 659.843 278.903 666.697 283.701 671.915Z" fill="#AD6359"/>
<path d="M296.878 670.367C308.353 661.678 311.868 655.908 316.777 642.643C316.777 642.377 317.285 642.466 317.197 642.753C313.504 656.173 310.144 664.066 297.188 670.964C296.635 671.384 296.326 670.876 296.878 670.367Z" fill="#263238"/>
<path d="M308.574 679.963C319.629 669.881 323.564 663.646 329.821 650.137C329.821 649.939 330.241 650.137 330.153 650.27C325.156 664.044 321.618 671.826 309.171 680.427C308.618 680.825 308.066 680.405 308.574 679.963Z" fill="#263238"/>
<path d="M323.21 688.055C333.27 677.531 337.802 670.854 342.18 656.969C342.197 656.899 342.242 656.838 342.304 656.801C342.366 656.764 342.441 656.753 342.511 656.77C342.582 656.788 342.642 656.833 342.679 656.895C342.717 656.957 342.728 657.032 342.71 657.102C339.615 671.694 334.021 680.051 323.564 688.32C322.834 688.85 322.613 688.674 323.21 688.055Z" fill="#263238"/>
<path d="M321.839 502.847L360.906 473.597C360.906 473.597 340.61 448.393 319.009 435.26C297.409 422.127 296.082 442.821 302.715 458.961C309.348 475.1 321.839 502.847 321.839 502.847Z" fill="#EBEBEB"/>
<path d="M353.101 468.048C342.454 477.095 331.268 485.49 319.606 493.186C319.474 493.186 319.319 493.053 319.452 492.942C322.525 490.864 338.885 477.466 352.947 467.782C353.101 467.672 353.256 467.915 353.101 468.048Z" fill="#263238"/>
<path d="M314.963 486.31C312.598 480.981 309.348 473.221 306.65 468.026C306.65 468.026 306.496 468.026 306.518 468.026C307.579 471.055 308.729 474.083 310.033 477.068C309.945 476.909 309.849 476.754 309.746 476.604C308.773 475.211 307.756 473.84 306.673 472.514C307.491 474.017 308.375 475.498 309.326 476.936C309.923 477.842 310.564 478.704 311.205 479.566C311.89 481.136 313.416 485.027 314.145 486.597C315.295 489.228 320.911 504.041 321.154 503.864C322.524 502.965 323.838 501.983 325.089 500.924C325.288 500.769 325.089 500.415 324.802 500.57C324.094 501.167 322.326 502.339 322.038 502.56C320.778 499.885 319.827 497.055 318.567 494.313C317.307 491.572 316.179 489.073 314.963 486.31Z" fill="#263238"/>
<path d="M298.536 429.888C297.873 432.098 286.222 446.337 275.853 445.364C272.47 445.01 273.531 426.483 273.531 426.483L273.288 425.112L270.016 405.7L293.319 392.435L296.679 390.71C296.679 390.71 297.21 396.083 297.829 402.76C297.829 403.069 297.829 403.379 297.829 403.71C297.829 404.042 297.829 404.44 297.94 404.794C298.05 405.811 298.139 406.828 298.227 407.845C298.315 408.862 298.36 409.37 298.404 410.188C298.448 411.006 298.404 411.802 298.559 412.62C298.94 418.37 298.932 424.139 298.536 429.888V429.888Z" fill="#AD6359"/>
<path d="M297.829 402.693C295.592 407.958 292.239 412.675 288.002 416.519C283.765 420.363 278.745 423.242 273.288 424.957L270.016 405.545L293.319 392.28L296.679 390.556C296.679 390.556 297.21 396.016 297.829 402.693Z" fill="#263238"/>
<path d="M245.718 371.475C238.687 405.28 258.165 413.306 265.439 414.809C272.072 416.158 294.778 419.983 305.235 387.062C315.693 354.142 302.206 340.213 287.216 336.212C272.227 332.21 252.726 337.649 245.718 371.475Z" fill="#AD6359"/>
<path d="M257.126 363.494C257.922 363.538 258.719 363.538 259.514 363.494C260.356 363.57 261.2 363.377 261.924 362.941C262.121 362.755 262.252 362.509 262.296 362.242C262.34 361.974 262.294 361.7 262.167 361.46C261.842 361.023 261.407 360.68 260.906 360.466C260.405 360.252 259.856 360.176 259.315 360.244C258.202 360.218 257.121 360.613 256.286 361.35C256.132 361.529 256.03 361.747 255.99 361.981C255.951 362.214 255.976 362.454 256.062 362.674C256.148 362.895 256.293 363.087 256.48 363.232C256.668 363.376 256.891 363.467 257.126 363.494Z" fill="#263238"/>
<path d="M280.363 368.69C279.589 368.447 278.904 368.115 278.152 367.805C277.329 367.597 276.593 367.133 276.052 366.479C275.923 366.238 275.879 365.961 275.927 365.692C275.976 365.424 276.113 365.179 276.317 364.998C276.765 364.695 277.286 364.517 277.826 364.482C278.366 364.447 278.906 364.556 279.39 364.799C280.449 365.138 281.341 365.865 281.888 366.833C281.997 367.06 282.039 367.314 282.008 367.565C281.978 367.815 281.877 368.052 281.716 368.247C281.556 368.442 281.344 368.587 281.104 368.665C280.864 368.744 280.607 368.752 280.363 368.69V368.69Z" fill="#263238"/>
<path d="M274.393 376.008C274.393 376.008 274.548 376.14 274.526 376.229C273.995 378.44 273.796 381.248 275.742 382.419C275.742 382.419 275.742 382.574 275.742 382.552C273.221 381.69 273.531 378.086 274.393 376.008Z" fill="#263238"/>
<path d="M276.913 374.106C280.672 374.527 279.522 382.044 276.051 381.624C272.58 381.203 273.752 373.62 276.913 374.106Z" fill="#263238"/>
<path d="M278.395 374.615C278.97 375.123 279.5 375.986 280.296 376.185C281.092 376.384 281.999 375.72 282.706 375.057C282.706 375.057 282.839 375.057 282.817 375.168C282.618 376.605 281.844 377.998 280.274 377.976C278.704 377.953 278.063 376.538 277.886 375.035C277.798 374.748 278.085 374.394 278.395 374.615Z" fill="#263238"/>
<path d="M260.177 372.758C260.177 372.647 259.978 372.758 259.978 372.935C259.713 375.146 259.005 377.909 256.794 378.373V378.506C259.425 378.528 260.31 375.013 260.177 372.758Z" fill="#263238"/>
<path d="M258.497 370.016C254.804 369.198 253.412 376.649 256.838 377.423C260.265 378.197 261.548 370.702 258.497 370.016Z" fill="#263238"/>
<path d="M256.817 370.215C256.153 370.503 255.424 371.122 254.716 371.033C254.009 370.945 253.434 370.016 253.058 369.154C253.058 369.154 252.948 369.154 252.926 369.154C252.616 370.591 252.815 372.161 254.142 372.691C255.468 373.222 256.485 372.117 257.082 370.746C257.193 370.547 257.082 370.105 256.817 370.215Z" fill="#263238"/>
<path d="M260.707 383.724C260.707 383.724 259.646 387.107 259.381 388.743C259.381 388.897 259.735 389.03 260.287 389.163C261.648 389.652 263.118 389.757 264.534 389.464C265.95 389.172 267.258 388.493 268.313 387.505C268.446 387.372 268.313 387.173 268.114 387.239C265.796 388.322 263.19 388.625 260.685 388.101C260.685 387.637 262.675 382.375 262.41 382.309C261.123 382.212 259.83 382.286 258.563 382.53C260.553 375.411 263.648 368.668 265.527 361.549C265.548 361.493 265.545 361.431 265.52 361.377C265.496 361.323 265.45 361.282 265.395 361.261C265.339 361.241 265.277 361.243 265.223 361.268C265.17 361.293 265.128 361.338 265.107 361.394C261.555 368.514 258.726 375.973 256.662 383.658C256.529 384.564 260.088 383.879 260.707 383.724Z" fill="#263238"/>
<path d="M271.452 340.567C270.439 343.408 270.292 346.486 271.032 349.411C273.951 357.392 283.347 356.264 286.199 359.581C289.051 362.897 287.282 368.424 289.67 371.542C293.009 375.809 298.182 374.77 298.514 377.467C298.846 380.164 299.818 388.743 303.09 390.135C306.363 391.528 327.101 337.074 282.971 334.686C282.971 334.686 277.179 331.657 267.362 335.46C256.551 339.683 250.427 356.242 250.427 356.242C250.427 356.242 250.67 356.021 252.306 354.849C254.517 353.169 255.578 351.533 257.258 350.428C259.889 348.769 261.15 349.61 263.891 347.996C266.845 346.003 269.407 343.485 271.452 340.567V340.567Z" fill="#263238"/>
<path d="M272.36 338.201C271.448 340.325 270.802 342.552 270.436 344.834C269.926 347.031 270.033 349.327 270.746 351.467C271.708 353.461 273.368 355.034 275.411 355.889C277.423 356.861 279.833 357.304 281.889 358.409C283.002 358.984 283.941 359.846 284.608 360.907C285.168 362.001 285.499 363.197 285.581 364.423C285.615 366.653 286.257 368.832 287.438 370.724C288.105 371.612 288.956 372.344 289.933 372.871C290.91 373.398 291.99 373.706 293.098 373.775C295.406 373.616 297.721 373.955 299.885 374.77C297.674 374.137 295.353 373.979 293.076 374.305C291.868 374.28 290.68 373.994 289.592 373.468C288.505 372.941 287.544 372.186 286.775 371.254C285.418 369.301 284.651 366.999 284.564 364.622C284.468 363.536 284.168 362.479 283.68 361.504C283.088 360.62 282.272 359.911 281.314 359.448C279.39 358.409 277.069 357.901 274.946 356.861C273.859 356.339 272.854 355.661 271.962 354.849C271.04 354.04 270.333 353.015 269.906 351.865C269.254 349.567 269.254 347.132 269.906 344.834C270.452 342.532 271.276 340.305 272.36 338.201V338.201Z" fill="#263238"/>
<path d="M271.32 340.125C270.682 342.188 269.775 344.157 268.623 345.984C267.465 347.906 265.765 349.444 263.737 350.406C262.721 350.801 261.67 351.097 260.597 351.29C259.641 351.506 258.761 351.98 258.055 352.661C257.399 353.535 256.658 354.342 255.844 355.071C254.977 355.749 253.962 356.211 252.881 356.419C253.856 356.024 254.737 355.429 255.468 354.673C256.169 353.883 256.798 353.032 257.347 352.13C258.092 351.229 259.108 350.593 260.244 350.317C261.263 350.104 262.262 349.8 263.228 349.411C265.074 348.517 266.658 347.161 267.827 345.475C269.114 343.775 270.282 341.987 271.32 340.125V340.125Z" fill="#263238"/>
<path d="M296.193 385.338C296.193 385.338 305.279 375.809 309.701 379.192C314.123 382.574 306.186 397.188 300.194 398.449C299.435 398.66 298.64 398.717 297.859 398.614C297.077 398.511 296.324 398.252 295.645 397.852C294.965 397.451 294.374 396.918 293.906 396.283C293.438 395.649 293.103 394.926 292.92 394.159L296.193 385.338Z" fill="#AD6359"/>
<path d="M307.314 383.326C307.314 383.326 307.314 383.459 307.314 383.481C303.069 384.498 300.416 387.902 298.47 391.462C298.762 391.099 299.128 390.805 299.545 390.598C299.961 390.391 300.418 390.278 300.883 390.265C301.348 390.252 301.81 390.341 302.237 390.525C302.664 390.709 303.046 390.983 303.357 391.329C303.467 391.329 303.357 391.55 303.224 391.506C302.558 391.176 301.806 391.062 301.072 391.181C300.339 391.3 299.661 391.646 299.134 392.17C298.239 393.035 297.446 394 296.768 395.044C296.525 395.375 295.928 395.044 296.127 394.69C296.768 389.583 301.787 382.95 307.314 383.326Z" fill="#263238"/>
<path d="M273.266 427.942L278.152 443.684L298.669 425.996L303.533 432.629C303.533 432.629 282.529 461.769 282.507 460.376L277.289 446.735L267.495 455.136L270.082 432.253L273.266 427.942Z" fill="#EBEBEB"/>
<path d="M268.136 443.661C268.689 439.903 269.131 436.1 269.861 432.364C269.861 432.231 270.104 432.187 270.126 432.364C270.59 436.078 268.379 450.471 268.114 453.942C268.534 453.588 277.179 446.58 277.245 446.712C278.439 448.923 282.286 458.85 282.529 459.757C285.845 455.114 298.514 438.333 302.427 434C302.538 433.889 302.737 434 302.648 434.155C299.641 439.085 282.75 461.724 282.618 461.636C280.56 456.919 278.745 452.101 277.179 447.199C275.675 448.769 266.876 456.75 266.898 456.175C267.088 451.985 267.501 447.808 268.136 443.661V443.661Z" fill="#263238"/>
<path d="M691.369 140.569H405.3V426.637H691.369V140.569Z" fill="#DBDBDB"/>
<path d="M527.276 68.0735V260.798H720V68.0735H527.276ZM709.52 250.296H537.733V78.531H709.52V250.296Z" fill="#263238"/>
<path d="M499.905 310.543L515.382 311.626C520.306 303.102 522.476 293.264 521.594 283.459C521.417 281.249 526.126 294.293 523.208 312.201C539.547 313.329 561.788 314.876 581.2 316.048C581.93 308.465 582.947 301.478 582.947 301.478C583.339 306.488 584.175 311.452 585.445 316.313C588.098 316.49 590.707 316.623 593.205 316.756C593.582 305.958 594.556 295.189 596.124 284.499C597.011 295.82 599.752 306.919 604.238 317.353C616.597 317.972 624.711 318.149 624.136 317.529C606.449 295.266 620.687 283.548 616.221 264.468C610.892 241.585 591.569 237.097 592.918 220.25C594.001 206.454 596.853 181.493 579.652 175.324C575.175 170.506 569.383 167.106 562.994 165.546C556.604 163.986 549.897 164.334 543.703 166.547C515.647 175.833 524.623 218.923 522.346 227.502C519.096 239.75 512.994 243.84 507.953 257.769C502.912 271.697 508.904 281.624 509.191 291.33C509.478 301.036 496.81 310.366 499.905 310.543Z" fill="#263238"/>
<path d="M624.954 314.412C622.575 310.565 620.744 306.406 619.515 302.053C618.603 297.744 618.824 293.273 620.156 289.075C621.362 284.62 622.328 280.103 623.052 275.544C623.778 270.784 623.537 265.927 622.345 261.262C621.049 256.59 618.696 252.278 615.469 248.66C612.341 245.221 608.931 242.048 605.276 239.175C601.74 236.424 598.581 233.221 595.88 229.646C593.295 225.93 591.766 221.582 591.458 217.066C591.067 221.75 592.099 226.443 594.421 230.53C596.867 234.515 599.9 238.108 603.419 241.187C606.77 244.186 609.924 247.399 612.86 250.804C615.634 254.131 617.662 258.014 618.807 262.191C619.83 266.423 620.07 270.806 619.515 275.124C619.05 279.546 618.033 283.968 617.304 288.39C616.873 290.711 616.622 293.061 616.552 295.42C616.537 297.834 616.957 300.23 617.79 302.495C619.456 306.859 621.882 310.893 624.954 314.412V314.412Z" fill="#263238"/>
<path d="M527.321 181.758C525.183 186.995 523.698 192.475 522.899 198.074C521.948 203.624 521.263 209.129 520.688 214.811L519.693 223.146C519.413 225.838 518.873 228.496 518.079 231.083C516.21 236.179 513.439 240.897 509.899 245.012C508.124 247.287 506.506 249.68 505.057 252.175C503.601 254.739 502.444 257.462 501.608 260.289C500.864 263.099 500.324 265.958 499.994 268.845C499.633 271.782 499.633 274.752 499.994 277.689C500.37 280.585 501.055 283.349 501.608 286.046C502.169 288.731 502.48 291.462 502.536 294.204C502.491 296.952 501.794 299.649 500.502 302.075C499.211 304.5 497.362 306.584 495.108 308.155C497.659 306.771 499.83 304.781 501.43 302.36C503.03 299.938 504.01 297.16 504.283 294.271C504.46 291.393 504.349 288.504 503.951 285.648C503.575 282.818 503.001 280.077 502.824 277.38C502.507 271.966 503.189 266.54 504.836 261.373C505.655 258.828 506.737 256.375 508.064 254.054C509.466 251.705 511.025 249.452 512.728 247.311C514.498 245.051 516.143 242.696 517.659 240.258C519.206 237.739 520.432 235.035 521.307 232.211C522.082 229.399 522.585 226.519 522.81 223.61C523.098 220.78 523.275 217.973 523.451 215.165C523.827 209.549 524.115 203.955 524.645 198.384C524.955 192.764 525.852 187.192 527.321 181.758Z" fill="#263238"/>
<path d="M662.295 418.789C662.295 418.457 662.295 418.125 662.118 417.794C662.206 418.203 662.273 418.616 662.317 419.032C662.321 418.95 662.314 418.868 662.295 418.789V418.789Z" fill="#007EFF"/>
<path d="M606.934 428.583C607.116 428.704 607.308 428.807 607.509 428.893V428.738L606.912 428.605L606.934 428.583Z" fill="#007EFF"/>
<path d="M527.828 273.82C493.073 312.909 451 393.54 460.44 408.95C470.942 426.107 521.063 370.436 519.338 367.916C517.879 365.705 534.174 317.552 546.024 282.288C557.874 247.024 536.429 264.158 527.828 273.82Z" fill="#D3766A"/>
<path d="M527.828 273.82C493.073 312.909 451 393.54 460.44 408.95C470.942 426.107 521.063 370.436 519.338 367.916C517.879 365.705 534.174 317.552 546.024 282.288C557.874 247.024 536.429 264.158 527.828 273.82Z" fill="#455A64"/>
<path d="M532.516 322.747C529.111 333.028 526.016 342.645 523.672 350.383C518.3 350.627 502.58 349.764 486.264 334.067C491.172 325.378 496.478 316.645 501.961 308.288C510.101 316.589 520.935 321.716 532.516 322.747V322.747Z" fill="#EBEBEB"/>
<path d="M494.311 426.77L503.022 367.629C503.022 367.629 489.049 343.309 497.163 325.621C501.254 316.778 529.354 273.356 544.477 262.367C558.671 252.065 578.127 261.461 584.737 270.415C603.751 296.194 613.015 342.579 623.627 426.704L494.311 426.77Z" fill="#455A64"/>
<path d="M519.758 289.694C516.884 293.63 514.098 297.631 511.357 301.677C512.109 300.108 512.86 298.538 513.568 296.968C513.568 296.858 513.568 296.747 513.413 296.968C512.396 298.936 511.445 300.926 510.539 302.938C506.869 308.347 503.317 313.845 499.882 319.431C498.392 321.767 497.126 324.24 496.102 326.815C495.174 329.34 494.557 331.968 494.267 334.642C493.946 337.32 493.902 340.024 494.134 342.712C494.314 345.472 494.705 348.214 495.306 350.914C495.985 353.988 496.948 356.993 498.18 359.89C498.799 361.305 499.44 362.698 500.148 364.091C500.855 365.484 502.071 367.894 502.071 367.982C501.806 369.397 501.541 370.392 501.364 371.586C501.187 372.78 500.988 374.018 500.811 375.234C500.435 377.666 497.296 401.278 496.942 403.71C496.234 408.53 495.615 413.35 495.018 418.192C494.687 420.978 494.488 423.763 494.112 426.527C494.112 426.637 494.267 426.682 494.289 426.527C494.687 424.117 495.284 421.751 495.704 419.341C496.124 416.932 496.588 414.522 497.052 412.112C497.959 407.248 501.474 381.159 502.226 376.273C502.447 374.925 502.646 373.576 502.867 372.205C503.165 370.749 503.335 369.269 503.376 367.783C500.996 362.9 498.986 357.845 497.362 352.661C496.588 350.026 496.019 347.336 495.66 344.613C495.405 341.959 495.405 339.286 495.66 336.632C495.877 333.967 496.389 331.335 497.185 328.783C498.074 326.187 499.214 323.684 500.59 321.31C503.42 316.291 506.427 311.361 509.433 306.475C512.882 300.933 516.39 295.413 519.957 289.915C519.957 289.915 519.825 289.606 519.758 289.694Z" fill="#263238"/>
<path d="M460.44 408.95C469.284 420.336 491.902 421.42 548.545 429.467C556.371 430.595 579.122 377.401 570.809 375.787C560.351 373.731 519.295 368.071 516.244 368.049C490.487 367.739 454.405 401.234 460.44 408.95Z" fill="#D3766A"/>
<path d="M559.466 373.797C559.466 373.797 583.41 376.163 595.614 381.292C608.193 386.938 619.21 395.558 627.717 406.408C636.914 418.059 651.064 452.616 641.822 458.43C633.465 463.692 620.775 427.632 620.775 427.632C620.775 427.632 639.766 462.255 628.535 466.743C617.303 471.231 604.945 428.539 604.945 428.539C604.945 428.539 623.671 464.554 611.356 467.34C602.048 469.551 588.694 431.435 588.694 431.435C588.694 431.435 604.569 462.498 595.084 465.063C584.604 467.915 570.079 433.602 570.079 433.602C544.874 436.1 531.83 426.969 523.34 419.386C521.173 417.551 559.466 373.797 559.466 373.797Z" fill="#D3766A"/>
<path d="M614.85 415.251C617.237 419.231 619.669 423.255 621.681 427.433C623.693 431.612 625.573 435.879 627.186 440.235C629.427 445.876 631 451.76 631.874 457.767C629.53 447.221 622.544 432.143 620.51 427.942C618.475 423.741 616.707 419.496 614.695 415.318L614.85 415.251Z" fill="#263238"/>
<path d="M599.617 422.26C602.425 427.478 605.431 432.563 608.018 437.891C610.605 443.219 612.44 448.503 614.651 453.986C614.828 454.406 614.651 454.362 614.341 453.986C611.932 448.592 609.278 443.794 606.802 438.51C604.326 433.226 602.049 427.699 599.374 422.437C599.44 422.216 599.572 422.171 599.617 422.26Z" fill="#263238"/>
<path d="M585.445 425.908C589.985 433.807 593.689 442.158 596.499 450.825C596.654 451.245 596.3 451.156 596.123 450.714C592.608 442.379 589.933 435.791 585.224 426.085C585.113 425.93 585.356 425.753 585.445 425.908Z" fill="#263238"/>
<path d="M577.552 374.217L530.924 429.092C530.924 429.092 467.25 424.67 459.91 407.867C452.569 391.064 501.055 366.634 516.177 368.071C531.3 369.508 577.552 374.217 577.552 374.217Z" fill="#455A64"/>
<path d="M491.636 375.234C495.306 372.714 505.698 366.788 516.177 367.96V368.137C507.577 368.402 495.461 373.244 491.725 375.367C491.636 375.433 491.548 375.278 491.636 375.234Z" fill="#263238"/>
<path d="M521.063 419.607C539.392 400.195 555.708 377.003 558.847 373.178C558.98 373.001 558.671 372.78 558.538 372.957C555.664 376.892 534.218 401.367 520.731 419.386C520.577 419.585 520.886 419.784 521.063 419.607Z" fill="#263238"/>
<path d="M472.758 299.865L452.09 401.092L529.835 416.966L550.503 315.739L472.758 299.865Z" fill="#007EFF"/>
<path d="M531.425 306.375L494.585 298.813L492.292 309.989L529.131 317.551L531.425 306.375Z" fill="#EBEBEB"/>
<path d="M523.031 304.706L518.498 303.756L519.537 298.626L508.527 296.349L507.466 301.5L502.933 300.572L504.857 291.198L525.02 295.332L523.031 304.706Z" fill="#EBEBEB"/>
<path d="M594.045 282.752C631.498 330.397 645.625 416.114 624.843 422.746C605.851 428.848 527.74 409.304 504.459 401.389C497.628 399.067 518.742 345.94 526.06 348.327C534.904 351.312 583.189 362.765 584.14 362.787C586.152 362.787 575.407 310.123 570.875 286.223C564.375 252.971 579.984 264.844 594.045 282.752Z" fill="#D3766A"/>
<path d="M463.602 328.385C462.491 329.741 461.822 331.405 461.688 333.153C461.554 334.901 461.959 336.647 462.85 338.157C459.996 339.017 457.533 340.847 455.886 343.331C453.188 347.752 459.092 354.054 459.092 354.054C456.313 355.561 454.055 357.873 452.614 360.686C450.403 365.263 455.532 372.382 455.532 372.382C453.744 375.167 453.021 378.503 453.498 381.778C455.134 390.489 467.714 395.442 475.607 398.67C483.5 401.897 509.213 403.556 514.055 404.374L535.191 353.368C535.191 353.368 503.553 328.761 493.626 326.285C485.379 324.206 468.046 323.256 463.602 328.385Z" fill="#D3766A"/>
<path d="M463.535 337.494C472.954 337.494 481.819 340.412 490.84 342.756C491.039 342.756 490.84 343.11 490.84 343.065C481.996 340.633 472.578 340.014 463.557 337.936C463.499 337.939 463.441 337.919 463.398 337.879C463.354 337.84 463.328 337.785 463.325 337.726C463.322 337.667 463.343 337.61 463.382 337.566C463.422 337.523 463.477 337.497 463.535 337.494V337.494Z" fill="#263238"/>
<path d="M459.534 353.457C461.668 353.673 463.764 354.171 465.768 354.938C467.979 355.623 470.19 356.331 472.224 357.149C476.646 358.652 480.78 360.266 485.003 361.991C485.18 361.991 485.003 362.367 485.003 362.3C480.714 360.826 476.403 359.419 472.069 358.077C469.858 357.414 467.648 356.773 465.547 356.154C463.445 355.7 461.399 355.018 459.445 354.12C459.402 354.114 459.36 354.1 459.322 354.078C459.284 354.056 459.25 354.026 459.224 353.991C459.197 353.957 459.177 353.917 459.166 353.874C459.155 353.832 459.152 353.788 459.158 353.744C459.164 353.7 459.178 353.658 459.2 353.62C459.222 353.582 459.251 353.549 459.286 353.522C459.321 353.496 459.361 353.476 459.403 353.465C459.446 353.454 459.49 353.451 459.534 353.457V353.457Z" fill="#263238"/>
<path d="M455.709 372.404C457.639 372.64 459.515 373.201 461.259 374.062C463.182 374.792 465.15 375.499 467.095 376.273C470.986 377.666 474.9 379.081 478.835 380.341C478.869 380.354 478.898 380.376 478.919 380.406C478.939 380.436 478.95 380.471 478.95 380.507C478.95 380.543 478.939 380.578 478.919 380.608C478.898 380.638 478.869 380.66 478.835 380.673C474.833 379.39 470.788 378.174 466.786 376.87L460.905 374.902C459.052 374.49 457.291 373.741 455.709 372.691C455.69 372.691 455.672 372.688 455.654 372.68C455.637 372.673 455.621 372.663 455.608 372.649C455.594 372.636 455.584 372.62 455.576 372.603C455.569 372.585 455.565 372.567 455.565 372.548C455.565 372.529 455.569 372.51 455.576 372.493C455.584 372.475 455.594 372.459 455.608 372.446C455.621 372.433 455.637 372.422 455.654 372.415C455.672 372.408 455.69 372.404 455.709 372.404V372.404Z" fill="#263238"/>
<path d="M583.499 360.642C584.096 360.266 572.887 309.415 569.128 282.863C565.37 256.31 577.22 258.874 594.266 281.558C612.55 305.878 645.117 371.674 633.819 420.403C630.171 436.189 517.128 414.08 517.128 414.08L532.361 349.101C532.361 349.101 582.504 361.195 583.499 360.642Z" fill="#455A64"/>
<path d="M629.508 355.822C611.069 361.217 591.06 358.475 582.902 356.95C581.73 350.56 578.878 336.72 575.96 321.774C595.327 323.985 608.46 321.155 615.646 318.745C621.235 330.72 625.87 343.118 629.508 355.822V355.822Z" fill="#EBEBEB"/>
<path d="M531.852 407.403C538.728 384.763 542.509 359.957 543.482 355.668C543.482 355.469 543.194 355.424 543.172 355.668C542.442 359.912 535.014 387.814 531.498 407.38C531.454 407.557 531.786 407.602 531.852 407.403Z" fill="#263238"/>
<path d="M604.68 368.159C602.469 367.783 544.786 351.533 532.184 349.565C531.985 349.565 532.184 348.88 532.361 348.924C557.123 353.251 581.548 359.324 605.453 367.098C608.328 368.248 608.748 368.867 604.68 368.159Z" fill="#263238"/>
<path d="M582.88 361.151C582.88 361.151 579.077 341.562 578.458 340.346C577.839 339.13 576.247 336.3 575.628 334.996C574.368 332.365 573.284 329.667 572.135 326.992C572.135 326.771 572.378 326.616 572.466 326.837C573.727 329.402 575.186 331.878 576.667 334.332C577.397 335.526 578.126 336.742 578.878 337.914C578.878 337.914 575.319 318.9 574.81 315.54C574.81 315.296 575.031 315.208 575.12 315.54C576.203 318.922 583.764 357.193 584.803 361.438C584.156 361.389 583.513 361.293 582.88 361.151Z" fill="#263238"/>
<path d="M540.342 418.103C536.562 417.064 521.461 414.632 517.791 414.102C518.474 411.389 518.918 408.623 519.118 405.833C519.102 405.805 519.08 405.782 519.053 405.766C519.025 405.75 518.994 405.742 518.963 405.742C518.931 405.742 518.9 405.75 518.873 405.766C518.846 405.782 518.823 405.805 518.808 405.833C517.653 408.914 516.729 412.077 516.044 415.296C516.044 415.605 536.385 418.17 540.364 418.369C540.409 418.324 540.453 418.148 540.342 418.103Z" fill="#263238"/>
<path d="M535.279 267.165C535.279 267.165 536.783 282.111 549.186 284.432C561.589 286.754 584.737 270.481 584.737 270.481C581.555 266.621 577.572 263.498 573.063 261.33C568.555 259.161 563.629 257.999 558.626 257.924C542.465 257.901 535.279 267.165 535.279 267.165Z" fill="#D3766A"/>
<path d="M570.852 262.987C570.189 265.197 558.493 279.391 548.124 278.308C544.742 277.932 545.913 259.405 545.913 259.405L545.692 258.034L542.487 238.622L565.834 225.357L569.194 223.632C569.194 223.632 569.725 229.005 570.3 235.704C570.3 236.014 570.3 236.323 570.3 236.655C570.3 236.986 570.3 237.384 570.41 237.738C570.41 238.733 570.609 239.75 570.676 240.767C570.742 241.784 570.808 242.315 570.852 243.111L570.985 245.543C571.339 251.353 571.295 257.182 570.852 262.987V262.987Z" fill="#D3766A"/>
<path d="M570.234 235.792C567.988 241.061 564.624 245.779 560.375 249.619C556.127 253.459 551.094 256.331 545.626 258.034L542.42 238.622L565.768 225.357L569.128 223.632C569.128 223.632 569.681 229.093 570.234 235.792Z" fill="#263238"/>
<path d="M520.002 202.386C510.915 235.682 529.863 244.901 537.048 246.847C543.681 248.616 565.989 253.811 578.48 221.621C590.972 189.43 578.348 174.661 563.623 169.819C548.899 164.977 529.089 169.067 520.002 202.386Z" fill="#D3766A"/>
<path d="M532.007 195.864C532.825 195.864 533.577 195.864 534.395 195.864C535.227 196.001 536.082 195.861 536.827 195.466C537.044 195.3 537.198 195.064 537.262 194.799C537.326 194.533 537.298 194.253 537.181 194.006C536.89 193.551 536.482 193.181 536 192.936C535.518 192.691 534.979 192.58 534.439 192.614C533.326 192.503 532.212 192.819 531.322 193.498C531.113 193.661 530.958 193.883 530.876 194.135C530.795 194.387 530.79 194.658 530.864 194.913C530.938 195.167 531.086 195.394 531.29 195.563C531.494 195.733 531.744 195.837 532.007 195.864V195.864Z" fill="#263238"/>
<path d="M555.752 199.18C554.995 198.895 554.257 198.563 553.542 198.185C552.725 197.954 552.009 197.456 551.508 196.77C551.392 196.525 551.362 196.248 551.422 195.983C551.482 195.719 551.629 195.482 551.839 195.311C552.306 195.028 552.841 194.878 553.387 194.878C553.933 194.878 554.468 195.028 554.934 195.311C555.982 195.718 556.836 196.508 557.322 197.522C557.393 197.744 557.403 197.981 557.351 198.208C557.299 198.435 557.187 198.645 557.026 198.814C556.866 198.983 556.663 199.106 556.439 199.171C556.215 199.235 555.978 199.238 555.752 199.18V199.18Z" fill="#263238"/>
<path d="M548.124 209.836C548.124 209.836 548.257 209.991 548.124 210.08C547.483 212.291 547.151 215.054 549.031 216.314C549.031 216.314 549.031 216.469 549.031 216.425C546.665 215.452 547.174 211.87 548.124 209.836Z" fill="#263238"/>
<path d="M550.756 207.957C554.514 208.576 552.966 216.027 549.517 215.43C546.068 214.833 547.638 207.427 550.756 207.957Z" fill="#263238"/>
<path d="M552.148 208.643C552.701 209.195 553.187 210.08 553.961 210.323C554.735 210.566 555.686 209.947 556.437 209.328C556.437 209.328 556.57 209.328 556.437 209.438C556.15 210.876 555.31 212.224 553.74 212.114C552.17 212.003 551.529 210.544 551.529 209.041C551.617 208.775 551.927 208.421 552.148 208.643Z" fill="#263238"/>
<path d="M534.417 205.282C534.417 205.282 534.218 205.282 534.196 205.459C533.776 207.78 532.914 210.345 530.658 210.655V210.787C533.267 210.986 534.395 207.559 534.417 205.282Z" fill="#263238"/>
<path d="M532.892 202.452C529.244 201.369 527.364 208.731 530.681 209.726C533.997 210.721 535.943 203.359 532.892 202.452Z" fill="#263238"/>
<path d="M531.234 202.54C530.548 202.784 529.796 203.336 529.023 203.204C528.249 203.071 527.807 202.098 527.497 201.214C527.497 201.214 527.387 201.214 527.364 201.214C526.966 202.607 527.055 204.199 528.337 204.818C529.62 205.437 530.703 204.398 531.41 203.093C531.609 202.894 531.499 202.452 531.234 202.54Z" fill="#263238"/>
<path d="M542.244 227.258C541.603 227.701 540.94 228.364 540.033 228.297C539.178 228.142 538.365 227.811 537.645 227.325C537.645 227.325 537.491 227.325 537.513 227.325C537.772 227.834 538.164 228.264 538.646 228.571C539.128 228.878 539.683 229.051 540.254 229.071C540.757 229.029 541.235 228.838 541.629 228.523C542.022 228.208 542.313 227.783 542.465 227.303C542.509 227.258 542.355 227.192 542.244 227.258Z" fill="#263238"/>
<path d="M534.461 216.845C534.461 216.845 533.245 220.183 532.891 221.797C532.891 221.952 533.223 222.107 533.776 222.262C535.107 222.825 536.568 223.007 537.997 222.789C539.426 222.57 540.766 221.959 541.868 221.024C542.022 220.891 541.868 220.692 541.669 220.758C539.301 221.715 536.686 221.878 534.218 221.223C534.218 220.758 536.429 215.607 536.252 215.518C534.968 215.343 533.666 215.343 532.383 215.518C534.748 208.51 538.197 201.944 540.43 194.935C540.43 194.67 540.143 194.515 540.033 194.736C536.115 201.664 532.9 208.967 530.437 216.535C530.15 217.464 533.754 216.978 534.461 216.845Z" fill="#263238"/>
<path d="M534.417 221.753C535.032 223.228 536.014 224.522 537.269 225.512C537.975 226.03 538.825 226.316 539.701 226.33C541.602 226.33 542.089 224.694 542.133 223.212C542.152 222.425 542.078 221.639 541.912 220.869C539.569 221.947 536.946 222.256 534.417 221.753V221.753Z" fill="#263238"/>
<path d="M537.269 225.512C537.975 226.03 538.825 226.316 539.701 226.33C541.602 226.33 542.089 224.694 542.133 223.212C541.182 223.007 540.19 223.122 539.311 223.537C538.432 223.953 537.714 224.647 537.269 225.512Z" fill="#FF9CBD"/>
<path d="M576.623 221.068C573.063 219.808 566.497 207.161 571.228 189.629C571.228 189.629 568.067 205.68 568.597 208.311C569.128 210.942 564.927 201.192 568.597 186.998C563.253 188.909 557.661 190.041 551.993 190.358C544.83 190.358 540.762 189.076 540.43 188.457C540.099 187.838 550.755 187.573 554.271 185.273C554.271 185.273 534.24 188.435 525.905 186.71C524.954 186.511 529.376 166.812 544.344 162.192C559.311 157.571 576.711 172.185 580.602 178.906C580.602 178.906 586.638 181.603 590.817 192.901C594.995 204.199 580.448 222.417 576.623 221.068Z" fill="#263238"/>
<path d="M571.471 221.797C571.471 221.797 580.801 212.534 585.135 216.049C589.468 219.564 581.089 233.935 575.075 234.997C574.315 235.189 573.525 235.227 572.75 235.108C571.975 234.989 571.232 234.714 570.566 234.302C569.899 233.889 569.323 233.346 568.871 232.706C568.419 232.066 568.1 231.341 567.934 230.575L571.471 221.797Z" fill="#D3766A"/>
<path d="M582.637 220.117C582.637 220.117 582.637 220.25 582.637 220.272C578.392 221.156 575.628 224.451 573.484 227.988C573.785 227.63 574.16 227.342 574.584 227.145C575.008 226.947 575.47 226.845 575.938 226.845C576.406 226.845 576.868 226.947 577.292 227.145C577.716 227.342 578.091 227.63 578.392 227.988C578.392 227.988 578.392 228.209 578.237 228.165C577.581 227.816 576.833 227.679 576.097 227.775C575.36 227.87 574.671 228.191 574.125 228.695C573.221 229.547 572.406 230.487 571.693 231.503C571.428 231.835 570.831 231.503 571.052 231.15C571.914 225.976 577.11 219.631 582.637 220.117Z" fill="#263238"/>
<path d="M607.001 428.605L607.576 428.738L607.001 428.605Z" fill="#D3766A"/>
<path d="M662.118 417.794C662.206 418.203 662.273 418.616 662.317 419.032C662.328 418.951 662.328 418.869 662.317 418.789C662.251 418.457 662.185 418.125 662.118 417.794Z" fill="#007EFF"/>
<path d="M662.118 417.794C662.206 418.203 662.273 418.616 662.317 419.032C662.328 418.951 662.328 418.869 662.317 418.789C662.251 418.457 662.185 418.125 662.118 417.794Z" fill="#007EFF"/>
<path d="M604.392 434.619L606.183 435.039L604.392 434.619Z" fill="#007EFF"/>
<path d="M662.118 417.794C662.206 418.203 662.273 418.616 662.317 419.032C662.328 418.951 662.328 418.869 662.317 418.789C662.251 418.457 662.185 418.125 662.118 417.794Z" fill="#DBDBDB"/>
<path d="M30 48.2638V135.329H117.176V48.2638H30ZM36.6327 128.829V54.8302H110.587V128.829H36.6327Z" fill="#EBEBEB"/>
<path d="M387.702 26H91.9495V298.361H387.702V26Z" fill="#37474F"/>
<path d="M292.655 161.064C328.693 197.588 374.016 274.417 365.615 290.004C356.197 307.359 306.031 256.155 306.208 253.148C306.363 250.937 288.72 204.221 275.255 170.283C261.791 136.346 283.745 152.021 292.655 161.064Z" fill="#F7A9A0"/>
<path d="M305.832 253.214C304.307 248.218 280.274 186.688 273.42 167.21C266.567 147.732 272.912 141.741 292.523 159.561C312.133 177.38 355.113 236.942 364.93 268.536C374.37 298.936 358.695 298.936 338.089 284.941C321.088 273.466 305.832 253.214 305.832 253.214Z" fill="#007EFF"/>
<path opacity="0.1" d="M289.117 161.572C288.649 164.303 287.475 166.864 285.713 169.001C285.936 167.64 286.345 166.316 286.928 165.066C287.501 163.81 288.237 162.635 289.117 161.572ZM348.546 246.206C347.947 247.449 347.537 248.776 347.33 250.141C348.231 249.089 348.975 247.912 349.541 246.648C350.125 245.398 350.534 244.074 350.757 242.713C349.849 243.76 349.104 244.937 348.546 246.206V246.206ZM327.3 213.86C326.703 215.113 326.293 216.446 326.084 217.818C326.98 216.754 327.724 215.571 328.295 214.302C328.884 213.055 329.294 211.73 329.51 210.367C328.615 211.423 327.871 212.599 327.3 213.86V213.86ZM305.191 205.746C303.947 205.147 302.62 204.737 301.255 204.53C303.392 206.293 305.953 207.467 308.684 207.935C307.644 207.046 306.482 206.309 305.235 205.746H305.191ZM325.089 238.446C323.836 237.849 322.503 237.439 321.131 237.23C322.195 238.126 323.378 238.87 324.647 239.44C325.894 240.03 327.219 240.439 328.582 240.656C327.54 239.764 326.379 239.02 325.133 238.446H325.089ZM308.905 182.443C307.661 181.844 306.335 181.434 304.969 181.227C306.022 182.128 307.198 182.872 308.463 183.438C309.708 184.035 311.034 184.445 312.398 184.654C311.359 183.757 310.198 183.013 308.949 182.443H308.905ZM296.568 226.109C297.036 227.408 297.684 228.636 298.492 229.757C298.222 226.995 297.239 224.352 295.639 222.085C295.782 223.464 296.109 224.817 296.612 226.109H296.568ZM338.199 265.065C338.663 266.366 339.311 267.595 340.123 268.713C339.853 265.952 338.87 263.308 337.271 261.041C337.4 262.422 337.727 263.777 338.244 265.065H338.199ZM310.165 258.432L310.895 259.294C312.101 258.849 313.239 258.239 314.277 257.481C312.879 257.62 311.508 257.963 310.209 258.498L310.165 258.432ZM359.49 281.691C360.792 281.227 362.02 280.579 363.138 279.767C361.759 279.882 360.404 280.195 359.114 280.696C357.809 281.15 356.579 281.799 355.466 282.619C356.855 282.519 358.224 282.229 359.535 281.757L359.49 281.691ZM285.491 191.508C284.59 191.841 283.717 192.248 282.883 192.724L283.082 193.277C284.026 193.11 284.952 192.851 285.845 192.503C287.158 192.049 288.395 191.4 289.515 190.579C288.15 190.728 286.811 191.063 285.536 191.574L285.491 191.508Z" fill="black"/>
<path d="M301.521 298.427H164.445C164.445 298.427 186.222 190.977 238.754 144.46C245.254 138.712 259.89 140.038 269.463 144.77C272.868 146.472 285.116 163.606 288.609 179.812C292.103 196.018 301.919 297.941 301.521 298.427Z" fill="#007EFF"/>
<path d="M289.891 186.511C290.974 190.137 291.859 193.874 292.588 197.566C292.577 197.419 292.577 197.271 292.588 197.124C292.588 194.913 292.588 192.857 292.876 190.734C292.876 190.734 293.075 190.602 293.075 190.734C293.355 192.867 293.414 195.023 293.252 197.168C293.252 198.163 293.141 199.18 293.053 200.197C293.34 201.877 293.605 203.58 293.804 205.26C294.224 208.444 295.286 220.36 295.374 222.726C295.374 223.212 294.821 223.301 294.689 222.726C294.048 220.338 292.345 208.046 291.792 204.884C290.724 198.76 289.986 192.582 289.582 186.379C289.648 186.379 289.847 186.379 289.891 186.511Z" fill="#263238"/>
<path opacity="0.1" d="M247.442 172.516C247.218 173.88 246.801 175.205 246.204 176.452C245.647 177.721 244.901 178.898 243.993 179.945C244.221 178.582 244.638 177.257 245.231 176.01C245.794 174.744 246.539 173.567 247.442 172.516V172.516ZM228.871 227.081C228.271 228.325 227.861 229.652 227.655 231.017C229.418 228.88 230.591 226.319 231.06 223.588C230.167 224.642 229.43 225.819 228.871 227.081V227.081ZM184.365 246.604C183.769 247.856 183.359 249.19 183.149 250.561C184.045 249.505 184.789 248.329 185.36 247.068C185.957 245.815 186.367 244.482 186.576 243.111C185.681 244.167 184.936 245.342 184.365 246.604V246.604ZM217.087 281.602C216.487 282.846 216.077 284.173 215.871 285.538C216.759 284.476 217.502 283.302 218.082 282.044C218.658 280.784 219.067 279.454 219.298 278.087C218.394 279.145 217.649 280.329 217.087 281.602V281.602ZM274.194 213.993C273.608 215.249 273.198 216.581 272.978 217.95C273.882 216.892 274.627 215.708 275.189 214.435C275.789 213.191 276.199 211.865 276.405 210.5C275.517 211.561 274.774 212.736 274.194 213.993V213.993ZM292.191 251.114C291.594 252.367 291.185 253.7 290.975 255.071C291.871 254.015 292.615 252.84 293.186 251.578C293.783 250.326 294.192 248.992 294.402 247.621C293.512 248.681 292.768 249.856 292.191 251.114V251.114ZM248.636 277.866C248.059 279.126 247.651 280.457 247.42 281.823C248.324 280.765 249.069 279.581 249.631 278.308C250.228 277.062 250.645 275.736 250.869 274.373C249.967 275.428 249.215 276.604 248.636 277.866ZM206.917 205.503C206.323 206.751 205.906 208.075 205.678 209.438C206.586 208.392 207.332 207.214 207.889 205.945C208.486 204.699 208.903 203.374 209.127 202.01C208.224 203.06 207.479 204.237 206.917 205.503ZM258.696 193.299C257.452 192.699 256.126 192.289 254.76 192.083C255.813 192.983 256.989 193.728 258.254 194.294C259.502 194.88 260.827 195.29 262.189 195.51C261.137 194.609 259.96 193.865 258.696 193.299V193.299ZM267.341 237.384C266.097 236.785 264.77 236.375 263.405 236.168C264.463 237.061 265.638 237.805 266.898 238.379C268.146 238.969 269.471 239.378 270.834 239.595C269.787 238.687 268.609 237.942 267.341 237.384ZM186.775 284.101C185.529 283.504 184.204 283.087 182.84 282.863C183.887 283.77 185.064 284.516 186.333 285.073C187.582 285.664 188.906 286.081 190.269 286.312C189.222 285.404 188.044 284.658 186.775 284.101V284.101ZM268.756 292.944C267.507 292.358 266.182 291.948 264.82 291.728C265.873 292.629 267.049 293.373 268.313 293.939L269.153 294.315C269.883 294.315 270.591 294.315 271.364 294.448C270.542 293.888 269.668 293.407 268.756 293.011V292.944ZM217.573 248.328C216.325 247.739 215 247.329 213.638 247.112C214.685 248.02 215.862 248.766 217.131 249.323C218.377 249.916 219.703 250.326 221.066 250.539C220.004 249.67 218.829 248.948 217.573 248.395V248.328ZM258.696 154.21C257.449 153.613 256.124 153.196 254.76 152.972C255.814 153.872 256.99 154.616 258.254 155.183C259.506 155.76 260.83 156.168 262.189 156.399C261.136 155.522 259.959 154.807 258.696 154.277V154.21ZM267.539 174.661C267.999 175.965 268.647 177.194 269.463 178.309C269.34 176.931 269.027 175.577 268.534 174.285C268.067 172.985 267.419 171.757 266.611 170.637C266.736 172.04 267.064 173.418 267.584 174.727L267.539 174.661ZM289.45 276.694C289.904 278 290.552 279.23 291.373 280.342C291.103 277.581 290.12 274.937 288.521 272.67C288.636 274.049 288.948 275.404 289.45 276.694V276.694ZM230.662 200.352C231.134 201.649 231.781 202.877 232.585 204C232.478 202.622 232.172 201.267 231.679 199.976C231.206 198.678 230.559 197.451 229.755 196.328C229.838 197.699 230.105 199.052 230.551 200.352H230.662ZM247.597 245.233C248.056 246.537 248.704 247.766 249.521 248.881C249.403 247.502 249.09 246.148 248.592 244.857C248.124 243.557 247.476 242.33 246.669 241.209C246.731 242.581 246.992 243.936 247.442 245.233H247.597ZM169.088 297.875C169.077 298.059 169.077 298.243 169.088 298.427H169.442L169.088 297.875ZM207.646 297.698C207.183 296.389 206.535 295.153 205.723 294.028C205.835 295.407 206.148 296.762 206.651 298.051L206.784 298.427H207.889C207.646 298.184 207.646 297.941 207.646 297.698V297.698ZM199.775 266.06C200.244 267.359 200.891 268.587 201.699 269.708C201.586 268.328 201.274 266.973 200.77 265.684C200.312 264.38 199.663 263.151 198.847 262.036C198.929 263.409 199.204 264.764 199.665 266.06H199.775ZM232.939 160.423C233.389 161.731 234.037 162.961 234.862 164.071C234.745 162.692 234.432 161.337 233.934 160.047C233.466 158.747 232.818 157.519 232.01 156.399C232.094 157.774 232.377 159.129 232.85 160.423H232.939ZM269.551 263.959C270.851 263.492 272.079 262.844 273.199 262.036C271.822 262.143 270.466 262.449 269.176 262.942C267.878 263.415 266.65 264.062 265.528 264.866C266.905 264.758 268.261 264.453 269.551 263.959V263.959ZM233.646 296.946C234.948 296.482 236.177 295.835 237.294 295.022C234.533 295.292 231.889 296.275 229.623 297.875C231.001 297.76 232.357 297.447 233.646 296.946V296.946ZM172.648 267.077C172.648 267.386 172.449 267.696 172.36 268.005C173.021 267.681 173.65 267.296 174.239 266.856C173.705 266.894 173.173 266.968 172.648 267.077V267.077ZM203.91 229.071C205.218 228.608 206.454 227.961 207.58 227.148C206.201 227.26 204.845 227.573 203.556 228.076C202.247 228.539 201.011 229.187 199.886 230C201.263 229.877 202.617 229.564 203.91 229.071V229.071ZM232.651 265.374C233.978 264.953 235.236 264.342 236.388 263.561C233.627 263.831 230.983 264.814 228.716 266.413C230.078 266.257 231.411 265.907 232.674 265.374H232.651ZM249.653 213.308C250.958 212.835 252.193 212.188 253.323 211.384C251.945 211.489 250.59 211.794 249.3 212.291C248 212.758 246.772 213.406 245.652 214.214C247.022 214.107 248.37 213.801 249.653 213.308V213.308ZM285.802 192.569C287.114 192.115 288.351 191.467 289.472 190.646C288.092 190.758 286.737 191.071 285.448 191.574C284.144 192.033 282.915 192.681 281.8 193.498C283.201 193.391 284.58 193.078 285.89 192.569H285.802ZM221.177 180.454C222.479 179.99 223.707 179.342 224.825 178.53C222.064 178.8 219.42 179.783 217.153 181.382C218.562 181.276 219.947 180.963 221.265 180.454H221.177Z" fill="black"/>
<path d="M120.205 102.166C119.918 95.5328 121.244 65.3098 123.499 56.9747C125.754 48.6396 133.979 25.0935 140.545 26.1769C147.112 27.2602 145.255 34.3351 145.255 34.3351C145.255 34.3351 150.296 24.9388 156.818 26.6191C163.34 28.2993 160.068 39.2433 160.068 39.2433C160.068 39.2433 165.949 29.9796 172.338 32.1242C178.728 34.2688 173.598 44.7042 173.598 44.7042C173.598 44.7042 178.573 35.9933 183.083 39.9729C188.5 44.7484 177.49 59.871 175.699 69.1789C175.279 71.3898 170.481 113.021 170.481 113.021L120.205 102.166Z" fill="#F7A9A0"/>
<path d="M174.018 43.8641C165.926 54.9186 164.312 61.1976 163.428 74.6619C163.428 74.9273 163.008 74.9494 163.008 74.6619C162.676 61.3965 163.583 53.2604 173.487 43.4219C173.974 42.9797 174.482 43.3556 174.018 43.8641Z" fill="#263238"/>
<path d="M160.73 38.4474C153.346 50.6737 151.533 57.439 149.543 71.4561C149.543 71.6551 149.189 71.633 149.189 71.4561C149.985 57.5274 151.069 49.3471 160.045 38.2926C160.465 37.6514 161.062 37.8725 160.73 38.4474Z" fill="#263238"/>
<path d="M145.166 35.1089C138.887 47.4678 136.587 54.808 136.322 68.6704C136.306 68.7251 136.272 68.7731 136.226 68.8073C136.181 68.8414 136.125 68.8599 136.068 68.8599C136.011 68.8599 135.955 68.8414 135.909 68.8073C135.863 68.7731 135.83 68.7251 135.814 68.6704C134.62 54.5206 137.428 45.3453 144.657 34.932C145.276 34.2466 145.564 34.3351 145.166 35.1089Z" fill="#263238"/>
<path d="M170.061 121.71C170.061 121.71 182.552 109.926 186.908 103.558C191.263 97.191 198.736 67.4102 192.391 65.4204C184.211 62.8778 176.517 79.1943 173.797 87.6841C173.797 87.6841 154.872 81.7589 146.824 92.2828C138.777 102.807 170.061 121.71 170.061 121.71Z" fill="#F7A9A0"/>
<path d="M189.959 65.4646C180.828 68.5157 177.975 79.8797 174.703 87.9274C174.661 88.049 174.591 88.1587 174.497 88.247C174.403 88.3354 174.29 88.3997 174.166 88.4344C174.042 88.4692 173.912 88.4734 173.786 88.4467C173.66 88.42 173.542 88.3632 173.443 88.2811C165.351 86.3134 153.368 85.9154 146.912 91.7522C146.877 91.7933 146.827 91.8187 146.773 91.8228C146.719 91.827 146.666 91.8095 146.625 91.7743C146.584 91.7392 146.558 91.6891 146.554 91.6352C146.55 91.5813 146.568 91.528 146.603 91.4869C152.815 84.2573 164.622 83.7045 173.355 86.4018C176.56 78.1109 179.987 66.8133 190.047 65.3762C189.959 65.3541 189.959 65.4425 189.959 65.4646Z" fill="#263238"/>
<path d="M246.403 160.489C238.178 174.727 190.644 218.614 149.123 226.219C143.508 227.236 122.106 222.726 117.618 208.532C109.637 183.239 116.026 131.018 120.094 99.5788C120.89 93.4546 177.887 106.057 176.406 115.431C174.77 125.822 168.668 163.96 169.618 164.402C173.023 165.972 209.415 150.231 233.359 145.079C250.383 141.409 252.748 149.523 246.403 160.489Z" fill="#F7A9A0"/>
<path d="M112.113 115.099L177.069 129.161C177.069 129.161 171.166 162.324 172.316 162.169C173.465 162.015 219.054 145.344 236.631 143.598C254.207 141.851 254.185 149.589 245.275 164.093C236.365 178.596 177.998 227.148 149.234 227.148C134.598 227.148 120.978 217.774 118.281 213.285C110.079 199.445 112.113 115.099 112.113 115.099Z" fill="#455A64"/>
<path d="M112.113 115.099L177.069 129.161C177.069 129.161 171.166 162.324 172.316 162.169C173.465 162.015 219.054 145.344 236.631 143.598C254.207 141.851 254.185 149.589 245.275 164.093C236.365 178.596 177.998 227.148 149.234 227.148C134.598 227.148 120.978 217.774 118.281 213.285C110.079 199.445 112.113 115.099 112.113 115.099Z" fill="#007EFF"/>
<path opacity="0.1" d="M205.192 161.351C204.602 162.599 204.193 163.924 203.976 165.287C204.884 164.24 205.629 163.062 206.187 161.794C206.783 160.549 207.193 159.223 207.403 157.858C206.51 158.916 205.766 160.092 205.192 161.351V161.351ZM153.589 219.343C152.99 220.587 152.58 221.914 152.373 223.279C154.136 221.142 155.31 218.581 155.778 215.85C154.89 216.908 154.154 218.083 153.589 219.343ZM115.341 179.547C114.734 180.79 114.317 182.116 114.103 183.483C115.002 182.429 115.747 181.253 116.314 179.989C116.893 178.738 117.301 177.414 117.53 176.054C116.634 177.106 115.897 178.283 115.341 179.547ZM171.874 179.702C171.287 180.958 170.878 182.29 170.658 183.659C171.566 182.605 172.311 181.42 172.869 180.144C173.466 178.898 173.882 177.573 174.107 176.209C173.199 177.269 172.448 178.452 171.874 179.724V179.702ZM143.53 196.107C142.946 197.357 142.537 198.681 142.314 200.042C143.222 198.995 143.967 197.818 144.525 196.549C145.122 195.302 145.539 193.977 145.763 192.614C144.856 193.665 144.104 194.842 143.53 196.107V196.107ZM146.05 156.178C145.457 157.424 145.047 158.75 144.834 160.113C146.597 157.976 147.771 155.415 148.239 152.685C147.307 153.732 146.533 154.908 145.94 156.178H146.05ZM116.999 126.485C116.402 127.732 115.985 129.057 115.761 130.421C116.676 129.379 117.422 128.2 117.972 126.928C118.566 125.68 118.982 124.355 119.21 122.992C118.309 124.045 117.565 125.221 116.999 126.485V126.485ZM233.801 160.025C233.337 158.723 232.69 157.495 231.877 156.377C231.99 157.756 232.303 159.112 232.806 160.401C233.257 161.704 233.898 162.933 234.707 164.049C234.612 162.681 234.322 161.333 233.845 160.047L233.801 160.025ZM195.331 186.556C194.864 185.256 194.216 184.028 193.408 182.908C193.523 184.287 193.835 185.642 194.336 186.932C194.791 188.237 195.439 189.467 196.26 190.58C196.147 189.219 195.849 187.88 195.376 186.6L195.331 186.556ZM166.435 156.642C165.971 155.341 165.323 154.112 164.511 152.994C164.781 155.755 165.764 158.399 167.363 160.666C167.259 159.304 166.961 157.964 166.479 156.686L166.435 156.642ZM162.698 199.932C162.235 198.63 161.587 197.402 160.775 196.284C160.89 197.663 161.202 199.018 161.703 200.308C162.162 201.611 162.81 202.84 163.627 203.955C163.522 202.594 163.224 201.254 162.743 199.976L162.698 199.932ZM125.644 195.267C125.185 193.963 124.537 192.734 123.72 191.619C123.849 192.995 124.161 194.349 124.649 195.642C125.112 196.944 125.76 198.173 126.572 199.29C126.47 197.928 126.172 196.588 125.688 195.311L125.644 195.267ZM137.339 134.069C136.876 132.76 136.229 131.524 135.416 130.399C135.523 131.784 135.829 133.146 136.322 134.445C136.8 135.74 137.446 136.967 138.246 138.093C138.151 136.732 137.86 135.391 137.384 134.113L137.339 134.069ZM132.918 168.78C132.45 167.48 131.802 166.252 130.994 165.132C131.109 166.511 131.422 167.866 131.923 169.156C132.381 170.46 133.029 171.689 133.846 172.804C133.758 171.444 133.475 170.104 133.006 168.824L132.918 168.78ZM220.911 179.547C219.61 180.011 218.381 180.658 217.263 181.471C218.642 181.353 219.997 181.04 221.287 180.542C222.589 180.078 223.817 179.431 224.935 178.619C223.556 178.733 222.201 179.046 220.911 179.547V179.547ZM152.197 177.955C150.901 178.433 149.674 179.079 148.549 179.879C149.928 179.766 151.283 179.454 152.572 178.95C153.876 178.491 155.105 177.843 156.22 177.027C154.838 177.111 153.476 177.394 152.175 177.867L152.197 177.955ZM158.697 137.142C157.397 137.61 156.169 138.257 155.049 139.066C156.42 138.95 157.768 138.638 159.05 138.137C160.358 137.687 161.589 137.038 162.698 136.213C161.324 136.298 159.968 136.581 158.675 137.054L158.697 137.142ZM121.819 149.943C120.519 150.411 119.291 151.058 118.171 151.867C120.933 151.618 123.58 150.641 125.843 149.037C124.463 149.122 123.101 149.397 121.797 149.855L121.819 149.943ZM183.127 205.216C181.829 205.688 180.602 206.335 179.479 207.139C182.242 206.89 184.889 205.914 187.151 204.309C185.766 204.415 184.403 204.72 183.105 205.216H183.127ZM133.758 216.027C132.456 216.491 131.228 217.138 130.11 217.95C131.489 217.838 132.845 217.525 134.134 217.022C135.437 216.563 136.666 215.915 137.782 215.098C136.395 215.211 135.032 215.524 133.736 216.027H133.758ZM186.974 161.064C185.674 161.532 184.446 162.179 183.326 162.987C184.702 162.866 186.055 162.561 187.35 162.081C188.646 161.604 189.872 160.957 190.998 160.158C189.612 160.26 188.249 160.566 186.952 161.064H186.974Z" fill="black"/>
<path d="M172.824 162.457C172.33 167.408 171.466 172.315 170.238 177.137C169.154 182.045 167.607 186.799 166.17 191.596H165.993C167.253 186.777 168.204 181.846 169.221 176.96C170.238 172.074 171.011 167.188 172.272 162.368C172.272 162.015 172.846 162.125 172.824 162.457Z" fill="#263238"/>
<path d="M173.245 141.409C165.728 139.552 158.122 138.071 150.494 136.633C142.867 135.196 135.239 133.715 127.59 132.455C123.168 131.747 118.923 131.018 114.567 130.443C114.567 130.443 114.413 130.62 114.567 130.642C122.062 132.521 129.69 134.025 137.295 135.528C144.901 137.031 152.551 138.446 160.178 139.795C164.6 140.547 168.845 141.232 173.2 141.785C173.355 141.829 173.466 141.475 173.245 141.409Z" fill="#263238"/>
<path d="M194.69 207.758C195.884 206.697 197.21 205.79 198.47 204.818C199.731 203.845 200.902 202.894 202.141 201.966L209.658 196.195C214.654 192.326 219.562 188.324 224.515 184.389C227.345 182.178 230.131 179.967 232.916 177.579C232.928 177.569 232.941 177.561 232.956 177.557C232.971 177.552 232.986 177.55 233.002 177.551C233.017 177.552 233.032 177.556 233.046 177.562C233.06 177.569 233.072 177.579 233.082 177.59C233.092 177.602 233.1 177.616 233.105 177.63C233.11 177.645 233.112 177.66 233.111 177.676C233.11 177.691 233.106 177.706 233.099 177.72C233.092 177.734 233.083 177.746 233.071 177.756C229.666 180.962 226.217 184.124 222.68 187.175L224.006 186.534C225.377 185.848 226.704 185.119 228.03 184.323C228.03 184.323 228.229 184.433 228.03 184.5C226.786 185.378 225.486 186.176 224.139 186.887C223.476 187.241 222.812 187.595 222.127 187.904L221.132 188.324C220.336 189.01 219.54 189.695 218.722 190.358C213.814 194.368 208.803 198.222 203.688 201.921C202.214 202.938 200.777 203.933 199.377 204.906C197.851 205.901 196.37 207.006 194.756 207.913C194.729 207.899 194.707 207.876 194.695 207.847C194.683 207.819 194.681 207.788 194.69 207.758V207.758Z" fill="#263238"/>
<path d="M259.16 177.27L266.743 165.729L273.885 175.435L270.966 184.013L262.874 184.19L259.16 177.27Z" fill="#263238"/>
<path d="M262.874 184.19L249.432 273.577L263.073 305.082L275.388 272.604L270.966 184.013L262.874 184.19Z" fill="#263238"/>
<path d="M269.552 164.911C261.659 166.812 248.017 154.829 242.601 145.013C242.225 144.35 243.22 137.275 243.994 128.608C244.458 123.346 244.834 117.553 244.812 112.092L278.594 120.074C276.71 126.81 275.663 133.753 275.477 140.746C275.475 141.489 275.557 142.231 275.72 142.957C275.72 143.067 275.72 143.178 275.72 143.333C276.383 147.555 277.091 163.032 269.552 164.911Z" fill="#F7A9A0"/>
<path d="M247.088 112.712C248.128 119.831 252.947 143.266 272.204 143.664C273.365 143.693 274.526 143.626 275.675 143.465C275.667 143.34 275.667 143.214 275.675 143.089C275.515 142.363 275.426 141.622 275.41 140.878C275.613 133.886 276.667 126.944 278.55 120.207L247.088 112.712Z" fill="#263238"/>
<path d="M236.94 74.4409C234.354 86.6672 243.706 120.538 252.859 127.503C266.124 137.54 286.332 136.81 294.468 121.201C302.361 106.079 289.405 62.1704 279.323 56.0462C264.466 46.893 240.809 56.3557 236.94 74.4409Z" fill="#F7A9A0"/>
<path d="M267.097 94.5158C267.097 94.5158 266.942 94.6706 266.965 94.759C267.65 96.9699 268.07 99.7336 266.213 101.06C266.213 101.06 266.213 101.215 266.213 101.171C268.689 100.132 268.114 96.5499 267.097 94.5158Z" fill="#263238"/>
<path d="M264.4 92.6808C260.663 93.3883 262.366 100.839 265.837 100.176C269.308 99.5125 267.539 92.0839 264.4 92.6808Z" fill="#263238"/>
<path d="M280.849 91.1111C280.849 91.0005 281.048 91.1111 281.07 91.2658C281.512 93.5873 282.441 96.174 284.696 96.4614V96.5941C282.087 96.7931 280.893 93.322 280.849 91.1111Z" fill="#263238"/>
<path d="M282.353 88.1927C286.001 87.0651 287.99 94.4495 284.564 95.4886C281.137 96.5278 279.302 89.1433 282.353 88.1927Z" fill="#263238"/>
<path d="M260.708 89.9613C261.658 89.4749 262.454 88.8559 263.361 88.2811C264.267 87.7062 265.24 87.1977 265.726 86.0702C265.833 85.7317 265.824 85.3672 265.699 85.0348C265.575 84.7023 265.343 84.4208 265.041 84.2351C264.389 83.9459 263.67 83.8385 262.962 83.9241C262.254 84.0097 261.582 84.2853 261.017 84.7215C259.733 85.4284 258.756 86.5863 258.276 87.9715C258.19 88.2919 258.199 88.6302 258.301 88.9458C258.402 89.2614 258.593 89.5409 258.85 89.7509C259.106 89.9609 259.418 90.0924 259.748 90.1298C260.077 90.1671 260.41 90.1086 260.708 89.9613V89.9613Z" fill="#A6A6A6"/>
<path d="M284.364 83.793C283.319 83.8479 282.271 83.8479 281.225 83.793C280.121 83.9218 279.007 83.6723 278.063 83.0855C277.797 82.8463 277.618 82.5254 277.554 82.1732C277.49 81.821 277.544 81.4575 277.71 81.1399C278.129 80.5648 278.695 80.112 279.348 79.8283C280 79.5446 280.717 79.4402 281.424 79.5259C282.885 79.4747 284.312 79.9715 285.426 80.9188C285.639 81.1524 285.784 81.4401 285.845 81.7506C285.905 82.061 285.879 82.3822 285.77 82.6789C285.66 82.9756 285.471 83.2365 285.223 83.433C284.975 83.6295 284.678 83.754 284.364 83.793V83.793Z" fill="#A6A6A6"/>
<path d="M271.43 108.334C272.232 109.101 273.185 109.694 274.228 110.075C275.27 110.455 276.381 110.615 277.488 110.545C278.459 110.517 279.42 110.346 280.34 110.036L280.849 109.859L281.357 109.661C281.471 109.606 281.564 109.516 281.624 109.405C281.683 109.294 281.706 109.166 281.689 109.041C281.698 108.961 281.698 108.879 281.689 108.798V108.798V108.599C281.335 106.808 280.539 104.177 280.539 104.177C281.269 104.354 284.961 105.084 284.652 104.177C282.606 96.2244 279.762 88.4985 276.162 81.1178C276.141 81.0621 276.099 81.0168 276.046 80.9919C275.992 80.9671 275.93 80.9646 275.874 80.9851C275.819 81.0056 275.773 81.0475 275.748 81.1014C275.724 81.1553 275.721 81.2168 275.742 81.2726C277.599 88.6349 280.716 95.6213 282.684 102.984C281.385 102.704 280.051 102.615 278.726 102.718C278.483 102.851 280.34 107.825 280.451 108.643C279.03 109.131 277.525 109.323 276.027 109.209C274.529 109.095 273.071 108.677 271.74 107.98C271.408 107.98 271.254 108.179 271.43 108.334Z" fill="#263238"/>
<path d="M279.102 109.727C278.345 111.193 277.227 112.441 275.852 113.353C275.093 113.807 274.215 114.022 273.332 113.972C271.364 113.817 271.121 112.115 271.121 110.611C271.159 109.801 271.3 108.998 271.541 108.223C273.838 109.514 276.486 110.04 279.102 109.727V109.727Z" fill="#263238"/>
<path d="M275.852 113.353C275.093 113.807 274.215 114.022 273.332 113.972C271.364 113.817 271.121 112.115 271.121 110.611C272.103 110.471 273.103 110.666 273.961 111.163C274.819 111.66 275.485 112.431 275.852 113.353V113.353Z" fill="#FF9CBD"/>
<g opacity="0.2">
<path d="M270.657 78.6416C271.884 78.5348 273.102 78.3502 274.305 78.0888C275.521 77.7793 276.649 77.2266 277.865 76.9392C280.198 76.5298 282.584 76.5298 284.918 76.9392C285.117 76.9392 285.117 77.0939 284.918 77.0718C282.449 76.7374 279.938 76.9411 277.555 77.6688C275.657 78.4216 273.662 78.9053 271.63 79.1059C266.967 79.1336 262.432 80.6348 258.674 83.395C258.674 83.395 258.674 83.395 258.674 83.395C262.103 80.6482 266.277 78.9925 270.657 78.6416V78.6416Z" fill="black"/>
<path d="M269.861 75.4137C271.029 75.3325 272.19 75.1625 273.332 74.9051C274.482 74.6177 275.543 74.0871 276.715 73.8218C278.909 73.4395 281.153 73.4395 283.347 73.8218C283.546 73.8218 283.546 73.9766 283.347 73.9545C281.004 73.6561 278.624 73.8519 276.361 74.5293C274.562 75.2425 272.672 75.6966 270.745 75.8779C266.326 75.9136 262.032 77.3452 258.475 79.9681C258.475 79.9681 258.475 79.9681 258.475 79.9681C261.733 77.3523 265.697 75.7667 269.861 75.4137V75.4137Z" fill="black"/>
</g>
<path d="M240.301 103.625C240.301 103.625 228.451 84.1025 229.556 72.8048C230.043 67.6976 236.985 64.2707 236.985 64.2707C236.451 62.1882 236.51 59.9981 237.155 57.9473C237.799 55.8965 239.004 54.0665 240.633 52.6635C246.669 46.9814 261.283 48.2417 261.283 48.2417C261.283 48.2417 270.745 34.5562 284.143 39.9729C297.541 45.3896 288.83 60.5785 288.83 60.5785C288.83 60.5785 293.739 67.5649 281.733 73.0259C269.728 78.4868 246.138 73.1364 246.138 73.1364C247.259 81.3617 247.139 89.7086 245.784 97.8985C245.485 99.2649 244.815 100.522 243.848 101.533C242.881 102.543 241.653 103.267 240.301 103.625Z" fill="#A6A6A6"/>
<path d="M263.582 48.4186C260.594 47.2043 257.387 46.6246 254.163 46.7162C251.278 46.6687 248.407 47.1174 245.674 48.0427C243.213 48.7404 240.989 50.0947 239.241 51.9604C237.492 53.8261 236.284 56.1328 235.747 58.6329C235.551 59.9304 235.617 61.2538 235.94 62.5256C236.262 63.7974 236.836 64.992 237.626 66.0395C237.626 66.0395 237.825 66.0395 237.758 66.0395C234.663 62.1925 236.277 56.223 239.483 53.0172C243.399 49.6122 248.421 47.7496 253.611 47.7774C256.934 47.7353 260.251 48.084 263.493 48.8165C263.692 48.7502 263.759 48.507 263.582 48.4186Z" fill="#A6A6A6"/>
<path d="M246.779 101.834C246.779 101.834 237.802 91.5754 233.049 94.8917C228.296 98.2081 235.923 113.684 242.069 115.232C242.846 115.49 243.666 115.587 244.48 115.518C245.295 115.448 246.087 115.214 246.809 114.83C247.531 114.445 248.166 113.918 248.678 113.28C249.19 112.643 249.567 111.908 249.785 111.12L246.779 101.834Z" fill="#F7A9A0"/>
<path d="M235.348 99.2693V99.424C239.77 100.662 242.291 104.266 244.192 108.091C243.902 107.704 243.533 107.384 243.109 107.152C242.685 106.921 242.217 106.782 241.735 106.747C241.253 106.711 240.769 106.779 240.316 106.946C239.863 107.113 239.45 107.375 239.107 107.715C239.078 107.735 239.058 107.767 239.051 107.802C239.045 107.837 239.053 107.874 239.074 107.903C239.094 107.932 239.126 107.952 239.161 107.958C239.196 107.965 239.232 107.957 239.262 107.936C239.962 107.622 240.743 107.534 241.496 107.685C242.249 107.835 242.937 108.217 243.462 108.776C244.309 109.725 245.05 110.763 245.673 111.871C245.894 112.225 246.558 111.871 246.359 111.54C246.005 106.145 241.075 99.1808 235.348 99.2693Z" fill="#263238"/>
<path d="M266.434 106.587C264.498 106.848 262.528 106.559 260.748 105.755C258.968 104.951 257.449 103.663 256.364 102.038C255.28 100.413 254.673 98.5169 254.614 96.5644C254.554 94.6119 255.043 92.6818 256.026 90.9937C257.009 89.3056 258.446 87.9273 260.174 87.0157C261.901 86.104 263.85 85.6955 265.799 85.8367C267.747 85.978 269.616 86.6632 271.194 87.8145C272.773 88.9658 273.996 90.5369 274.725 92.3491V92.3491C275.236 93.6208 275.492 94.9807 275.477 96.3512C275.463 97.7217 275.178 99.0758 274.641 100.336C274.103 101.597 273.322 102.739 272.342 103.698C271.363 104.657 270.204 105.413 268.933 105.924C268.128 106.24 267.29 106.463 266.434 106.587V106.587ZM263.87 87.2641C263.113 87.3707 262.371 87.5636 261.659 87.8389C259.53 88.6924 257.806 90.3246 256.838 92.4035C255.87 94.4825 255.73 96.8521 256.447 99.0306C257.164 101.209 258.683 103.033 260.697 104.131C262.71 105.229 265.066 105.519 267.286 104.942C269.505 104.365 271.421 102.964 272.645 101.024C273.869 99.0845 274.307 96.7516 273.872 94.5C273.437 92.2483 272.161 90.2469 270.303 88.9028C268.445 87.5586 266.144 86.9727 263.87 87.2641V87.2641Z" fill="#455A64"/>
<path d="M289.604 100.529C285.646 101.06 281.512 97.4785 280.163 92.2165C279.485 89.6991 279.609 87.0328 280.517 84.5889C280.841 83.5189 281.436 82.5508 282.244 81.7788C283.053 81.0068 284.048 80.4572 285.131 80.1834C286.215 79.9097 287.352 79.9211 288.43 80.2165C289.508 80.512 290.491 81.0815 291.284 81.8695C293.283 83.5927 294.665 85.9217 295.22 88.5022C296.635 94.0737 294.424 99.5567 290.267 100.507C290.047 100.536 289.825 100.543 289.604 100.529V100.529ZM286 81.4494H285.47C284.617 81.7122 283.84 82.174 283.202 82.7969C282.564 83.4197 282.083 84.1856 281.8 85.0311C281.012 87.1956 280.911 89.5506 281.512 91.7743C282.75 96.6162 286.509 99.8441 289.914 98.9598C293.318 98.0754 295.109 93.4767 293.871 88.6349C293.347 86.3892 292.133 84.3638 290.4 82.8423C289.806 82.3141 289.107 81.9171 288.349 81.6771C287.59 81.4371 286.79 81.3595 286 81.4494Z" fill="#455A64"/>
<path d="M274.702 93.5872L273.553 92.7692C274.769 91.0889 277.864 88.458 281.003 90.5583L280.252 91.7301C277.444 89.8508 274.813 93.4325 274.702 93.5872Z" fill="#455A64"/>
<path d="M230.308 107.627L228.959 107.317C229.092 106.676 230.463 101.104 233.381 99.8441C236.299 98.5839 254.65 95.754 255.49 95.6434L255.711 97.0142C250.383 97.8543 236.1 100.198 234 101.126C231.9 102.055 230.662 106.101 230.308 107.627Z" fill="#455A64"/>
<path d="M275.654 142.647L266.213 162.015L243.286 135.329L235.747 142.912C235.747 142.912 257.126 184.433 257.392 182.709L266.744 166.171L277.798 178.884L278.882 148.948L275.654 142.647Z" fill="#EBEBEB"/>
<path d="M279.102 163.938C279.102 158.986 279.279 154.011 279.102 149.059C279.102 148.904 278.815 148.794 278.77 149.059C277.466 153.746 277.488 172.671 277.156 177.181C276.714 176.651 266.942 165.972 266.832 166.127C264.864 168.714 257.988 180.763 257.524 181.869C254.163 175.236 241.119 151.248 237.029 144.947C237.003 144.915 236.968 144.893 236.928 144.884C236.889 144.875 236.847 144.88 236.811 144.898C236.775 144.917 236.746 144.947 236.729 144.984C236.712 145.02 236.709 145.062 236.719 145.101C239.615 152.021 256.838 184.345 257.126 184.278C260.692 178.623 263.961 172.786 266.92 166.79C268.534 169.001 278.306 181.028 278.395 180.299C278.911 174.861 279.147 169.4 279.102 163.938V163.938Z" fill="#263238"/>
<path d="M365.57 290.092C357.456 301.677 335.369 303.91 280.318 314.677C272.69 316.181 247.685 265.242 255.733 263.23C265.881 260.687 305.81 253.06 308.794 252.861C334.021 251.18 371.075 282.133 365.57 290.092Z" fill="#F7A9A0"/>
<path d="M266.766 260.621C266.766 260.621 243.418 264.158 231.745 269.796C219.749 275.977 209.432 284.974 201.677 296.017C193.275 307.912 181.159 342.446 190.512 347.708C198.979 352.44 209.57 316.49 209.57 316.49C209.57 316.49 192.722 351.356 203.954 355.181C215.185 359.006 225.112 316.623 225.112 316.623C225.112 316.623 208.597 352.86 220.801 354.96C230.043 356.552 241.186 318.613 241.186 318.613C241.186 318.613 227.213 349.853 236.631 351.909C247.044 354.12 259.536 319.785 259.536 319.785C284.342 320.956 296.635 311.361 304.572 303.49C306.496 301.523 266.766 260.621 266.766 260.621Z" fill="#F7A9A0"/>
<path d="M214.61 304.043C212.399 308.067 210.298 312.135 208.552 316.336C206.805 320.536 205.169 324.803 203.798 329.137C201.914 334.786 200.675 340.631 200.106 346.559C201.875 336.123 207.955 320.978 209.724 316.778C211.492 312.577 213.018 308.288 214.787 304.109C214.831 303.999 214.676 303.955 214.61 304.043Z" fill="#263238"/>
<path d="M229.91 310.123C227.412 315.385 224.736 320.514 222.481 325.887C220.226 331.259 218.568 336.499 216.689 341.982C216.534 342.402 216.821 342.336 216.976 341.982C219.076 336.587 221.398 331.746 223.609 326.373C225.82 321.001 227.721 315.518 230.065 310.234C230.065 310.101 229.932 309.99 229.91 310.123Z" fill="#263238"/>
<path d="M243.971 312.997C239.944 320.965 236.758 329.33 234.464 337.958C234.332 338.378 234.685 338.268 234.818 337.826C237.825 329.468 240.124 322.902 244.236 313.13C244.303 312.997 244.06 312.82 243.971 312.997Z" fill="#263238"/>
<path d="M261.902 260.621L310.143 314.412C310.143 314.412 358.938 303.225 366.123 290.711C370.855 282.465 334.11 249.102 306.429 252.993L261.902 260.621Z" fill="#007EFF"/>
<path opacity="0.1" d="M304.727 294.16C304.514 295.524 304.104 296.849 303.511 298.096C302.953 299.364 302.208 300.542 301.3 301.589C301.517 300.226 301.926 298.901 302.516 297.653C303.09 296.394 303.834 295.218 304.727 294.16V294.16ZM338.244 291.131C337.657 292.388 337.248 293.72 337.028 295.089C337.932 294.031 338.677 292.846 339.239 291.573C339.836 290.327 340.253 289.002 340.477 287.638C339.575 288.693 338.823 289.869 338.244 291.131V291.131ZM314.344 279.856C313.101 279.256 311.774 278.846 310.409 278.64C312.546 280.403 315.107 281.576 317.838 282.044C316.784 281.152 315.607 280.415 314.344 279.856V279.856ZM338.244 265.065C338.708 266.366 339.355 267.595 340.168 268.713C339.898 265.952 338.915 263.308 337.316 261.041C337.43 262.42 337.743 263.775 338.244 265.065V265.065ZM289.45 276.694C289.904 278 290.552 279.23 291.373 280.342C291.103 277.581 290.12 274.937 288.521 272.67C288.636 274.049 288.949 275.404 289.45 276.694V276.694ZM269.551 263.959C270.851 263.492 272.079 262.844 273.199 262.036C271.822 262.143 270.466 262.449 269.176 262.942C267.878 263.415 266.65 264.062 265.528 264.866C266.905 264.758 268.261 264.453 269.551 263.959V263.959ZM310.63 259.538C311.93 259.07 313.158 258.422 314.278 257.614C312.901 257.724 311.546 258.029 310.254 258.521C308.959 258.998 307.732 259.645 306.606 260.444C307.969 260.317 309.308 260.005 310.586 259.515L310.63 259.538ZM325.841 306.762C327.143 306.299 328.371 305.651 329.489 304.839C328.11 304.951 326.754 305.264 325.465 305.767C324.161 306.226 322.932 306.874 321.817 307.691C323.182 307.562 324.521 307.242 325.797 306.74L325.841 306.762ZM362.1 279.966C361.112 280.151 360.142 280.424 359.203 280.784C357.902 281.248 356.673 281.896 355.555 282.708C356.933 282.582 358.286 282.27 359.579 281.779C360.579 281.423 361.536 280.956 362.431 280.386L362.1 279.966Z" fill="black"/>
<path d="M339.46 261.66C329.87 254.731 318.062 251.582 306.296 252.816C306.164 252.816 306.164 253.06 306.296 253.06C318.412 252.728 334.751 259.051 339.327 261.793C339.482 261.947 339.592 261.748 339.46 261.66Z" fill="#263238"/>
<path d="M323.342 305.347C318.345 299.157 313.039 293.254 307.689 287.351C302.338 281.448 297.032 275.522 291.549 269.663C288.454 266.413 285.381 263.031 282.175 259.98C282.157 259.956 282.131 259.941 282.102 259.937C282.073 259.932 282.044 259.94 282.02 259.958C281.997 259.975 281.981 260.001 281.977 260.03C281.973 260.059 281.981 260.089 281.998 260.112C286.995 266.281 292.279 272.228 297.474 278.153C302.67 284.079 308.131 290.004 313.548 295.841C316.599 299.135 319.716 302.473 322.922 305.546C323.187 305.767 323.475 305.568 323.342 305.347Z" fill="#263238"/>
<path d="M261.813 259.935C264.775 259.032 267.796 258.338 270.855 257.857C273.884 257.305 276.958 256.774 280.009 256.288C286.089 255.315 298.868 252.551 310.099 252.573C310.232 252.573 309.59 253.192 309.458 253.17C304.107 252.883 265.793 260.51 262.653 260.731C262.764 260.953 262.896 261.151 262.985 261.373C263.017 261.408 263.034 261.454 263.032 261.502C263.03 261.55 263.009 261.595 262.974 261.627C262.938 261.659 262.892 261.676 262.844 261.674C262.797 261.672 262.752 261.651 262.719 261.616C262.321 261.35 262.056 261.019 261.68 260.731C261.609 260.684 261.553 260.617 261.519 260.539C261.486 260.461 261.475 260.375 261.489 260.291C261.503 260.206 261.541 260.128 261.598 260.065C261.656 260.002 261.73 259.957 261.813 259.935V259.935Z" fill="#263238"/>
</svg>
